<svg width="99" height="128" viewBox="0 0 99 128" fill="none" xmlns="http://www.w3.org/2000/svg">
<circle cx="49.1289" cy="49.8457" r="49" fill="#101974"/>
<path d="M72.2818 34.2562C81.3752 29.0061 82.3726 22.6721 74.6871 18.2349C69.1724 15.051 62.7777 14.3397 54.8576 16.3381L45.3534 18.7091C39.6627 20.0978 36.6707 20.1994 34.3826 18.8784C31.9186 17.4558 32.1533 15.4913 35.2627 13.6961C38.9587 11.5622 43.0654 11.6299 46.8788 13.8316L56.3829 8.34437C48.4628 3.7717 37.3747 4.27977 28.3399 9.49601C19.4225 14.6445 18.5424 20.7075 25.7585 24.8737C31.0973 27.956 37.7267 28.5319 45.2948 26.5334L55.5616 23.9253C60.7243 22.6382 63.3057 22.6382 65.8284 24.0947C68.7031 25.7544 68.3511 27.8544 64.831 29.8867C60.6656 32.2916 55.5029 32.2239 51.0442 29.6496L41.5401 35.1368C50.7508 40.4547 62.191 40.0821 72.2818 34.2562Z" fill="#F0F4F5"/>
<path d="M31.4492 89.7892C42.935 96.4205 50.4008 93.6851 50.4008 83.4894C50.4008 76.4436 46.6679 69.232 40.5661 64.3829C46.5243 65.9164 49.5393 63.1809 49.5394 57.0469C49.5394 47.4315 42.5043 37.3187 31.9517 31.2262C20.2505 24.4705 13.2155 27.5375 13.2155 38.3134L24.7013 44.9447C24.7013 39.9712 27.3574 38.5206 31.6646 41.0074C35.3974 43.1626 37.91 47.1828 37.91 50.9958C37.91 55.6378 35.6128 56.5496 31.0185 53.8971L26.0652 51.0373L26.0652 61.3159L30.9467 64.1342C35.9717 67.0354 38.6278 71.0556 38.6278 76.112C38.6278 80.5053 35.8999 81.8316 31.6646 79.3863C26.7113 76.5265 23.8398 71.553 23.8398 65.5848L12.1387 58.8291C12.1387 71.5115 18.9584 82.5776 31.4492 89.7892Z" fill="#F0F4F5"/>
<path d="M71.6289 87.1729C88.1314 77.1911 92.6289 57.6809 91.1289 48.171C89.6289 38.6612 83.6289 31.6729 71.3783 37.1809L54.1289 45.0312L54.1289 93.6809C54.1289 93.6809 64.2194 91.6547 71.6289 87.1729ZM64.2554 48.171L69.6937 45.0312C78.32 40.0509 82.5081 45.0673 82.5081 53.0793C82.5081 61.0912 78.32 71.6926 69.6937 76.6729C69.6937 76.6729 67.1289 78.1729 64.2554 79.0639C64.2554 76.6729 64.2554 48.171 64.2554 48.171Z" fill="#F0F4F5"/>
<path d="M13.8069 117.028C14.6109 117.304 15.2589 117.754 15.7509 118.378C16.2429 118.99 16.4889 119.716 16.4889 120.556C16.4889 121.876 16.0449 122.908 15.1569 123.652C14.2689 124.396 13.1829 124.768 11.8989 124.768C10.9029 124.768 10.0089 124.54 9.21691 124.084C8.43691 123.628 7.86091 122.956 7.48891 122.068L9.97291 120.628C10.2849 121.516 10.9269 121.96 11.8989 121.96C12.4629 121.96 12.8889 121.828 13.1769 121.564C13.4649 121.3 13.6089 120.964 13.6089 120.556C13.6089 120.148 13.4649 119.812 13.1769 119.548C12.8889 119.284 12.4629 119.152 11.8989 119.152H11.3049L10.2069 117.514L12.4929 114.616H7.88491V111.916H15.9849V114.256L13.8069 117.028ZM23.8654 111.916C25.6054 111.916 27.0574 112.522 28.2214 113.734C29.3974 114.934 29.9854 116.428 29.9854 118.216C29.9854 120.004 29.3974 121.504 28.2214 122.716C27.0574 123.916 25.6054 124.516 23.8654 124.516H18.8254V111.916H23.8654ZM23.8654 121.744C24.8614 121.744 25.6654 121.426 26.2774 120.79C26.9014 120.142 27.2134 119.284 27.2134 118.216C27.2134 117.148 26.9014 116.296 26.2774 115.66C25.6654 115.012 24.8614 114.688 23.8654 114.688H21.7054V121.744H23.8654ZM36.2777 124.768C34.9937 124.768 33.9197 124.492 33.0557 123.94C32.2037 123.376 31.5977 122.614 31.2377 121.654L33.7217 120.214C34.2257 121.378 35.1077 121.96 36.3677 121.96C37.5077 121.96 38.0777 121.618 38.0777 120.934C38.0777 120.562 37.8917 120.274 37.5197 120.07C37.1597 119.854 36.4757 119.608 35.4677 119.332C34.9397 119.188 34.4777 119.026 34.0817 118.846C33.6857 118.666 33.2957 118.432 32.9117 118.144C32.5397 117.844 32.2517 117.472 32.0477 117.028C31.8557 116.584 31.7597 116.074 31.7597 115.498C31.7597 114.334 32.1737 113.404 33.0017 112.708C33.8417 112.012 34.8377 111.664 35.9897 111.664C37.0217 111.664 37.9337 111.91 38.7257 112.402C39.5177 112.882 40.1417 113.584 40.5977 114.508L38.1677 115.93C37.9397 115.45 37.6577 115.09 37.3217 114.85C36.9857 114.598 36.5417 114.472 35.9897 114.472C35.5577 114.472 35.2217 114.568 34.9817 114.76C34.7537 114.94 34.6397 115.162 34.6397 115.426C34.6397 115.738 34.7837 116.008 35.0717 116.236C35.3717 116.464 35.9837 116.716 36.9077 116.992C37.4117 117.148 37.8017 117.274 38.0777 117.37C38.3537 117.466 38.7017 117.628 39.1217 117.856C39.5537 118.072 39.8777 118.306 40.0937 118.558C40.3217 118.798 40.5197 119.122 40.6877 119.53C40.8677 119.926 40.9577 120.382 40.9577 120.898C40.9577 122.098 40.5257 123.046 39.6617 123.742C38.7977 124.426 37.6697 124.768 36.2777 124.768ZM45.7026 121.096C46.0146 121.936 46.7346 122.356 47.8626 122.356C48.5946 122.356 49.1706 122.128 49.5906 121.672L51.7506 122.914C50.8626 124.15 49.5546 124.768 47.8266 124.768C46.3146 124.768 45.1026 124.318 44.1906 123.418C43.2906 122.518 42.8406 121.384 42.8406 120.016C42.8406 118.66 43.2846 117.532 44.1726 116.632C45.0726 115.72 46.2246 115.264 47.6286 115.264C48.9366 115.264 50.0226 115.72 50.8866 116.632C51.7626 117.532 52.2006 118.66 52.2006 120.016C52.2006 120.4 52.1646 120.76 52.0926 121.096H45.7026ZM45.6486 119.08H49.5186C49.2546 118.132 48.6186 117.658 47.6106 117.658C46.5666 117.658 45.9126 118.132 45.6486 119.08ZM58.6841 124.768C57.3161 124.768 56.1761 124.312 55.2641 123.4C54.3641 122.488 53.9141 121.36 53.9141 120.016C53.9141 118.672 54.3641 117.544 55.2641 116.632C56.1761 115.72 57.3161 115.264 58.6841 115.264C59.5481 115.264 60.3401 115.474 61.0601 115.894C61.7921 116.314 62.3561 116.872 62.7521 117.568L60.3941 118.936C60.0701 118.264 59.4881 117.928 58.6481 117.928C58.0601 117.928 57.5741 118.126 57.1901 118.522C56.8061 118.906 56.6141 119.404 56.6141 120.016C56.6141 120.628 56.8061 121.132 57.1901 121.528C57.5741 121.912 58.0601 122.104 58.6481 122.104C59.5001 122.104 60.0821 121.768 60.3941 121.096L62.7521 122.446C62.3561 123.154 61.7981 123.718 61.0781 124.138C60.3581 124.558 59.5601 124.768 58.6841 124.768ZM70.4606 115.516H73.1606V124.516H70.4606V123.67C69.9206 124.402 69.0626 124.768 67.8866 124.768C66.9266 124.768 66.1226 124.438 65.4746 123.778C64.8386 123.118 64.5206 122.206 64.5206 121.042V115.516H67.2206V120.646C67.2206 121.174 67.3646 121.582 67.6526 121.87C67.9526 122.146 68.3306 122.284 68.7866 122.284C69.3026 122.284 69.7106 122.128 70.0106 121.816C70.3106 121.504 70.4606 121.042 70.4606 120.43V115.516ZM78.5608 117.118C78.7288 116.542 79.0648 116.104 79.5688 115.804C80.0848 115.492 80.6488 115.336 81.2608 115.336V118.396C80.6008 118.288 79.9828 118.402 79.4068 118.738C78.8428 119.062 78.5608 119.632 78.5608 120.448V124.516H75.8608V115.516H78.5608V117.118ZM85.3912 121.096C85.7032 121.936 86.4232 122.356 87.5512 122.356C88.2832 122.356 88.8592 122.128 89.2792 121.672L91.4392 122.914C90.5512 124.15 89.2432 124.768 87.5152 124.768C86.0032 124.768 84.7912 124.318 83.8792 123.418C82.9792 122.518 82.5292 121.384 82.5292 120.016C82.5292 118.66 82.9732 117.532 83.8612 116.632C84.7612 115.72 85.9132 115.264 87.3172 115.264C88.6252 115.264 89.7112 115.72 90.5752 116.632C91.4512 117.532 91.8892 118.66 91.8892 120.016C91.8892 120.4 91.8532 120.76 91.7812 121.096H85.3912ZM85.3372 119.08H89.2072C88.9432 118.132 88.3072 117.658 87.2992 117.658C86.2552 117.658 85.6012 118.132 85.3372 119.08Z" fill="#101974"/>
</svg>
