<svg width="172" height="66" viewBox="0 0 172 66" fill="none" xmlns="http://www.w3.org/2000/svg">
<path d="M70.0218 34.6602H74.3975L72.1993 28.2951L70.0218 34.6602ZM76.108 39.8913L74.9545 36.4303H69.4451L68.3314 39.8913H65.9043L70.9458 26.1074H73.5712L78.5346 39.8913H76.108Z" fill="#232A3A"/>
<path d="M92.538 39.8911V33.0295C92.538 32.4194 92.4182 31.9816 92.1797 31.7159C91.9411 31.4511 91.5498 31.3187 91.0061 31.3187C90.5947 31.3187 90.1569 31.3879 89.6932 31.5269C89.2285 31.6664 88.8247 31.8423 88.4799 32.054V39.8911H86.1332V33.0295C86.1332 32.4194 86.0135 31.9816 85.7749 31.7159C85.5364 31.4511 85.1451 31.3187 84.6009 31.3187C84.2168 31.3187 83.8024 31.3814 83.3579 31.5077C82.9139 31.633 82.4856 31.816 82.0751 32.054V39.8911H79.7285V29.7672H81.6771L81.896 30.7813C82.5589 30.3304 83.1855 29.9992 83.7756 29.7868C84.3652 29.5748 84.9592 29.4688 85.5565 29.4688C86.789 29.4688 87.6378 29.9257 88.1019 30.8406C89.4283 29.9257 90.701 29.4688 91.921 29.4688C92.8623 29.4688 93.5918 29.7238 94.1086 30.234C94.6259 30.7448 94.8841 31.4843 94.8841 32.4522V39.8911H92.538Z" fill="#232A3A"/>
<path d="M100.494 38.5183C100.87 38.5183 101.264 38.4364 101.678 38.27C102.09 38.1039 102.491 37.869 102.879 37.5641V35.6546C102.194 35.509 101.587 35.4357 101.057 35.4357C99.7122 35.4357 99.0407 35.9727 99.0407 37.0467C99.0407 37.5111 99.1695 37.8722 99.4287 38.1304C99.6869 38.3898 100.042 38.5183 100.494 38.5183ZM103.178 39.8911L102.999 38.9169C102.534 39.3139 102.021 39.6264 101.458 39.8515C100.893 40.077 100.334 40.1896 99.7764 40.1896C98.8481 40.1896 98.0956 39.9114 97.5189 39.3541C96.9422 38.7965 96.6543 38.0745 96.6543 37.1861C96.6543 36.2051 97.0083 35.4229 97.7177 34.8388C98.4276 34.2554 99.3784 33.9635 100.572 33.9635C101.275 33.9635 102.044 34.0632 102.879 34.2619V33.0889C102.879 32.412 102.734 31.9423 102.442 31.6766C102.15 31.4113 101.639 31.2787 100.91 31.2787C99.8756 31.2787 98.6891 31.4974 97.3503 31.9348V30.284C97.8494 30.032 98.4601 29.833 99.1825 29.6877C99.9048 29.5423 100.63 29.4688 101.359 29.4688C102.682 29.4688 103.657 29.7345 104.285 30.2643C104.912 30.7948 105.227 31.6239 105.227 32.7506V39.8911H103.178Z" fill="#232A3A"/>
<path d="M106.738 39.8916V38.1608L112.388 31.5573H106.938V29.7676H114.913V31.4978L109.265 38.1015H114.974V39.8916H106.738Z" fill="#232A3A"/>
<path d="M120.86 38.3396C122.531 38.3396 123.366 37.1659 123.366 34.8186C123.366 32.4853 122.531 31.3187 120.86 31.3187C119.189 31.3187 118.354 32.4853 118.354 34.8186C118.354 37.1659 119.189 38.3396 120.86 38.3396ZM120.86 40.1896C119.321 40.1896 118.121 39.7158 117.26 38.7672C116.397 37.8191 115.967 36.5037 115.967 34.8186C115.967 33.1356 116.397 31.822 117.26 30.8808C118.121 29.9393 119.321 29.4688 120.86 29.4688C122.398 29.4688 123.598 29.9393 124.46 30.8808C125.322 31.822 125.753 33.1356 125.753 34.8186C125.753 36.5037 125.322 37.8191 124.46 38.7672C123.598 39.7158 122.398 40.1896 120.86 40.1896Z" fill="#232A3A"/>
<path d="M134.406 39.8911V33.1879C134.406 32.5383 134.274 32.0643 134.008 31.7659C133.743 31.4674 133.319 31.3187 132.736 31.3187C131.86 31.3187 130.965 31.6098 130.05 32.1935V39.8911H127.703V29.7672H129.652L129.891 30.8808C131.138 29.9393 132.437 29.4688 133.789 29.4688C134.757 29.4688 135.494 29.7238 135.997 30.234C136.501 30.7448 136.753 31.4843 136.753 32.4522V39.8911H134.406Z" fill="#232A3A"/>
<path d="M141.467 39.8913V26.1074H149.602V27.1614H142.64V32.2334H148.607V33.2878H142.64V38.8371H149.602V39.8913H141.467Z" fill="#232A3A"/>
<path d="M151.949 39.8913V26.1074H153.123V32.4922L159.448 26.1074H160.961L154.277 32.8297L161.517 39.8913H159.905L153.123 33.2878V39.8913H151.949Z" fill="#232A3A"/>
<path d="M165.315 32.9299C164.294 32.5326 163.545 32.0583 163.068 31.5082C162.59 30.9577 162.352 30.278 162.352 29.4693C162.352 28.3685 162.746 27.4771 163.535 26.794C164.324 26.111 165.361 25.7695 166.648 25.7695C167.231 25.7695 167.844 25.8388 168.488 25.9784C169.13 26.1172 169.737 26.3137 170.308 26.5653V27.5795C168.955 27.1024 167.755 26.8632 166.708 26.8632C165.686 26.8632 164.904 27.0861 164.36 27.5302C163.816 27.9743 163.545 28.6076 163.545 29.4291C163.545 29.8934 163.628 30.2682 163.794 30.553C163.959 30.8389 164.232 31.0971 164.609 31.3286C164.987 31.5612 165.527 31.81 166.23 32.0748L168.358 32.8906C169.313 33.2614 170.009 33.7152 170.447 34.2527C170.884 34.7898 171.103 35.4628 171.103 36.2716C171.103 37.4518 170.668 38.407 169.801 39.1357C168.932 39.8651 167.788 40.2294 166.369 40.2294C164.897 40.2294 163.585 39.9512 162.432 39.3945V38.3798C163.824 38.8841 165.103 39.1357 166.27 39.1357C167.37 39.1357 168.249 38.8772 168.905 38.3604C169.562 37.8428 169.89 37.1402 169.89 36.2515C169.89 35.7085 169.711 35.2438 169.353 34.8594C168.995 34.4749 168.418 34.1306 167.622 33.8247L165.315 32.9299Z" fill="#232A3A"/>
<path d="M23.1738 22.8818H25.8243V30.6993L33.4566 22.8818H36.9555L28.5811 31.495L37.485 41.4336H34.0931L25.8243 32.158V41.4336H23.1738V22.8818Z" fill="url(#paint0_linear_4590_48742)"/>
<path d="M31.4758 15.5182L44.5291 23.0544C44.7516 23.1834 44.8888 23.4211 44.8888 23.6779V38.7506C44.8888 39.0076 45.0269 39.2453 45.2494 39.3739L56.8979 46.0996C57.378 46.3771 57.978 46.0301 57.978 45.4763V16.1203C57.978 15.8633 57.8408 15.6258 57.6182 15.4969L32.1962 0.819366C31.7161 0.542328 31.1152 0.888828 31.1152 1.4429V14.8948C31.1152 15.1515 31.2527 15.3893 31.4758 15.5182Z" fill="url(#paint1_linear_4590_48742)"/>
<path d="M42.7081 42.5285L29.6549 50.0648C29.4324 50.1937 29.1574 50.1937 28.9349 50.0648L14.0602 41.4769C13.8377 41.3479 13.6996 41.1101 13.6996 40.8534V23.6773C13.6996 23.4203 13.8377 23.1829 14.0602 23.0539L27.1134 15.5174C27.3366 15.3888 27.4737 15.151 27.4737 14.8943V1.44301C27.4737 0.888939 26.8732 0.542435 26.3931 0.819473L0.971087 15.497C0.74852 15.6259 0.611328 15.8634 0.611328 16.1204V48.4104C0.611328 48.6671 0.74852 48.9048 0.971087 49.0338L28.9349 65.1786C29.1574 65.3076 29.4324 65.3076 29.6549 65.1786L55.0769 50.5016C55.557 50.2242 55.557 49.5313 55.0769 49.2542L43.4284 42.5285C43.205 42.3996 42.9306 42.3996 42.7081 42.5285Z" fill="url(#paint2_linear_4590_48742)"/>
<defs>
<linearGradient id="paint0_linear_4590_48742" x1="35.405" y1="40.9566" x2="24.0187" y2="22.1951" gradientUnits="userSpaceOnUse">
<stop stop-color="#4F66B9"/>
<stop offset="1" stop-color="#484FAB"/>
</linearGradient>
<linearGradient id="paint1_linear_4590_48742" x1="60.8189" y1="43.5958" x2="35.0084" y2="-0.844808" gradientUnits="userSpaceOnUse">
<stop stop-color="#4F66B9"/>
<stop offset="1" stop-color="#484FAB"/>
</linearGradient>
<linearGradient id="paint2_linear_4590_48742" x1="35.1651" y1="61.7506" x2="7.02284" y2="12.0649" gradientUnits="userSpaceOnUse">
<stop stop-color="#4C68BB"/>
<stop offset="1" stop-color="#5180C9"/>
</linearGradient>
</defs>
</svg>
