<svg width="197" height="63" viewBox="0 0 197 63" fill="none" xmlns="http://www.w3.org/2000/svg">
<path d="M14.9308 39.5344C20.7608 39.5344 24.0888 36.3237 25.9922 33.034L21.1558 30.6948C20.5659 31.8412 19.6746 32.805 18.5777 33.4825C17.4808 34.1601 16.22 34.5257 14.9308 34.54C10.1423 34.54 6.6467 30.8528 6.6467 25.8584C6.6467 20.864 10.1351 17.1769 14.9308 17.1769C17.6674 17.1769 20.0449 18.8816 21.1558 21.0221L25.9922 18.6422C24.1295 15.3525 20.7608 12.1777 14.9308 12.1777C7.00345 12.1777 0.857422 17.7276 0.857422 25.8561C0.857422 33.9845 7.00345 39.5344 14.9308 39.5344Z" fill="#39AEFF"/>
<path fill-rule="evenodd" clip-rule="evenodd" d="M41.8176 12.1797H41.9085C49.5342 12.1797 55.7257 18.3089 55.7257 25.858C55.7257 33.4071 49.5342 39.5339 41.9085 39.5339C34.2829 39.5339 28.0938 33.4071 28.0938 25.858C28.0938 18.9147 33.318 13.1877 40.0793 12.2994C40.4935 13.8724 41.1663 15.0887 40.8455 17.447C40.6061 19.2116 40.1895 19.305 38.7098 22.1709C38.1414 23.3154 37.858 24.5804 37.8838 25.858C37.8838 28.4629 40.0793 31.3959 41.8559 31.5108C42.8854 31.5802 45.4472 30.5316 45.6555 25.858C45.8567 21.297 43.3738 19.3935 43.2613 17.6673C43.0075 14.1334 42.203 12.8405 41.8678 12.2156C41.8574 12.2013 41.8444 12.1892 41.8295 12.1797H41.8176Z" fill="#39AEFF"/>
<path fill-rule="evenodd" clip-rule="evenodd" d="M40.0808 12.312C40.0808 12.3312 41.8645 12.2474 41.8574 12.2282C41.6371 11.7494 40.2245 8.15802 40.0521 6.57782C39.7696 4.03274 40.8374 0.137298 40.8422 0.0965962C40.9045 -0.353522 39.8701 1.09739 39.3913 2.79012C38.9124 4.48285 38.6946 5.38548 38.7353 6.56585C38.7903 8.00239 39.2524 9.84835 40.0784 12.3001L40.0808 12.312Z" fill="#39AEFF"/>
<path d="M81.0984 39.0597L75.1534 28.9895C78.0074 28.3143 80.9403 25.8171 80.9403 21.1387C80.9403 16.2234 77.5716 12.6152 72.0601 12.6152H59.6914V39.0597H65.3107V29.6623H69.4336L74.6483 39.0597H81.0984ZM71.2269 24.7086H65.3107V17.5785H71.2173C73.4775 17.5785 75.1822 18.9265 75.1822 21.1459C75.1822 23.3654 73.4775 24.7157 71.2173 24.7157L71.2269 24.7086Z" fill="#39AEFF"/>
<path d="M103.893 39.0573V34.1036H90.8109V28.1156H103.615V23.1619H90.8109V17.5713H103.893V12.6152H85.1797V39.0573H103.893Z" fill="#39AEFF"/>
<path d="M127.482 39.0573V34.1036H114.718L127.204 17.1356V12.6152H107.344V17.5713H119.832L107.344 34.4986V39.0573H127.482Z" fill="#39AEFF"/>
<path d="M143.733 39.5339C151.742 39.5339 157.569 33.826 157.569 25.858C157.569 17.89 151.742 12.1797 143.733 12.1797C135.765 12.1797 129.938 17.89 129.938 25.858C129.938 33.826 135.765 39.5339 143.733 39.5339ZM143.733 34.5395C138.858 34.5395 135.727 30.7734 135.727 25.858C135.727 20.9019 138.858 17.1765 143.733 17.1765C148.608 17.1765 151.783 20.9019 151.783 25.858C151.783 30.7734 148.61 34.5395 143.733 34.5395Z" fill="#39AEFF"/>
<path d="M167.164 39.0573V12.6152H161.535V39.0573H167.164Z" fill="#39AEFF"/>
<path d="M182.825 39.0597C191.112 39.0597 196.86 33.8258 196.86 25.8578C196.86 17.8898 191.114 12.6152 182.825 12.6152H172.398V39.0597H182.825ZM182.825 34.1036H178.037V17.5785H182.825C188.255 17.5785 191.112 21.1866 191.112 25.865C191.112 30.3446 188.059 34.1108 182.825 34.1108V34.1036Z" fill="#39AEFF"/>
<path d="M45.4372 59.3728C47.568 59.3728 49.0836 57.7543 49.0836 55.044C49.0836 52.3337 47.568 50.7344 45.4372 50.7344C44.9255 50.734 44.4209 50.8533 43.9636 51.0828C43.5063 51.3123 43.109 51.6456 42.8035 52.056V50.9307H41.0078V62.3033H42.8035V58.0272C43.1037 58.4449 43.4993 58.7849 43.9574 59.0189C44.4155 59.2529 44.9228 59.3743 45.4372 59.3728ZM44.9104 57.7878C44.4972 57.7761 44.092 57.6704 43.7257 57.4787C43.3594 57.287 43.0416 57.0145 42.7963 56.6817V53.4255C43.039 53.0901 43.3563 52.8155 43.7232 52.6236C44.09 52.4316 44.4965 52.3275 44.9104 52.3194C46.323 52.3194 47.2281 53.459 47.2281 55.044C47.2281 56.629 46.323 57.7878 44.9104 57.7878Z" fill="#39AEFF"/>
<path d="M52.6464 59.1701V53.5628C53.0031 52.9834 54.0087 52.4734 54.7581 52.4734C54.9469 52.4703 55.1355 52.4871 55.3207 52.5237V50.752C54.7993 50.7715 54.2888 50.9069 53.8262 51.1484C53.3636 51.3898 52.9606 51.7312 52.6464 52.1478V50.9387H50.8555V59.1701H52.6464Z" fill="#39AEFF"/>
<path d="M60.4856 59.3728C63.1193 59.3728 64.7282 57.4143 64.7282 55.044C64.7282 52.6737 63.1264 50.7344 60.4856 50.7344C57.8448 50.7344 56.2598 52.6929 56.2598 55.044C56.2598 57.3952 57.8783 59.3728 60.4856 59.3728ZM60.4856 57.7878C58.9677 57.7878 58.1153 56.5093 58.1153 55.044C58.1153 53.5787 58.9677 52.3194 60.4856 52.3194C62.0035 52.3194 62.8798 53.5955 62.8798 55.044C62.8798 56.4925 62.0275 57.7878 60.4856 57.7878Z" fill="#39AEFF"/>
<path d="M70.2837 59.3731C71.8854 59.3731 72.8551 58.6907 73.4345 57.9078L72.2541 56.816C72.0446 57.1226 71.7619 57.3721 71.4317 57.5419C71.1014 57.7116 70.734 57.7962 70.3627 57.7881C68.8639 57.7881 67.8751 56.646 67.8751 55.0443C67.8751 53.4425 68.8639 52.3196 70.3627 52.3196C70.7332 52.3066 71.1009 52.3876 71.4317 52.555C71.7624 52.7225 72.0454 52.971 72.2541 53.2773L73.4297 52.1879C72.8503 51.4026 71.8806 50.7227 70.2789 50.7227C67.7745 50.7227 66.0195 52.5447 66.0195 55.0323C66.0195 57.5199 67.7745 59.3611 70.2789 59.3611L70.2837 59.3731Z" fill="#39AEFF"/>
<path d="M78.8016 59.3737C80.1137 59.3737 81.3252 58.9643 82.1416 58.1766L81.3252 57.001C80.6857 57.5807 79.8539 57.9023 78.9908 57.9036C77.4393 57.9036 76.5008 56.8813 76.3571 55.6363H82.7114V55.2101C82.7114 52.6219 81.1265 50.7305 78.6556 50.7305C76.2206 50.7305 74.4824 52.6459 74.4824 55.0401C74.4824 57.6474 76.3212 59.3689 78.7921 59.3689L78.8016 59.3737ZM80.9828 54.3817H76.3475C76.4337 53.3761 77.1329 52.2005 78.6652 52.2005C78.9622 52.1847 79.2594 52.2292 79.5388 52.3314C79.8182 52.4337 80.0739 52.5915 80.2905 52.7954C80.5071 52.9993 80.6802 53.245 80.7992 53.5176C80.9182 53.7903 80.9806 54.0842 80.9828 54.3817Z" fill="#39AEFF"/>
<path d="M87.3071 59.3742C89.5218 59.3742 90.7309 58.2656 90.7309 56.8171C90.7309 53.5466 85.7556 54.6359 85.7556 53.1707C85.7556 52.5913 86.3518 52.1675 87.2879 52.1675C87.7412 52.1559 88.192 52.2375 88.6125 52.4072C89.033 52.5768 89.4142 52.831 89.7325 53.1539L90.4819 51.8945C89.5966 51.121 88.4536 50.7076 87.2784 50.7357C85.2002 50.7357 84.0413 51.8945 84.0413 53.2401C84.0413 56.3933 89.0166 55.2345 89.0166 56.853C89.0166 57.4995 88.4731 57.9592 87.3981 57.9592C86.3561 57.9286 85.3617 57.5162 84.604 56.8003L83.7852 58.0956C84.6375 58.9312 85.916 59.3742 87.3143 59.3742H87.3071Z" fill="#39AEFF"/>
<path d="M95.349 59.3741C97.5637 59.3741 98.7728 58.2655 98.7728 56.817C98.7728 53.5465 93.7975 54.6359 93.7975 53.1706C93.7975 52.5912 94.3937 52.1674 95.3322 52.1674C95.7839 52.157 96.233 52.2391 96.6517 52.4088C97.0705 52.5784 97.4501 52.832 97.7672 53.1538L98.519 51.8945C97.6333 51.1218 96.4905 50.7084 95.3155 50.7356C93.2349 50.7356 92.0761 51.8945 92.0761 53.24C92.0761 56.3932 97.0537 55.2344 97.0537 56.8529C97.0537 57.4994 96.5078 57.9591 95.4328 57.9591C94.3908 57.9285 93.3964 57.5161 92.6387 56.8003L91.8223 58.0955C92.6722 58.9311 93.9507 59.3741 95.349 59.3741Z" fill="#39AEFF"/>
<path d="M108.759 59.3728C110.071 59.3728 111.28 58.9634 112.099 58.1757L111.28 57.0049C110.641 57.5848 109.809 57.9064 108.946 57.9075C107.394 57.9075 106.458 56.8852 106.312 55.6402H112.669V55.214C112.669 52.6258 111.084 50.7344 108.613 50.7344C106.142 50.7344 104.438 52.6498 104.438 55.044C104.438 57.6513 106.279 59.3728 108.747 59.3728H108.759ZM110.94 54.3808H106.305C106.391 53.3752 107.088 52.1997 108.623 52.1997C108.92 52.1838 109.217 52.2283 109.496 52.3306C109.776 52.4328 110.031 52.5906 110.248 52.7945C110.465 52.9984 110.638 53.2441 110.757 53.5167C110.876 53.7894 110.938 54.0833 110.94 54.3808Z" fill="#39AEFF"/>
<path d="M121.792 59.1699V53.3759C121.792 51.6879 120.907 50.7422 119.135 50.7422C118.585 50.7466 118.043 50.8673 117.544 51.0963C117.045 51.3253 116.599 51.6575 116.238 52.071V50.9457H114.449V59.1771H116.238V53.4309C116.482 53.0973 116.8 52.8242 117.166 52.6324C117.533 52.4407 117.938 52.3355 118.352 52.3248C119.357 52.3248 120.004 52.751 120.004 54.0271V59.1747L121.792 59.1699Z" fill="#39AEFF"/>
<path d="M127.452 62.5093C129.48 62.5093 131.678 61.7072 131.678 58.7431V50.9379H129.889V52.0799C129.587 51.665 129.191 51.327 128.733 51.0932C128.276 50.8595 127.77 50.7366 127.256 50.7344C125.142 50.7344 123.609 52.3002 123.609 54.9602C123.609 57.6681 125.158 59.1861 127.256 59.1861C127.77 59.1759 128.275 59.0475 128.732 58.8109C129.189 58.5742 129.585 58.2356 129.889 57.8213V58.8102C129.889 60.4981 128.628 61.0416 127.452 61.0416C126.363 61.0416 125.51 60.7519 124.845 59.9857L124.012 61.281C125.015 62.2004 126.056 62.5093 127.452 62.5093ZM127.775 57.6011C126.363 57.6011 125.458 56.5452 125.458 54.9674C125.458 53.3896 126.363 52.3337 127.775 52.3337C128.189 52.3419 128.596 52.446 128.963 52.638C129.329 52.8299 129.647 53.1044 129.889 53.4399V56.5069C129.647 56.8428 129.33 57.1178 128.963 57.3101C128.596 57.5025 128.19 57.607 127.775 57.6154V57.6011Z" fill="#39AEFF"/>
<path d="M134.88 49.9319C135.099 49.9324 135.314 49.8677 135.496 49.7461C135.679 49.6245 135.821 49.4514 135.906 49.2487C135.99 49.046 136.012 48.823 135.969 48.6077C135.927 48.3924 135.821 48.1947 135.666 48.0395C135.511 47.8843 135.313 47.7787 135.098 47.736C134.882 47.6933 134.659 47.7155 134.457 47.7997C134.254 47.8839 134.081 48.0263 133.959 48.209C133.838 48.3917 133.773 48.6063 133.773 48.8258C133.773 49.1191 133.89 49.4005 134.097 49.6079C134.305 49.8154 134.586 49.9319 134.88 49.9319ZM135.782 59.1689V50.9375H133.994V59.1689H135.782Z" fill="#39AEFF"/>
<path d="M145.446 59.1699V53.3759C145.446 51.6879 144.56 50.7422 142.786 50.7422C142.238 50.7448 141.697 50.8633 141.198 51.0898C140.699 51.3164 140.254 51.6458 139.891 52.0566V50.9313H138.096V59.1627H139.887V53.4166C140.131 53.083 140.448 52.8099 140.814 52.6181C141.18 52.4264 141.585 52.3211 141.998 52.3104C143.004 52.3104 143.65 52.7366 143.65 54.0127V59.1604L145.446 59.1699Z" fill="#39AEFF"/>
<path d="M151.564 59.3737C152.876 59.3737 154.085 58.9643 154.916 58.1766L154.097 57.001C153.457 57.5807 152.625 57.9023 151.762 57.9036C150.211 57.9036 149.275 56.8813 149.129 55.6363H155.485V55.2101C155.485 52.6219 153.9 50.7305 151.429 50.7305C148.959 50.7305 147.254 52.6459 147.254 55.0401C147.254 57.6474 149.095 59.3689 151.564 59.3689V59.3737ZM153.745 54.3817H149.109C149.193 53.3761 149.892 52.2005 151.427 52.2005C151.724 52.185 152.021 52.2298 152.3 52.3322C152.58 52.4345 152.835 52.5924 153.052 52.7962C153.268 53 153.441 53.2455 153.56 53.518C153.68 53.7905 153.742 54.0843 153.745 54.3817Z" fill="#39AEFF"/>
</svg>
