<svg width="90" height="165" viewBox="0 0 90 165" fill="none" xmlns="http://www.w3.org/2000/svg">
<path d="M56.3059 1C58.8771 3.92994 59.7287 8.11948 58.9866 11.8983C58.1925 16.1426 55.8376 19.894 53.0747 23.1252C50.8265 25.6977 48.3421 28.0538 45.654 30.1625C42.5598 32.6543 39.5203 35.3378 37.5761 38.8428C36.7517 40.2586 36.2439 41.8363 36.0879 43.4672C35.9319 45.0981 36.1314 46.7434 36.6725 48.2898C38.5072 53.602 42.7788 57.5451 45.1064 62.5561C42.5324 60.2834 40.0132 57.9285 37.6583 55.4367C35.1939 52.8079 32.8663 50.0149 31.3329 46.729C30.2924 44.4288 29.8269 41.7453 30.621 39.3083C31.4151 36.8165 33.1949 34.8175 34.9748 32.9555C39.931 27.9993 46.0374 24.3574 50.8841 19.319C53.5676 16.5533 55.7856 13.24 56.5496 9.43385C57.1821 6.64082 56.8809 3.76565 56.3059 1Z" fill="#E92E2F" stroke="#E92E2F" stroke-width="0.09" stroke-miterlimit="10"/>
<path d="M52.2544 32.1894C57.5666 28.2737 63.7797 25.7819 70.0777 23.9746C65.0968 27.151 59.8941 30.0536 55.5923 34.1336C54.0342 35.6396 52.5528 37.3647 51.8683 39.4732C51.348 41.034 51.5698 42.7591 52.1996 44.2377C53.3497 46.8665 55.2911 49.0023 56.7725 51.412C57.3991 52.439 57.773 53.6 57.8634 54.7996C57.9538 55.9992 57.7583 57.2031 57.2928 58.3124C55.8388 61.5709 52.991 63.9532 50.0364 65.8426C49.653 66.0617 49.3244 66.4724 48.8562 66.5272C50.8305 64.7473 52.3639 62.2281 52.3064 59.5173C52.2544 57.4909 51.1317 55.7111 49.8146 54.2598C47.1037 51.0286 44.8337 46.9212 45.2992 42.5674C45.7647 38.2136 48.8836 34.7086 52.2544 32.1894Z" fill="#E92E2F" stroke="#E92E2F" stroke-width="0.09" stroke-miterlimit="10"/>
<path d="M71.0935 63.8347C72.2435 62.4382 74.0754 62.0822 75.7485 61.8631C78.6511 61.4798 81.7426 62.2191 83.9332 64.218C84.8491 65.0282 85.551 66.0518 85.9766 67.1982C86.4022 68.3446 86.5383 69.5783 86.373 70.7899C85.9622 73.6103 84.0701 75.9652 81.937 77.745C78.076 80.8393 73.3114 82.6465 68.5469 83.8541C68.8166 83.5445 69.1303 83.276 69.4779 83.0573C73.0896 81.1131 76.6768 78.8404 79.3356 75.664C80.9512 73.6924 82.2108 71.1185 81.6905 68.5171C81.1429 65.505 78.2129 63.3144 75.2282 63.1501C73.8016 63.0132 72.4626 63.5609 71.0935 63.8347Z" fill="#0774BB" stroke="#0774BB" stroke-width="0.09" stroke-miterlimit="10"/>
<path d="M16.0551 66.3346C21.0935 64.1713 26.57 62.7748 32.0739 62.857C28.8702 63.788 25.5842 64.5821 22.5722 66.006C21.8602 66.3893 21.0387 66.7453 20.628 67.4846C20.4089 68.0597 21.0114 68.443 21.4495 68.6347C23.3115 69.4014 25.3652 69.5109 27.3641 69.7026C34.3741 70.1681 41.4114 69.8943 48.394 69.4562C55.2917 69.0181 62.1373 68.087 68.9583 66.9917C67.43 67.6691 65.9481 68.4466 64.5223 69.3193C63.8077 69.8122 62.9341 69.9491 62.1373 70.1407C53.761 72.0028 45.1601 72.5778 36.6194 72.7147C33.3061 72.7421 30.0202 72.6873 26.7343 72.4683C23.065 72.2218 19.3684 71.948 15.7813 70.9896C14.7407 70.6884 13.6454 70.3598 12.8239 69.6205C12.7292 69.5349 12.6525 69.4313 12.5984 69.3158C12.5442 69.2002 12.5137 69.075 12.5086 68.9474C12.5035 68.8199 12.5239 68.6926 12.5687 68.5731C12.6134 68.4536 12.6816 68.3442 12.7692 68.2513C13.6728 67.3203 14.9324 66.8822 16.0551 66.3346Z" fill="#0774BB" stroke="#0774BB" stroke-width="0.09" stroke-miterlimit="10"/>
<path d="M22.518 78.0268C23.9419 76.9041 25.6396 76.2743 27.3373 75.6719C26.7897 76.3291 26.023 76.9589 25.9682 77.8625C25.9408 78.4375 26.4063 78.8756 26.8718 79.1495C27.7754 79.615 28.7886 79.7793 29.8018 79.9162C35.0592 80.4638 40.3714 80.765 45.6837 80.4091C50.5277 80.1626 55.3497 79.3685 60.1417 78.5197C61.4533 79.7519 63.0169 80.6007 64.6598 81.3401C58.8877 83.0006 52.9585 84.056 46.9679 84.4891C41.3298 84.8724 35.6069 84.845 29.9907 83.9414C27.7727 83.5307 25.4999 83.0652 23.4736 82.0246C22.6521 81.5865 21.7211 81.0115 21.4747 80.0531C21.3104 79.2316 21.9128 78.4923 22.5152 78.0268H22.518Z" fill="#0774BB" stroke="#0774BB" stroke-width="0.09" stroke-miterlimit="10"/>
<path d="M25.6935 89.9657C26.9531 88.9525 28.5139 88.4323 30.0474 87.9941C29.5545 88.4596 28.6782 89.0347 29.0616 89.8288C29.8009 90.7872 31.1701 90.8967 32.2654 91.1431C36.893 91.7182 41.5754 92.1015 46.2031 91.7456C49.7053 91.5292 53.1583 90.8967 56.5811 90.297C58.5564 91.4346 60.6045 92.4408 62.7121 93.3091C59.4837 94.7576 56.0033 95.6887 52.5285 96.3458C46.6502 97.4127 40.6356 97.4969 34.7298 96.595C32.1284 96.1268 29.4723 95.5244 27.1174 94.2374C26.2138 93.7198 25.2554 93.1147 24.8721 92.1015C24.5708 91.3074 25.0637 90.4586 25.6935 89.9657Z" fill="#0774BB" stroke="#0774BB" stroke-width="0.09" stroke-miterlimit="10"/>
<path d="M10.497 97.715C13.0162 96.8688 15.6175 96.1843 18.2737 96.0994C19.3416 96.072 20.4369 96.1268 21.3679 96.6744C18.1669 96.8504 15.0357 97.6798 12.1673 99.1115C11.5375 99.4702 10.8256 99.8809 10.5791 100.618C10.5791 101.466 11.5375 101.74 12.1673 102.014C16.1378 103.493 20.3821 103.958 24.5443 104.399C36.9486 105.437 49.4323 105.163 61.8394 104.04C66.5191 103.52 71.2316 103 75.7772 101.713C77.2257 101.22 78.8687 100.727 79.827 99.4401C80.4048 98.6733 80.0215 97.7149 79.4464 97.0578C80.3747 97.578 81.6918 98.238 81.5001 99.4948C81.1441 100.809 79.7997 101.494 78.7044 102.124C75.2021 103.903 71.3384 104.81 67.5049 105.601C56.3629 107.792 44.9443 108.285 33.6079 107.959C25.0528 107.674 16.5266 106.813 8.08732 105.382C6.58127 105.026 4.88355 104.725 3.78825 103.547C3.0763 102.726 3.7061 101.576 4.39066 100.976C6.11577 99.3853 8.33376 98.5118 10.497 97.715Z" fill="#0774BB" stroke="#0774BB" stroke-width="0.09" stroke-miterlimit="10"/>
<path d="M78.7312 107.08C81.4996 106.122 84.4569 105.109 86.5106 102.918C86.1546 105.3 84.1009 106.943 82.0746 108.011C78.1835 110.037 73.8324 110.971 69.506 111.735C60.3574 113.186 51.0747 113.542 41.7948 113.378C35.4694 113.186 29.0892 112.94 22.8734 111.626C21.3947 111.215 19.8065 110.941 18.5195 110.065C24.0508 110.996 29.6643 111.382 35.2777 111.598C44.5145 111.901 53.7609 111.489 62.9341 110.366C68.2464 109.627 73.586 108.723 78.7312 107.08Z" fill="#0774BB" stroke="#0774BB" stroke-width="0.09" stroke-miterlimit="10"/>
<path d="M6.58601 147.689C6.6134 138.707 6.55863 129.728 6.6134 120.717C8.47541 120.772 10.3374 120.717 12.1995 120.772C12.1721 130.824 12.1995 140.898 12.1721 150.975C12.1173 153.795 12.0625 156.752 10.6934 159.272C9.18736 161.955 6.50387 163.844 3.65607 164.94C2.75245 163.957 1.93097 162.913 1.02734 161.928C3.32748 160.586 5.62762 158.669 6.17528 155.903C6.69554 153.193 6.53125 150.427 6.58601 147.689Z" fill="#E92E2F" stroke="#E92E2F" stroke-width="0.09" stroke-miterlimit="10"/>
<path d="M17.3689 131.534C21.0655 129.946 25.1729 129.124 29.1982 129.562C31.2792 129.809 33.4425 130.575 34.7842 132.246C35.9069 133.67 36.3176 135.504 36.2903 137.284V155.658H32.1555C32.0186 154.754 31.8817 153.826 31.7721 152.892C30.2113 154.125 28.541 155.302 26.5968 155.795C24.3456 156.399 21.9619 156.285 19.7785 155.469C18.9417 155.116 18.1961 154.578 17.5983 153.894C17.0006 153.21 16.5663 152.4 16.3283 151.523C15.6438 148.977 15.9997 145.992 17.807 143.938C19.4226 142.052 21.8596 141.118 24.2693 140.682C26.4873 140.242 28.76 140.242 31.0328 140.242C30.978 138.516 31.3066 136.627 30.3208 135.094C29.5268 133.916 28.0755 133.451 26.7337 133.369C23.8038 133.122 20.9012 133.861 18.1356 134.82C17.8618 133.725 17.6153 132.629 17.3689 131.534ZM24.1598 144.242C22.9549 144.623 21.8322 145.499 21.5036 146.759C21.1203 148.155 21.2298 149.798 22.1334 150.976C23.0371 152.153 24.5979 152.399 25.967 152.235C27.8838 152.016 29.5541 150.921 31.0328 149.743C31.0328 147.69 31.0054 145.663 31.0328 143.61C28.7327 143.61 26.3778 143.473 24.1598 144.242Z" fill="#E92E2F" stroke="#E92E2F" stroke-width="0.09" stroke-miterlimit="10"/>
<path d="M65.508 131.532C69.232 129.944 73.3394 129.095 77.392 129.561C79.4156 129.807 81.4994 130.549 82.8384 132.135C84.1008 133.641 84.4814 135.64 84.4567 137.556C84.4294 143.608 84.4814 149.632 84.402 155.684C83.0328 155.629 81.6637 155.711 80.2946 155.629C80.1577 154.698 80.0481 153.794 79.8838 152.891C77.9671 154.534 75.6669 155.878 73.0656 156.094C70.6833 156.313 67.9998 156.015 66.135 154.315C64.1909 152.507 63.865 149.58 64.3552 147.086C64.8234 144.788 66.5458 142.896 68.6296 141.883C71.8854 140.295 75.6122 140.212 79.1719 140.24C79.1144 138.57 79.4156 136.79 78.5667 135.284C77.9096 134.079 76.513 133.531 75.2014 133.394C72.1592 133.066 69.1197 133.835 66.272 134.818C66.0282 133.723 65.7544 132.627 65.508 131.532ZM72.2167 144.265C71.0639 144.651 69.9987 145.525 69.6428 146.73C69.2567 148.126 69.3689 149.769 70.2424 150.974C71.1159 152.179 72.7644 152.398 74.1609 152.233C76.0503 151.96 77.7726 150.919 79.1993 149.659C79.1418 147.663 79.1719 145.634 79.1719 143.608C76.8444 143.608 74.4594 143.471 72.2167 144.265Z" fill="#E92E2F" stroke="#E92E2F" stroke-width="0.09" stroke-miterlimit="10"/>
<path d="M39.4121 129.891H45.1625C46.2824 133.505 47.3777 137.092 48.5031 140.707C49.1576 142.925 49.9791 145.115 50.4473 147.391C50.6937 148.401 50.9101 149.445 51.2113 150.428C53.5689 143.774 55.3762 136.901 56.3072 129.891H61.8987C60.2859 138.765 57.7393 147.498 53.9057 155.658H47.3339C44.7052 147.06 42.0491 138.492 39.4203 129.891H39.4121Z" fill="#E92E2F" stroke="#E92E2F" stroke-width="0.09" stroke-miterlimit="10"/>
<path d="M85.5486 129.394H84.875V129.15H86.5179V129.394H85.8416V131.363H85.5541L85.5486 129.394Z" fill="#E92E2F" stroke="#E92E2F" stroke-width="0.09" stroke-miterlimit="10"/>
<path d="M88.6273 130.391C88.6109 130.084 88.589 129.709 88.589 129.435C88.5096 129.693 88.422 129.983 88.3152 130.276L87.9127 131.352H87.6963L87.3349 130.298C87.2308 129.98 87.1459 129.698 87.083 129.435C87.083 129.709 87.0583 130.079 87.0391 130.415L86.9789 131.363H86.7051L86.8584 129.15H87.2226L87.6005 130.221C87.6936 130.495 87.7648 130.736 87.825 130.966C87.8853 130.744 87.9647 130.5 88.0633 130.221L88.4576 129.15H88.8218L88.9587 131.363H88.6848L88.6273 130.391Z" fill="#E92E2F" stroke="#E92E2F" stroke-width="0.09" stroke-miterlimit="10"/>
</svg>
