<svg width="168" height="66" viewBox="0 0 168 66" fill="none" xmlns="http://www.w3.org/2000/svg">
<path fill-rule="evenodd" clip-rule="evenodd" d="M114.442 37.4299L116.101 37.9439C115.989 38.4204 115.814 38.8186 115.576 39.1386C115.338 39.4601 115.04 39.7026 114.682 39.8662C114.328 40.0269 113.877 40.1073 113.329 40.1073C112.663 40.1073 112.118 40.0097 111.694 39.8146C111.275 39.6136 110.911 39.2635 110.603 38.7641C110.297 38.2647 110.145 37.6246 110.145 36.8439C110.145 35.8049 110.413 35.007 110.951 34.4502C111.492 33.8905 112.255 33.6107 113.24 33.6107C114.011 33.6107 114.618 33.7714 115.059 34.0929C115.502 34.4143 115.831 34.9051 116.046 35.5653L114.374 35.9441C114.317 35.7518 114.256 35.6126 114.191 35.5265C114.086 35.3773 113.957 35.2639 113.804 35.1864C113.651 35.106 113.48 35.0658 113.29 35.0658C112.862 35.0658 112.533 35.2424 112.304 35.5954C112.131 35.8595 112.045 36.2728 112.045 36.8353C112.045 37.5328 112.148 38.0106 112.355 38.269C112.563 38.5273 112.854 38.6564 113.227 38.6564C113.59 38.6564 113.863 38.5531 114.046 38.3465C114.234 38.1398 114.369 37.8384 114.453 37.4424L114.442 37.4299ZM116.778 36.8598C116.778 35.8352 117.057 35.0373 117.614 34.4661C118.17 33.895 118.946 33.6094 119.941 33.6094C120.96 33.6094 121.746 33.8907 122.299 34.4532C122.852 35.0129 123.128 35.7987 123.128 36.8108C123.128 37.545 123.007 38.1471 122.764 38.6173C122.526 39.0851 122.179 39.451 121.723 39.7151C121.269 39.9751 120.703 40.1052 120.026 40.1052C119.337 40.1052 118.766 39.9932 118.312 39.7693C117.864 39.5455 117.499 39.1884 117.216 38.6982C116.936 38.2103 116.796 37.5989 116.796 36.8642L116.778 36.8598ZM118.67 36.8685C118.67 37.5022 118.784 37.9577 119.013 38.235C119.242 38.5119 119.555 38.6504 119.949 38.6504C120.355 38.6504 120.67 38.5138 120.894 38.2405C121.116 37.9673 121.226 37.4804 121.226 36.7798C121.226 36.1885 121.109 35.7576 120.873 35.4869C120.641 35.2114 120.326 35.0736 119.928 35.0736C119.545 35.0736 119.238 35.2114 119.009 35.4869C118.776 35.7596 118.66 36.2174 118.66 36.8603L118.67 36.8685ZM124.131 33.7161H126.621L127.583 37.5366L128.539 33.7161H131.021V39.9949H129.476V35.2075L128.279 39.9949H126.88L125.687 35.2075V39.9949H124.133V33.7166L124.131 33.7161ZM132.216 33.7161H135.363C136.048 33.7161 136.56 33.8832 136.9 34.2173C137.243 34.5511 137.414 35.0258 137.414 35.6415C137.414 36.2749 137.228 36.7696 136.854 37.1255C136.483 37.4814 135.917 37.6593 135.154 37.6593H134.117V39.9902H132.216V33.7093L132.216 33.7161ZM134.117 36.3927H134.581C134.946 36.3927 135.202 36.3286 135.35 36.2003C135.497 36.0691 135.571 35.9022 135.571 35.6996C135.571 35.5024 135.507 35.3354 135.379 35.1984C135.251 35.0607 135.01 34.9918 134.657 34.9918H134.116V36.391L134.117 36.3927ZM138.408 33.7161H140.298V38.4494H143.251V39.9949H138.404V33.7166L138.408 33.7161ZM144.196 33.7161H146.09V39.9949H144.192V33.7166L144.196 33.7161ZM151.214 38.9587H149.055L148.757 39.9954H146.821L149.123 33.7183H151.185L153.486 39.9997H151.508L151.206 38.9664L151.214 38.9587ZM150.815 37.6012L150.135 35.3444L149.459 37.6012H150.807H150.815ZM154.108 33.7161H155.876L158.182 37.1896V33.7161H159.967V39.9949H158.182L155.889 36.5473V39.9958H154.108V33.7157V33.7161ZM160.799 33.7161H166.553V35.2669H164.621V39.9949H162.731V35.2678H160.799V33.717V33.7161Z" fill="#006A70"/>
<path fill-rule="evenodd" clip-rule="evenodd" d="M91.651 43.3014L97.1332 41.5302L95.3583 37.4768C94.0378 39.143 92.7375 41.3042 91.6497 43.2975L91.651 43.3014ZM89.7832 24.7457L79.0329 0.195312L0.332031 4.77612L22.1351 65.7603L64.1057 52.1996C61.4429 48.2663 60.4601 43.5903 63.5429 41.3051C66.9995 38.7477 72.1949 41.7055 75.5339 45.9117C78.7385 40.3923 87.7265 27.653 89.7845 24.747L89.7832 24.7457Z" fill="#006A70"/>
<path fill-rule="evenodd" clip-rule="evenodd" d="M76.5892 17.9344C79.8833 17.9344 82.5541 15.3526 82.5541 12.1675C82.5541 8.98249 79.8804 6.40234 76.5876 6.40234C73.2922 6.40234 70.6223 8.98421 70.6223 12.1697C70.6223 15.3556 73.2922 17.937 76.588 17.937L76.5892 17.9344ZM71.7088 20.4358H81.4696V46.561H71.7088V20.4367V20.4358ZM66.8893 28.0604C66.9565 28.1022 67.0153 28.0678 67.0153 27.9855V21.3675C67.0153 21.2831 66.9565 21.1823 66.8851 21.1427C66.8851 21.1427 65.6041 20.2873 61.6981 20.0492C61.4881 19.9308 58.0861 19.9131 57.1453 20.0492C42.9493 21.2159 42.4243 31.7432 42.4243 32.2245V34.7797C42.4243 35.0918 42.4243 45.8554 57.1453 46.8086C58.5817 46.9197 61.3999 46.8086 61.6981 46.8086C65.0875 46.8086 67.4353 45.7611 67.4353 45.7611C67.5067 45.7275 67.5697 45.6363 67.5697 45.5528V39.3575C67.5697 39.2731 67.5151 39.2429 67.4437 39.2864C67.4437 39.2864 66.3895 40.1561 61.7569 40.6168C60.4423 40.7674 59.8207 40.6986 59.3461 40.6168C52.7773 39.4845 52.4623 34.5506 52.4623 34.5506C52.4539 34.4688 52.4455 34.3354 52.4455 34.2536V32.3722C52.4455 32.2904 52.4539 32.1569 52.4623 32.0751C52.4623 32.0751 52.9033 26.7882 59.3419 26.2285H61.7485C64.5919 26.6203 66.8725 28.0626 66.8725 28.0626L66.8893 28.0604ZM15.3516 46.4569C15.3516 46.5404 15.4158 46.6075 15.4973 46.6075H25.0053C25.0859 46.6075 25.1514 46.5404 25.1514 46.4599V38.877C25.1514 38.7969 25.2165 38.7332 25.2984 38.7362C25.2984 38.7362 40.476 39.8612 40.476 29.417C40.476 21.1759 30.9533 20.2726 27.8184 20.4233C27.7554 20.4276 15.499 20.4233 15.499 20.4233C15.4192 20.4233 15.352 20.4944 15.352 20.5749V46.4582L15.3516 46.4569ZM24.9834 32.9426V26.1119H27.3094C27.3094 26.1119 30.6946 26.2686 30.9592 28.6283C31.0222 28.8134 31.0054 29.9672 30.9592 30.0318C30.5266 32.8079 27.5866 32.9439 27.5866 32.9439L24.991 32.9396L24.9834 32.9426Z" fill="#F0F4F5"/>
<path fill-rule="evenodd" clip-rule="evenodd" d="M76.8585 59.1744C77.6523 59.1744 78.2592 59.1745 79.2621 58.7181C82.7284 56.8505 94.3935 27.6478 106.697 18.6653C106.769 18.6076 106.871 18.5241 106.93 18.4384C107.009 18.32 107.012 18.199 107.012 18.199C107.012 18.199 107.012 17.6006 105.187 17.6006C94.2335 17.2949 82.8431 40.8318 76.8581 50.1441C76.7825 50.2475 76.3709 50.1441 76.3709 50.1441C76.3709 50.1441 72.3599 45.2921 68.8739 43.4322C68.8025 43.3935 68.4035 43.2686 67.9919 43.2988C67.7189 43.2988 66.0977 43.6303 65.3417 44.4526C64.4513 45.417 64.4681 45.9594 64.4765 47.1348C64.4807 47.2295 64.5395 47.6213 64.6487 47.8193C65.5013 49.3477 69.3947 54.8326 72.5825 57.8592C73.0781 58.2208 73.8299 59.1809 76.8623 59.1809L76.8585 59.1744Z" fill="#28B54A"/>
<path fill-rule="evenodd" clip-rule="evenodd" d="M109.932 9.81373H119.046C120.843 9.81373 122.293 10.0634 123.393 10.5628C124.504 11.0628 125.421 11.7804 126.143 12.7155C126.865 13.6483 127.389 14.7351 127.714 15.9759C128.038 17.2158 128.201 18.5289 128.201 19.9152C128.201 22.0879 127.957 23.777 127.47 24.9825C126.992 26.1765 126.324 27.1811 125.466 27.9962C124.608 28.7998 123.687 29.3351 122.703 29.602C121.358 29.9694 120.139 30.1531 119.046 30.1531H109.932V9.80684L109.932 9.81373ZM116.067 14.4225V25.543H117.567C118.85 25.543 119.762 25.3995 120.303 25.1125C120.845 24.8169 121.268 24.3089 121.574 23.5884C121.88 22.8565 122.033 21.6769 122.033 20.0495C122.033 17.894 121.689 16.4187 121.001 15.6237C120.315 14.8287 119.177 14.4311 117.587 14.4311H116.057L116.067 14.4225ZM129.869 23.4335L135.703 23.0589C135.829 24.0319 136.085 24.7724 136.472 25.2804C137.102 26.1042 138.005 26.516 139.181 26.516C140.057 26.516 140.729 26.3079 141.197 25.8918C141.673 25.467 141.911 24.9762 141.911 24.4194C141.911 23.8941 141.684 23.4234 141.23 23.0072C140.777 22.5911 139.73 22.1993 138.089 21.8319C135.398 21.2119 133.479 20.3882 132.331 19.3607C131.174 18.336 130.596 17.0272 130.596 15.4343C130.596 14.3895 130.89 13.405 131.478 12.4808C132.072 11.548 132.961 10.8176 134.145 10.2895C135.338 9.75274 136.967 9.48438 139.034 9.48438C141.568 9.48438 143.498 9.97087 144.826 10.9439C146.158 11.9082 146.952 13.4452 147.207 15.5548L141.424 15.9035C141.27 14.9879 140.943 14.3221 140.445 13.9059C139.955 13.4897 139.277 13.2816 138.412 13.2816C137.698 13.2816 137.161 13.4395 136.799 13.7552C136.435 14.0623 136.253 14.4369 136.253 14.8789C136.253 15.2032 136.402 15.4945 136.699 15.7529C136.987 16.0226 137.673 16.2738 138.757 16.5063C141.439 17.1004 143.358 17.7031 144.512 18.3145C145.677 18.9172 146.521 19.6678 147.045 20.5661C147.58 21.4645 147.847 22.4691 147.847 23.5798C147.847 24.8858 147.494 26.0898 146.789 27.192C146.083 28.2941 145.099 29.1318 143.836 29.7049C142.576 30.2646 140.985 30.5445 139.063 30.5445C135.686 30.5445 133.347 29.8786 132.046 28.5468C130.744 27.2151 130.008 25.5217 129.837 23.4666L129.869 23.4335ZM149.437 23.4335L155.271 23.0589C155.397 24.0319 155.653 24.7724 156.04 25.2804C156.67 26.1042 157.573 26.516 158.749 26.516C159.625 26.516 160.297 26.3079 160.765 25.8918C161.243 25.467 161.483 24.9762 161.483 24.4194C161.483 23.8941 161.256 23.4234 160.802 23.0072C160.349 22.5911 159.302 22.1993 157.661 21.8319C154.97 21.2119 153.051 20.3882 151.903 19.3607C150.746 18.336 150.168 17.0272 150.168 15.4343C150.168 14.3895 150.461 13.405 151.046 12.4808C151.642 11.548 152.531 10.8176 153.713 10.2895C154.903 9.75274 156.532 9.48438 158.602 9.48438C161.136 9.48438 163.066 9.97087 164.393 10.9439C165.729 11.9082 166.523 13.4452 166.775 15.5548L160.996 15.8992C160.839 14.9836 160.513 14.3178 160.017 13.9016C159.53 13.4854 158.852 13.2773 157.984 13.2773C157.27 13.2773 156.733 13.4352 156.371 13.7509C156.007 14.058 155.825 14.434 155.825 14.8789C155.825 15.2032 155.974 15.4945 156.271 15.7529C156.559 16.0226 157.245 16.2738 158.329 16.5063C161.011 17.0975 162.93 17.6988 164.087 18.3102C165.249 18.9129 166.093 19.6635 166.619 20.5618C167.151 21.4602 167.417 22.4648 167.417 23.5755C167.417 24.8815 167.066 26.0855 166.363 27.1877C165.658 28.2898 164.672 29.1279 163.406 29.7019C162.146 30.2645 160.556 30.5458 158.635 30.5458C155.258 30.5458 152.919 29.8784 151.617 28.5438C150.318 27.212 149.581 25.5186 149.408 23.4636L149.437 23.4335Z" fill="#006A70"/>
<path d="M117.169 56.8443H110.271V45.2676H112.907V54.5255H117.169V56.8443Z" fill="#15646C"/>
<path d="M125.801 56.8443H118.629V45.2676H125.733V47.3802H121.282V50.0082H125.253V52.1037H121.282V54.7316H125.801V56.8443Z" fill="#15646C"/>
<path d="M133.896 56.8443H130.986L127.152 45.2676H129.994L131.38 49.888C131.882 51.5369 132.247 53.0598 132.475 54.4568C132.658 53.2659 133.029 51.743 133.588 49.888L134.974 45.2676H137.782L133.896 56.8443Z" fill="#15646C"/>
<path d="M146.394 56.8443H139.222V45.2676H146.326V47.3802H141.876V50.0082H145.847V52.1037H141.876V54.7316H146.394V56.8443Z" fill="#15646C"/>
<path d="M155.431 56.8443H148.533V45.2676H151.169V54.5255H155.431V56.8443Z" fill="#15646C"/>
<path d="M167.439 56.6219H164.957V48.0853L162.133 49.7858V47.2265L165.282 45.3887H167.439V56.6219Z" fill="#15646C"/>
</svg>
