<svg width="41" height="41" viewBox="0 0 41 41" fill="none" xmlns="http://www.w3.org/2000/svg">
<path d="M20.5877 30.3373C20.5907 32.295 20.0129 34.2097 18.9274 35.839C17.842 37.4683 16.2976 38.739 14.4897 39.4903C12.6818 40.2416 10.6917 40.4397 8.77113 40.0596C6.8506 39.6795 5.08599 38.7383 3.70056 37.355C2.31514 35.9717 1.37118 34.2085 0.988132 32.2886C0.605081 30.3686 0.800155 28.3782 1.54867 26.5692C2.29718 24.7601 3.56549 23.2138 5.19311 22.1258C6.82074 21.0378 8.73452 20.457 10.6923 20.457H20.5877V30.3373Z" fill="white"/>
<path d="M20.5547 10.5919C20.5537 8.63456 21.1332 6.72088 22.2199 5.09292C23.3066 3.46495 24.8517 2.19585 26.6598 1.44611C28.4679 0.696375 30.4577 0.499685 32.3775 0.88093C34.2974 1.26217 36.0611 2.20423 37.4455 3.58793C38.8299 4.97163 39.7728 6.73481 40.1551 8.65447C40.5373 10.5741 40.3416 12.564 39.5928 14.3725C38.844 16.1809 37.5757 17.7267 35.9483 18.8142C34.3209 19.9018 32.4075 20.4823 30.4501 20.4823H20.5547V10.5919Z" fill="white"/>
</svg>
