<svg width="12" height="12" viewBox="0 0 12 12" fill="none" xmlns="http://www.w3.org/2000/svg">
<path fill-rule="evenodd" clip-rule="evenodd" d="M11.5303 1.53033C11.8232 1.23744 11.8232 0.762563 11.5303 0.46967C11.2374 0.176777 10.7626 0.176777 10.4697 0.46967L6 4.93935L1.53033 0.469679C1.23744 0.176785 0.762563 0.176785 0.46967 0.469679C0.176777 0.762572 0.176777 1.23745 0.46967 1.53034L4.93934 6.00001L0.570184 10.3692C0.277291 10.6621 0.27729 11.1369 0.570184 11.4298C0.863077 11.7227 1.33795 11.7227 1.63084 11.4298L6 7.06067L10.3692 11.4298C10.6621 11.7227 11.1369 11.7227 11.4298 11.4298C11.7227 11.1369 11.7227 10.6621 11.4298 10.3692L7.06066 6.00001L11.5303 1.53033Z" fill="#7B949D"/>
</svg>
