<svg width="99" height="128" viewBox="0 0 99 128" fill="none" xmlns="http://www.w3.org/2000/svg">
<circle cx="49.1289" cy="49.8457" r="49" fill="#BCCCD1"/>
<path d="M72.2818 34.2562C81.3752 29.0061 82.3726 22.6721 74.6871 18.2349C69.1724 15.051 62.7777 14.3396 54.8576 16.3381L45.3534 18.7091C39.6627 20.0978 36.6707 20.1994 34.3826 18.8784C31.9186 17.4558 32.1533 15.4913 35.2627 13.6961C38.9587 11.5622 43.0654 11.6299 46.8788 13.8316L56.3829 8.34437C48.4628 3.7717 37.3747 4.27977 28.3399 9.49601C19.4225 14.6445 18.5424 20.7075 25.7585 24.8737C31.0973 27.956 37.7267 28.5319 45.2948 26.5334L55.5616 23.9253C60.7243 22.6382 63.3057 22.6382 65.8284 24.0947C68.7031 25.7544 68.3511 27.8544 64.831 29.8867C60.6656 32.2916 55.5029 32.2239 51.0442 29.6496L41.5401 35.1368C50.7508 40.4547 62.191 40.0821 72.2818 34.2562Z" fill="#F0F4F5"/>
<path d="M31.4492 89.7892C42.935 96.4205 50.4008 93.6851 50.4008 83.4894C50.4008 76.4436 46.6679 69.232 40.5661 64.3829C46.5243 65.9164 49.5393 63.1809 49.5394 57.0469C49.5394 47.4315 42.5043 37.3187 31.9517 31.2262C20.2505 24.4705 13.2155 27.5375 13.2155 38.3134L24.7013 44.9447C24.7013 39.9712 27.3574 38.5206 31.6646 41.0074C35.3974 43.1626 37.91 47.1828 37.91 50.9958C37.91 55.6378 35.6128 56.5496 31.0185 53.8971L26.0652 51.0373L26.0652 61.3159L30.9467 64.1342C35.9717 67.0354 38.6278 71.0556 38.6278 76.112C38.6278 80.5053 35.8999 81.8316 31.6646 79.3863C26.7113 76.5265 23.8398 71.553 23.8398 65.5848L12.1387 58.8291C12.1387 71.5115 18.9584 82.5776 31.4492 89.7892Z" fill="#F0F4F5"/>
<path d="M71.6289 87.1729C88.1314 77.1911 92.6289 57.6809 91.1289 48.171C89.6289 38.6612 83.6289 31.6729 71.3783 37.1809L54.1289 45.0312L54.1289 93.6809C54.1289 93.6809 64.2194 91.6547 71.6289 87.1729ZM64.2554 48.171L69.6937 45.0312C78.32 40.0509 82.5081 45.0673 82.5081 53.0793C82.5081 61.0912 78.32 71.6926 69.6937 76.6729C69.6937 76.6729 67.1289 78.1729 64.2554 79.0639C64.2554 76.6729 64.2554 48.171 64.2554 48.171Z" fill="#F0F4F5"/>
<path d="M13.8069 117.028L15.9849 114.256V111.916H7.88491V114.616H12.4929L10.2069 117.514L11.3049 119.152H11.8989C13.0869 119.152 13.6089 119.782 13.6089 120.556C13.6089 121.33 13.0869 121.96 11.8989 121.96C10.8009 121.96 10.2609 121.456 9.97291 120.628L7.48891 122.068C8.26291 123.922 9.99091 124.768 11.8989 124.768C14.3289 124.768 16.4889 123.328 16.4889 120.556C16.4889 118.81 15.3549 117.568 13.8069 117.028ZM23.8654 111.916H18.8254V124.516H23.8654C27.3394 124.516 29.9854 121.78 29.9854 118.216C29.9854 114.652 27.3394 111.916 23.8654 111.916ZM23.8654 121.744H21.7054V114.688H23.8654C25.8454 114.688 27.2134 116.056 27.2134 118.216C27.2134 120.376 25.8454 121.744 23.8654 121.744ZM36.2777 124.768C39.0137 124.768 40.9577 123.328 40.9577 120.898C40.9577 118.234 38.8157 117.568 36.9077 116.992C34.9457 116.398 34.6397 116.002 34.6397 115.426C34.6397 114.922 35.0897 114.472 35.9897 114.472C37.1417 114.472 37.7357 115.03 38.1677 115.93L40.5977 114.508C39.6797 112.654 38.0597 111.664 35.9897 111.664C33.8117 111.664 31.7597 113.068 31.7597 115.498C31.7597 117.91 33.5957 118.81 35.4677 119.332C37.3577 119.854 38.0777 120.16 38.0777 120.934C38.0777 121.42 37.7357 121.96 36.3677 121.96C34.9457 121.96 34.1717 121.258 33.7217 120.214L31.2377 121.654C31.9397 123.508 33.6317 124.768 36.2777 124.768ZM45.7026 121.096H52.0926C52.1646 120.754 52.2006 120.394 52.2006 120.016C52.2006 117.298 50.2566 115.264 47.6286 115.264C44.7846 115.264 42.8406 117.334 42.8406 120.016C42.8406 122.698 44.7486 124.768 47.8266 124.768C49.5366 124.768 50.8686 124.138 51.7506 122.914L49.5906 121.672C49.2306 122.068 48.6006 122.356 47.8626 122.356C46.8726 122.356 46.0446 122.032 45.7026 121.096ZM45.6486 119.08C45.9006 118.162 46.5846 117.658 47.6106 117.658C48.4206 117.658 49.2306 118.036 49.5186 119.08H45.6486ZM58.6841 124.768C60.4481 124.768 61.9781 123.85 62.7521 122.446L60.3941 121.096C60.1061 121.726 59.4401 122.104 58.6481 122.104C57.4781 122.104 56.6141 121.258 56.6141 120.016C56.6141 118.774 57.4781 117.928 58.6481 117.928C59.4401 117.928 60.0881 118.306 60.3941 118.936L62.7521 117.568C61.9781 116.182 60.4301 115.264 58.6841 115.264C55.9481 115.264 53.9141 117.334 53.9141 120.016C53.9141 122.698 55.9481 124.768 58.6841 124.768ZM70.4606 115.516V120.43C70.4606 121.708 69.7766 122.284 68.7866 122.284C67.9226 122.284 67.2206 121.762 67.2206 120.646V115.516H64.5206V121.042C64.5206 123.472 66.0686 124.768 67.8866 124.768C69.0746 124.768 69.9746 124.336 70.4606 123.67V124.516H73.1606V115.516H70.4606ZM78.5608 117.118V115.516H75.8608V124.516H78.5608V120.448C78.5608 118.666 80.1448 118.216 81.2608 118.396V115.336C80.1268 115.336 78.9208 115.912 78.5608 117.118ZM85.3912 121.096H91.7812C91.8532 120.754 91.8892 120.394 91.8892 120.016C91.8892 117.298 89.9452 115.264 87.3172 115.264C84.4732 115.264 82.5292 117.334 82.5292 120.016C82.5292 122.698 84.4372 124.768 87.5152 124.768C89.2252 124.768 90.5572 124.138 91.4392 122.914L89.2792 121.672C88.9192 122.068 88.2892 122.356 87.5512 122.356C86.5612 122.356 85.7332 122.032 85.3912 121.096ZM85.3372 119.08C85.5892 118.162 86.2732 117.658 87.2992 117.658C88.1092 117.658 88.9192 118.036 89.2072 119.08H85.3372Z" fill="#BCCCD1"/>
</svg>
