<svg width="194" height="116" viewBox="0 0 194 116" fill="none" xmlns="http://www.w3.org/2000/svg">
<path fill-rule="evenodd" clip-rule="evenodd" d="M29.3441 58.0002C21.6543 58.0002 14.689 54.9647 9.56252 50.0635C4.12955 44.856 0.730469 37.532 0.730469 29.4005C0.730469 21.2689 3.93452 14.3627 9.11674 9.18297C14.2989 4.00328 21.4315 0.800781 29.3441 0.800781C35.195 0.800781 40.6279 2.55519 45.1415 5.56275C52.8591 10.6867 57.9298 19.4588 57.9298 29.4005V58.0002H29.3441ZM102.46 3.79799C99.078 6.41015 96.8783 10.5071 96.8783 15.1266V29.3972H111.149C114.641 29.3972 117.831 28.1599 120.305 26.0702C123.44 23.458 125.42 19.526 125.42 15.1266C125.42 11.1945 123.825 7.62 121.24 5.03533C118.656 2.45066 115.081 0.855858 111.149 0.855858C107.877 0.855858 104.852 1.95572 102.46 3.79799ZM92.7016 53.7616C95.2863 51.1769 96.8811 47.6024 96.8811 43.6704V29.3997H82.6103C78.6508 29.3997 75.0212 31.0495 72.4641 33.6341C69.9069 36.2188 68.3396 39.7659 68.3396 43.6704C68.3396 48.5923 70.8417 52.9367 74.6363 55.4939C76.891 57.0337 79.6407 57.9411 82.6103 57.9411C86.5423 57.9411 90.1169 56.3463 92.7016 53.7616ZM193.127 24.2005V0.800781H135.928V24.2005H193.127ZM193.127 58.0001V34.6004H135.928V58.0001H193.127Z" fill="#BCCCD1"/>
<path d="M35.87 87.9267L31.5236 75.1635H28.5469L24.2188 87.9267H27.3416L27.7799 86.3769H32.3089L32.7472 87.9267H35.87ZM30.0444 78.3908L31.6515 84.0613H28.4373L30.0444 78.3908Z" fill="#BCCCD1"/>
<path d="M40.678 88.1637C43.0155 88.1637 44.5313 87.088 44.5313 85.2647C44.5313 83.9336 43.6912 83.0949 42.3033 82.7302L40.4406 82.2197C39.7283 82.0374 39.4727 81.7821 39.4727 81.381C39.4727 80.9616 39.8744 80.6699 40.4771 80.6699C41.2258 80.6699 41.6824 80.9981 41.6824 81.618H44.44C44.44 79.8676 42.9973 78.9013 40.5136 78.9013C38.2491 78.9013 36.7516 79.9953 36.7516 81.6545C36.7516 82.9855 37.5551 83.8789 38.9613 84.2254L40.8058 84.6812C41.5546 84.8635 41.7554 85.1006 41.7554 85.5017C41.7554 86.0122 41.3354 86.3039 40.7328 86.3039C39.8744 86.3039 39.29 85.8846 39.29 85.2829H36.5142C36.5142 86.9968 38.176 88.1637 40.678 88.1637Z" fill="#BCCCD1"/>
<path d="M52.5671 80.3964C52.0923 79.503 51.0878 78.9013 49.8095 78.9013C47.2528 78.9013 45.6274 80.9069 45.6274 83.5325C45.6274 86.1763 47.1432 88.1637 49.773 88.1637C50.9965 88.1637 52.0923 87.562 52.5671 86.6868V91.5733H55.3429V79.1383H52.5671V80.3964ZM50.5765 85.8481C49.2799 85.8481 48.4763 84.8635 48.4763 83.5325C48.4763 82.2015 49.2799 81.2351 50.5765 81.2351C51.9644 81.2351 52.6766 82.2744 52.6766 83.5325C52.6766 84.8088 51.9644 85.8481 50.5765 85.8481Z" fill="#BCCCD1"/>
<path d="M60.822 88.1637C62.1551 88.1637 63.0683 87.5985 63.5613 86.6686V87.9267H66.3372V79.1383H63.5613V83.8607C63.5613 85.0459 63.05 85.8116 61.863 85.8116C60.8037 85.8116 60.402 85.1553 60.402 83.9519V79.1383H57.5713V84.5718C57.5713 86.8509 58.7036 88.1637 60.822 88.1637Z" fill="#BCCCD1"/>
<path d="M72.1548 88.1637C73.3784 88.1637 74.4741 87.562 74.9489 86.6868V87.9267H77.7248V79.1383H74.9489V80.3964C74.4741 79.503 73.4697 78.9013 72.1914 78.9013C69.6346 78.9013 68.0093 80.9069 68.0093 83.5325C68.0093 86.1763 69.5251 88.1637 72.1548 88.1637ZM72.9584 85.8481C71.6617 85.8481 70.8582 84.8635 70.8582 83.5325C70.8582 82.2015 71.6617 81.2351 72.9584 81.2351C74.3463 81.2351 75.0585 82.2744 75.0585 83.5325C75.0585 84.8088 74.3463 85.8481 72.9584 85.8481Z" fill="#BCCCD1"/>
<path d="M86.345 80.3964C85.8701 79.503 84.8657 78.9013 83.5874 78.9013C81.0307 78.9013 79.4053 80.9069 79.4053 83.5325C79.4053 86.1763 80.9211 88.1637 83.5509 88.1637C84.7744 88.1637 85.8701 87.562 86.345 86.6868V87.9267H89.1208V75.1635H86.345V80.3964ZM84.3544 85.8481C83.0578 85.8481 82.2542 84.8635 82.2542 83.5325C82.2542 82.2015 83.0578 81.2351 84.3544 81.2351C85.7423 81.2351 86.4545 82.2744 86.4545 83.5325C86.4545 84.8088 85.7423 85.8481 84.3544 85.8481Z" fill="#BCCCD1"/>
<path d="M100.173 88.2914C103.004 88.2914 104.866 86.7415 104.866 84.353C104.866 82.6391 104.063 81.4539 102.291 80.7611L100.173 79.9223C98.9128 79.4118 98.4197 78.9742 98.4197 78.2631C98.4197 77.4973 98.9858 77.005 99.9537 77.005C101.104 77.005 101.725 77.6614 101.725 78.8466H104.684C104.684 76.3851 102.821 74.7988 100.009 74.7988C97.2327 74.7988 95.4612 76.2939 95.4612 78.5366C95.4612 80.1958 96.3378 81.381 98.0545 82.0192L100.355 82.9126C101.506 83.3684 101.908 83.7695 101.908 84.5536C101.908 85.447 101.287 85.9575 100.191 85.9575C98.8945 85.9575 98.1092 85.137 98.1092 83.7513H95.1508C95.1508 86.6139 97.0318 88.2914 100.173 88.2914Z" fill="#BCCCD1"/>
<path d="M115.274 83.0767C115.274 80.597 113.411 78.9013 110.672 78.9013C107.804 78.9013 105.923 80.6517 105.923 83.5325C105.923 86.468 107.768 88.1637 110.763 88.1637C113.1 88.1637 114.872 87.015 115.146 85.2829H112.407C112.169 85.8299 111.621 86.0669 110.763 86.0669C109.521 86.0669 108.754 85.447 108.699 84.2983H115.201C115.255 83.806 115.274 83.5325 115.274 83.0767ZM108.699 82.5661C108.718 81.4904 109.448 80.7793 110.653 80.7793C111.84 80.7793 112.498 81.3992 112.516 82.5661H108.699Z" fill="#BCCCD1"/>
<path d="M121.193 88.1637C123.823 88.1637 125.539 86.7962 125.758 84.663H122.964C122.763 85.4288 122.234 85.7934 121.211 85.7934C120.006 85.7934 119.275 84.9912 119.275 83.5325C119.275 82.0739 120.006 81.2716 121.211 81.2716C122.234 81.2716 122.763 81.6545 122.964 82.475H125.758C125.539 80.287 123.823 78.9013 121.193 78.9013C118.289 78.9013 116.481 80.7611 116.481 83.5325C116.481 86.3039 118.289 88.1637 121.193 88.1637Z" fill="#BCCCD1"/>
<path d="M130.518 88.1637C131.851 88.1637 132.764 87.5985 133.257 86.6686V87.9267H136.033V79.1383H133.257V83.8607C133.257 85.0459 132.746 85.8116 131.559 85.8116C130.5 85.8116 130.098 85.1553 130.098 83.9519V79.1383H127.267V84.5718C127.267 86.8509 128.399 88.1637 130.518 88.1637Z" fill="#BCCCD1"/>
<path d="M141.139 87.9267V84.5353C141.139 82.5844 141.942 81.5998 143.458 81.5998C143.805 81.5998 143.969 81.618 144.298 81.6545V79.0654C144.079 79.0107 143.896 78.9925 143.567 78.9925C142.49 78.9925 141.449 79.6671 141.139 80.9799V79.1383H138.344V87.9267H141.139Z" fill="#BCCCD1"/>
<path d="M147.187 78.3725C148.191 78.3725 148.922 77.6067 148.922 76.6768C148.922 75.7287 148.191 74.9629 147.187 74.9629C146.183 74.9629 145.47 75.7287 145.47 76.6768C145.47 77.6067 146.183 78.3725 147.187 78.3725ZM148.575 87.9267V79.1383H145.799V87.9267H148.575Z" fill="#BCCCD1"/>
<path d="M155.52 85.757C154.826 85.757 154.296 85.5564 154.296 84.2618V81.3445H156.287V79.1383H154.296V76.531H151.502V79.1383H150.114V81.3445H151.502V84.8453C151.502 87.7808 153.31 88.0726 154.625 88.0726C155.429 88.0726 156.086 87.9996 156.488 87.9267V85.7023C156.232 85.7387 155.83 85.757 155.52 85.757Z" fill="#BCCCD1"/>
<path d="M164.04 83.496C164.04 84.8453 163.474 85.7205 162.342 85.7205C161.173 85.7205 160.79 84.9547 160.79 83.8242V79.1383H157.995V84.2436C157.995 86.4316 159 87.9267 161.246 87.9267C162.579 87.9267 163.547 87.3979 164.04 86.468V87.8355C164.04 89.203 163.365 89.8047 162.342 89.8047C161.283 89.8047 160.863 89.3671 160.808 88.6196H157.995C158.014 89.5677 158.452 90.3882 159.091 90.9352C159.822 91.5369 160.844 91.8468 162.342 91.8468C163.821 91.8468 164.789 91.5004 165.574 90.8258C166.323 90.1511 166.834 89.0754 166.834 87.6532V79.1383H164.04V83.496Z" fill="#BCCCD1"/>
<path d="M44.2247 110.076V99.9388H47.7493V97.3133H37.7782V99.9388H41.2845V110.076H44.2247Z" fill="#BCCCD1"/>
<path d="M56.4821 105.226C56.4821 102.747 54.6193 101.051 51.88 101.051C49.0128 101.051 47.1318 102.801 47.1318 105.682C47.1318 108.618 48.9763 110.314 51.9713 110.314C54.3089 110.314 56.0803 109.165 56.3542 107.433H53.6149C53.3775 107.98 52.8296 108.217 51.9713 108.217C50.7295 108.217 49.9625 107.597 49.9077 106.448H56.409C56.4638 105.956 56.4821 105.682 56.4821 105.226ZM49.9077 104.716C49.9259 103.64 50.6564 102.929 51.8617 102.929C53.0488 102.929 53.7062 103.549 53.7245 104.716H49.9077Z" fill="#BCCCD1"/>
<path d="M62.4013 110.314C65.0311 110.314 66.7477 108.946 66.9668 106.813H64.1727C63.9718 107.579 63.4422 107.943 62.4196 107.943C61.2143 107.943 60.4838 107.141 60.4838 105.682C60.4838 104.224 61.2143 103.421 62.4196 103.421C63.4422 103.421 63.9718 103.804 64.1727 104.625H66.9668C66.7477 102.437 65.0311 101.051 62.4013 101.051C59.4976 101.051 57.6897 102.911 57.6897 105.682C57.6897 108.454 59.4976 110.314 62.4013 110.314Z" fill="#BCCCD1"/>
<path d="M74.2099 101.051C72.8768 101.051 71.8724 101.58 71.361 102.564V97.3133H68.5669V110.076H71.361V105.482C71.361 104.132 71.9454 103.403 73.0594 103.403C74.1917 103.403 74.6117 104.078 74.6117 105.555V110.076H77.4241V104.643C77.4241 102.254 76.3466 101.051 74.2099 101.051Z" fill="#BCCCD1"/>
<path d="M82.4539 110.076V105.482C82.4539 104.132 83.0383 103.403 84.1523 103.403C85.2845 103.403 85.7046 104.078 85.7046 105.555V110.076H88.5169V104.643C88.5169 102.254 87.4395 101.051 85.3028 101.051C83.9696 101.051 82.9652 101.58 82.4539 102.564V101.288H79.6598V110.076H82.4539Z" fill="#BCCCD1"/>
<path d="M94.9529 110.314C97.9662 110.314 99.8289 108.363 99.8289 105.682C99.8289 103.002 97.9662 101.051 94.9529 101.051C91.9214 101.051 90.0587 103.002 90.0587 105.682C90.0587 108.363 91.9214 110.314 94.9529 110.314ZM94.9529 107.961C93.6198 107.961 92.8528 107.013 92.8528 105.682C92.8528 104.351 93.6198 103.403 94.9529 103.403C96.2678 103.403 97.0531 104.351 97.0531 105.682C97.0531 107.013 96.2678 107.961 94.9529 107.961Z" fill="#BCCCD1"/>
<path d="M104.229 110.076V97.3133H101.435V110.076H104.229Z" fill="#BCCCD1"/>
<path d="M110.736 110.314C113.749 110.314 115.612 108.363 115.612 105.682C115.612 103.002 113.749 101.051 110.736 101.051C107.705 101.051 105.842 103.002 105.842 105.682C105.842 108.363 107.705 110.314 110.736 110.314ZM110.736 107.961C109.403 107.961 108.636 107.013 108.636 105.682C108.636 104.351 109.403 103.403 110.736 103.403C112.051 103.403 112.836 104.351 112.836 105.682C112.836 107.013 112.051 107.961 110.736 107.961Z" fill="#BCCCD1"/>
<path d="M123.662 102.546C123.223 101.635 122.146 101.051 120.941 101.051C118.402 101.051 116.722 103.002 116.722 105.591C116.722 108.18 118.293 110.076 120.904 110.076C122.055 110.076 123.223 109.529 123.662 108.654V109.821C123.662 111.389 122.876 111.954 121.58 111.954C120.447 111.954 119.845 111.535 119.717 110.842H116.868C116.905 111.79 117.544 112.739 118.439 113.286C119.297 113.796 120.356 113.997 121.616 113.997C122.876 113.997 123.954 113.778 124.757 113.213C125.835 112.465 126.437 111.207 126.456 109.511V101.288H123.662V102.546ZM121.671 107.925C120.411 107.925 119.589 106.959 119.589 105.628C119.589 104.297 120.411 103.33 121.671 103.33C123.004 103.33 123.789 104.351 123.789 105.628C123.789 106.904 123.004 107.925 121.671 107.925Z" fill="#BCCCD1"/>
<path d="M130.145 100.522C131.15 100.522 131.88 99.7565 131.88 98.8266C131.88 97.8785 131.15 97.1127 130.145 97.1127C129.141 97.1127 128.428 97.8785 128.428 98.8266C128.428 99.7565 129.141 100.522 130.145 100.522ZM131.533 110.076V101.288H128.757V110.076H131.533Z" fill="#BCCCD1"/>
<path d="M142.514 105.226C142.514 102.747 140.651 101.051 137.912 101.051C135.045 101.051 133.164 102.801 133.164 105.682C133.164 108.618 135.008 110.314 138.003 110.314C140.341 110.314 142.112 109.165 142.386 107.433H139.647C139.409 107.98 138.862 108.217 138.003 108.217C136.761 108.217 135.994 107.597 135.94 106.448H142.441C142.496 105.956 142.514 105.682 142.514 105.226ZM135.94 104.716C135.958 103.64 136.688 102.929 137.894 102.929C139.081 102.929 139.738 103.549 139.756 104.716H135.94Z" fill="#BCCCD1"/>
<path d="M147.673 110.314C150.01 110.314 151.526 109.238 151.526 107.414C151.526 106.083 150.686 105.245 149.298 104.88L147.435 104.369C146.723 104.187 146.467 103.932 146.467 103.531C146.467 103.111 146.869 102.82 147.472 102.82C148.221 102.82 148.677 103.148 148.677 103.768H151.435C151.435 102.017 149.992 101.051 147.508 101.051C145.244 101.051 143.746 102.145 143.746 103.804C143.746 105.135 144.55 106.029 145.956 106.375L147.801 106.831C148.549 107.013 148.75 107.25 148.75 107.651C148.75 108.162 148.33 108.454 147.727 108.454C146.869 108.454 146.285 108.034 146.285 107.433H143.509C143.509 109.147 145.171 110.314 147.673 110.314Z" fill="#BCCCD1"/>
</svg>
