<svg width="123" height="74" viewBox="0 0 123 74" fill="none" xmlns="http://www.w3.org/2000/svg">
<path d="M35.2427 26.7709C35.2113 27.9902 35.3618 29.2073 35.6891 30.3822C36.0495 31.3866 36.4835 32.3631 36.9875 33.3037C37.168 33.5819 37.2664 33.9053 37.2715 34.2369C37.2454 34.4855 37.1623 34.7247 37.0285 34.9358C36.8948 35.147 36.7141 35.3244 36.5006 35.4542L33.9443 37.1584C33.6359 37.3807 33.2691 37.5076 32.8893 37.5236C32.4271 37.4919 31.9932 37.2894 31.672 36.9555C31.1253 36.368 30.6361 35.7294 30.2113 35.0484C29.8055 34.3587 29.3998 33.5877 28.9534 32.6545C25.7885 36.3875 21.8121 38.254 17.0241 38.254C13.6157 38.254 10.8971 37.2801 8.90888 35.3325C6.92065 33.3848 5.90625 30.788 5.90625 27.5419C5.90625 24.0929 7.12353 21.2932 9.59867 19.1832C12.0738 17.0733 15.3605 16.0183 19.5398 16.0183C20.9791 16.03 22.4161 16.1385 23.8409 16.3429C25.3422 16.5458 26.8841 16.8704 28.5071 17.2356V14.2735C28.5071 11.1897 27.8579 9.0392 26.6 7.78134C25.3422 6.52349 23.1105 5.91484 19.9861 5.91484C18.5096 5.9148 17.0383 6.09189 15.6039 6.44233C14.1123 6.7977 12.6479 7.25872 11.2217 7.82192C10.7603 8.02839 10.2859 8.2046 9.80155 8.34941C9.59152 8.41866 9.37319 8.4596 9.15233 8.47114C8.58427 8.47114 8.30024 8.06537 8.30024 7.21328V5.22505C8.25673 4.73422 8.35532 4.24123 8.58427 3.80489C8.89037 3.43512 9.27971 3.14311 9.7204 2.95279C11.3478 2.14751 13.0636 1.53474 14.833 1.12687C16.9006 0.596367 19.0284 0.337211 21.1628 0.355925C25.9914 0.355925 29.5215 1.45148 31.7938 3.64258C34.066 5.83369 35.1616 9.16093 35.1616 13.6243V26.7709H35.2427ZM18.7689 32.9385C20.1923 32.9228 21.6038 32.6762 22.9482 32.2081C24.4375 31.6932 25.7663 30.798 26.8029 29.6113C27.4569 28.8636 27.9291 27.9748 28.1825 27.0144C28.4613 25.8587 28.5976 24.6731 28.5883 23.4843V21.7801C27.3578 21.4806 26.1115 21.2503 24.8553 21.0903C23.5902 20.9297 22.3163 20.8484 21.0411 20.8468C18.3225 20.8468 16.3343 21.3743 14.9953 22.4699C13.6563 23.5654 13.0071 25.1073 13.0071 27.1361C13.0071 29.0432 13.494 30.4634 14.5084 31.4372C15.5228 32.411 16.9024 32.9385 18.7689 32.9385ZM51.3514 37.3207C50.8053 37.3769 50.2573 37.2327 49.8095 36.9149C49.3849 36.4762 49.0899 35.9285 48.9574 35.3325L39.4221 3.96719C39.2372 3.44233 39.1147 2.89759 39.0569 2.34415C39.0369 2.20985 39.0479 2.07276 39.0892 1.94339C39.1304 1.81403 39.2007 1.69584 39.2948 1.59789C39.3888 1.49994 39.504 1.42484 39.6316 1.37836C39.7592 1.33188 39.8957 1.31525 40.0307 1.32975H44.0072C44.7781 1.32975 45.3056 1.45148 45.5896 1.73551C45.8737 2.01954 46.1577 2.54703 46.4011 3.31798L53.2179 30.1793L59.5478 3.31798C59.7507 2.50645 59.9941 1.97896 60.3187 1.73551C60.8055 1.43751 61.372 1.2959 61.9418 1.32975H65.1879C65.9588 1.32975 66.4863 1.45148 66.8109 1.73551C67.2353 2.16362 67.5063 2.71994 67.5818 3.31798L73.9928 30.5039L81.0125 3.31798C81.1415 2.72913 81.4211 2.18385 81.824 1.73551C82.2955 1.4367 82.8494 1.29467 83.4065 1.32975H87.1801C87.3177 1.31095 87.4578 1.32424 87.5894 1.36857C87.7211 1.4129 87.8407 1.48708 87.9389 1.5853C88.0371 1.68352 88.1113 1.80312 88.1556 1.93477C88.2 2.06641 88.2133 2.20652 88.1945 2.34415C88.1849 2.56239 88.1578 2.7795 88.1133 2.99337C88.0497 3.33945 87.9547 3.679 87.8293 4.00777L78.0505 35.3731C77.807 36.1846 77.523 36.7121 77.1984 36.9555C76.7397 37.2491 76.2003 37.3911 75.6565 37.3613H72.1669C71.396 37.3613 70.8685 37.2396 70.5439 36.9555C70.1202 36.5107 69.85 35.9419 69.7729 35.3325L63.4837 9.16093L57.2349 35.2919C57.1399 35.896 56.8722 36.4596 56.464 36.9149C55.9851 37.2314 55.4124 37.3746 54.841 37.3207H51.3514ZM103.492 38.4163C101.387 38.4185 99.29 38.1734 97.2429 37.6859C95.2141 37.199 93.6317 36.6715 92.5767 36.0628C92.0545 35.8166 91.6168 35.4213 91.3188 34.9267C91.1609 34.5686 91.0781 34.182 91.0754 33.7906V31.7212C91.0754 30.8691 91.4 30.4634 92.0086 30.4634C92.257 30.4642 92.5037 30.5053 92.739 30.5851C92.9824 30.6662 93.3476 30.8285 93.7534 30.9908C95.1866 31.6212 96.6828 32.0973 98.2167 32.411C99.8061 32.7336 101.424 32.8967 103.045 32.8979C105.602 32.8979 107.59 32.4516 108.969 31.5589C109.63 31.16 110.174 30.5931 110.544 29.916C110.915 29.239 111.099 28.4758 111.079 27.7042C111.094 27.1818 111.004 26.6618 110.816 26.1743C110.628 25.6868 110.345 25.2414 109.984 24.8639C109.253 24.0929 107.874 23.4031 105.886 22.7539L100.002 20.928C97.04 19.9947 94.8489 18.6151 93.5099 16.7892C92.2037 15.1052 91.4905 13.0369 91.4811 10.9057C91.4483 9.33465 91.8259 7.78221 92.5767 6.40175C93.3012 5.09641 94.2975 3.96177 95.4981 3.07452C96.7629 2.11735 98.1935 1.40203 99.7181 0.964566C101.379 0.485941 103.102 0.253536 104.831 0.274771C105.739 0.268163 106.648 0.322387 107.549 0.437076C108.482 0.558804 109.335 0.721108 110.187 0.883412C111.039 1.04572 111.769 1.28917 112.5 1.53263C113.092 1.71577 113.663 1.96057 114.204 2.263C114.681 2.50392 115.098 2.8509 115.421 3.2774C115.685 3.67225 115.813 4.14226 115.786 4.61641V6.52348C115.786 7.37558 115.462 7.82192 114.853 7.82192C114.312 7.76052 113.789 7.59518 113.311 7.33501C110.859 6.25114 108.201 5.71127 105.52 5.75254C103.208 5.75254 101.382 6.11772 100.124 6.88867C98.866 7.65961 98.2167 8.83632 98.2167 10.4999C98.2056 11.0387 98.3082 11.5739 98.518 12.0703C98.7277 12.5667 99.0399 13.0133 99.434 13.3808C100.246 14.1518 101.747 14.9227 103.897 15.6125L109.659 17.4384C112.581 18.3717 114.691 19.6701 115.948 21.3337C117.187 22.966 117.844 24.9656 117.815 27.0144C117.836 28.6442 117.475 30.2562 116.76 31.7212C116.04 33.11 115.03 34.3278 113.798 35.2919C112.458 36.3344 110.929 37.1062 109.294 37.5642C107.415 38.1422 105.458 38.4296 103.492 38.4163V38.4163Z" fill="#252F3E"/>
<path d="M111.16 58.1367C97.8105 67.9966 78.4151 73.2309 61.7384 73.2309C38.3666 73.2309 17.3076 64.5882 1.40181 50.2243C0.14395 49.0882 1.28008 47.5463 2.78139 48.439C19.9856 58.4207 41.2069 64.4665 63.1586 64.4665C78.979 64.3826 94.628 61.1839 109.212 55.0529C111.444 54.0385 113.351 56.5136 111.16 58.1367ZM116.719 51.8068C115.015 49.6157 105.439 50.7518 101.097 51.2793C99.7987 51.4416 99.5958 50.3055 100.773 49.4534C108.401 44.0973 120.939 45.6392 122.4 47.4246C123.86 49.2099 121.994 61.7885 114.852 67.7938C113.757 68.727 112.702 68.2401 113.189 67.0228C114.812 63.0058 118.423 53.9573 116.719 51.8068Z" fill="#FF9900"/>
</svg>
