<svg width="99" height="98" viewBox="0 0 99 98" fill="none" xmlns="http://www.w3.org/2000/svg">
<path d="M49.7305 98C76.7924 98 98.7305 76.062 98.7305 49C98.7305 21.938 76.7924 0 49.7305 0C22.6685 0 0.730469 21.938 0.730469 49C0.730469 76.062 22.6685 98 49.7305 98Z" fill="url(#paint0_radial_4590_48414)"/>
<path d="M49.9711 9.56641L51.4425 13.91L56.0279 13.9676L52.353 16.7094L53.7161 21.0881L49.9711 18.4385L46.2279 21.0881L47.5906 16.7094L43.9141 13.9676L48.4998 13.91L49.9711 9.56641Z" fill="#F5CC00"/>
<path d="M49.9711 76.9414L51.4425 81.285L56.0279 81.3426L52.353 84.081L53.7161 88.46L49.9711 85.8135L46.2279 88.46L47.5906 84.081L43.9141 81.3426L48.4998 81.285L49.9711 76.9414Z" fill="#F5CC00"/>
<path d="M66.9786 13.4902L68.45 17.8338L73.0357 17.891L69.3574 20.6329L70.7205 25.0115L66.9786 22.3623L63.2336 25.0115L64.5967 20.6329L60.9219 17.891L65.5076 17.8338L66.9786 13.4902Z" fill="#F5CC00"/>
<path d="M78.9722 26.3535L80.4436 30.6988L85.0259 30.756L81.3511 33.4982L82.7142 37.8769L78.9722 35.2273L75.2273 37.8769L76.59 33.4982L72.9121 30.756L77.5012 30.6988L78.9722 26.3535Z" fill="#F5CC00"/>
<path d="M20.3168 26.3535L21.7896 30.6988L26.3736 30.756L22.6987 33.4982L24.0618 37.8769L20.3168 35.2273L16.5749 37.8769L17.9363 33.4982L14.2598 30.756L18.8455 30.6988L20.3168 26.3535Z" fill="#F5CC00"/>
<path d="M15.9575 42.9258L17.4288 47.2694L22.0142 47.3266L18.3377 50.0684L19.7007 54.447L15.9575 51.7975L12.2125 54.447L13.5752 50.0684L9.90039 47.3266L14.4861 47.2694L15.9575 42.9258Z" fill="#F5CC00"/>
<path d="M83.5492 42.9258L85.0237 47.2694L89.606 47.3266L85.9312 50.0684L87.2942 54.447L83.5492 51.7975L79.8073 54.447L81.1704 50.0684L77.4922 47.3266L82.0779 47.2694L83.5492 42.9258Z" fill="#F5CC00"/>
<path d="M20.3168 59.7168L21.7896 64.0573L26.3736 64.1145L22.6987 66.8564L24.0618 71.235L20.3168 68.5889L16.5749 71.235L17.9363 66.8564L14.2598 64.1145L18.8455 64.0573L20.3168 59.7168Z" fill="#F5CC00"/>
<path d="M78.9722 59.7168L80.4436 64.0573L85.0259 64.1145L81.3511 66.8564L82.7142 71.235L78.9722 68.5889L75.2273 71.235L76.59 66.8564L72.9121 64.1145L77.5012 64.0573L78.9722 59.7168Z" fill="#F5CC00"/>
<path d="M32.963 72.5801L34.4343 76.9237L39.02 76.9809L35.3435 79.7227L36.7066 84.1017L32.963 81.4518L29.2197 84.1017L30.5828 79.7227L26.9062 76.9809L31.492 76.9237L32.963 72.5801Z" fill="#F5CC00"/>
<path d="M66.5434 72.5801L68.0144 76.9237L72.6001 76.9809L68.9222 79.7227L70.2849 84.1017L66.5434 81.4518L62.7984 84.1017L64.1611 79.7227L60.4863 76.9809L65.072 76.9237L66.5434 72.5801Z" fill="#F5CC00"/>
<path d="M32.963 13.4902L34.4343 17.8338L39.02 17.891L35.3435 20.6329L36.7066 25.0115L32.963 22.3623L29.2197 25.0115L30.5828 20.6329L26.9062 17.891L31.492 17.8338L32.963 13.4902Z" fill="#F5CC00"/>
<path d="M37.8773 46.8359H33.5817V45.3376C33.5817 44.3916 33.5409 43.7994 33.4591 43.5608C33.3764 43.3224 33.1837 43.2039 32.8762 43.2039C32.6119 43.2039 32.4304 43.3061 32.3365 43.5104C32.2425 43.7147 32.1931 44.2398 32.1931 45.0805V53.0145C32.1931 53.7561 32.2411 54.2434 32.3365 54.4787C32.4318 54.714 32.6215 54.8291 32.9082 54.8291C33.2201 54.8291 33.4336 54.6987 33.545 54.431C33.6563 54.1634 33.7152 53.6509 33.7152 52.8803V50.9217H32.8472V48.409H37.8787V57.2747H35.1784L34.7817 56.0931C34.4884 56.6025 34.1189 56.9847 33.6733 57.2396C33.2276 57.4943 32.7005 57.6217 32.0954 57.6217C31.3857 57.6249 30.6874 57.4438 30.0686 57.0963C29.438 56.746 28.9592 56.313 28.6323 55.7972C28.3057 55.278 28.1014 54.7356 28.0194 54.1699C27.9381 53.5999 27.8972 52.7474 27.8965 51.6126V46.702C27.8965 45.1227 27.9815 43.9763 28.1515 43.2628C28.3216 42.5493 28.8096 41.8944 29.6157 41.2981C30.4232 40.7024 31.4661 40.4051 32.7444 40.4063C34.0039 40.4063 35.0481 40.6642 35.8771 41.1802C36.7062 41.6962 37.247 42.3108 37.4997 43.0238C37.7514 43.7341 37.8772 44.767 37.877 46.1225L37.8773 46.8359Z" fill="white"/>
<path d="M39.541 40.7539H42.7558C44.8304 40.7539 46.2337 40.8485 46.9656 41.0376C47.6967 41.2286 48.2538 41.5439 48.6341 41.977C49.0145 42.4102 49.2535 42.8964 49.3492 43.4321C49.4449 43.9677 49.4925 45.0148 49.4925 46.5815V52.3679C49.4925 53.852 49.4225 54.8435 49.2824 55.3423C49.1424 55.841 48.8993 56.2327 48.5531 56.5174C48.206 56.7977 47.7771 56.9952 47.2666 57.1099C46.7572 57.2211 45.9887 57.2763 44.961 57.2754H39.541V40.7539ZM43.8369 43.5802V54.4521C44.4564 54.4521 44.8381 54.328 44.9818 54.0796C45.1255 53.8313 45.1966 53.1561 45.1953 52.0542V45.6297C45.1953 44.8844 45.1714 44.4039 45.1234 44.1934C45.0754 43.983 44.9675 43.8271 44.7972 43.7283C44.6269 43.6296 44.3082 43.5788 43.8369 43.5788V43.5802Z" fill="white"/>
<path d="M61.873 40.7539H64.9142C66.9425 40.7539 68.3151 40.8314 69.0317 40.9865C69.7512 41.1428 70.3342 41.5439 70.7895 42.1871C71.2447 42.8304 71.4681 43.8556 71.4681 45.2633C71.4681 46.5498 71.3054 47.413 70.987 47.8553C70.6686 48.2977 70.0383 48.5656 69.0985 48.6518C69.9491 48.862 70.5213 49.1443 70.815 49.4986C71.1048 49.8521 71.2897 50.177 71.3598 50.4732C71.43 50.7694 71.4681 51.5843 71.4681 52.9188V57.2753H67.4779V51.7852C67.4779 50.8999 67.4079 50.3521 67.2678 50.1419C67.1278 49.9317 66.7615 49.8266 66.169 49.8266V57.2753H61.873V40.7539ZM66.169 43.5802V47.255C66.6529 47.255 66.9907 47.1869 67.1848 47.0575C67.3789 46.9281 67.4779 46.494 67.4779 45.7636V44.8561C67.4779 44.3337 67.3823 43.9898 67.1943 43.8243C67.0063 43.6588 66.6658 43.5788 66.169 43.5788V43.5802Z" fill="white"/>
<path d="M51.3027 40.7539H55.6307C56.8024 40.7539 57.7007 40.8431 58.331 41.0263C58.9613 41.2095 59.4329 41.4751 59.7482 41.8224C60.0635 42.1698 60.2801 42.59 60.3915 43.0823C60.5028 43.5747 60.5617 44.3402 60.5617 45.372V46.8116C60.5617 47.8672 60.4534 48.6361 60.2338 49.1203C60.0142 49.6045 59.6209 49.9737 59.0362 50.2314C58.4515 50.4892 57.6925 50.6203 56.7547 50.6203H55.597V57.2753H51.3027V40.7539ZM55.5987 43.5802V47.7869C55.723 47.793 55.8282 47.7964 55.9174 47.7964C56.3124 47.7964 56.5862 47.7007 56.7391 47.5066C56.892 47.3125 56.9682 46.908 56.9682 46.2965V44.9385C56.9682 44.3715 56.879 44.0055 56.7006 43.8366C56.5222 43.6677 56.1592 43.5788 55.5987 43.5788V43.5802Z" fill="white"/>
<defs>
<radialGradient id="paint0_radial_4590_48414" cx="0" cy="0" r="1" gradientUnits="userSpaceOnUse" gradientTransform="translate(49.1822 48.8904) scale(69.7646)">
<stop stop-color="#002C83"/>
<stop offset="1" stop-color="#001D55"/>
</radialGradient>
</defs>
</svg>
