<svg width="197" height="84" viewBox="0 0 197 84" fill="none" xmlns="http://www.w3.org/2000/svg">
<path fill-rule="evenodd" clip-rule="evenodd" d="M129.442 45.4299L131.101 45.9439C130.989 46.4204 130.814 46.8186 130.576 47.1386C130.338 47.4601 130.04 47.7026 129.682 47.8662C129.328 48.0269 128.877 48.1073 128.329 48.1073C127.663 48.1073 127.118 48.0097 126.694 47.8146C126.275 47.6136 125.911 47.2635 125.603 46.7641C125.297 46.2647 125.145 45.6246 125.145 44.8439C125.145 43.8049 125.413 43.007 125.951 42.4502C126.492 41.8905 127.255 41.6107 128.24 41.6107C129.011 41.6107 129.618 41.7714 130.059 42.0929C130.502 42.4143 130.831 42.9051 131.046 43.5653L129.374 43.9441C129.317 43.7518 129.256 43.6126 129.191 43.5265C129.086 43.3773 128.957 43.2639 128.804 43.1864C128.651 43.106 128.48 43.0658 128.29 43.0658C127.862 43.0658 127.533 43.2424 127.304 43.5954C127.131 43.8595 127.045 44.2728 127.045 44.8353C127.045 45.5328 127.148 46.0106 127.355 46.269C127.563 46.5273 127.854 46.6564 128.227 46.6564C128.59 46.6564 128.863 46.5531 129.046 46.3465C129.234 46.1398 129.369 45.8384 129.453 45.4424L129.442 45.4299ZM131.778 44.8598C131.778 43.8352 132.057 43.0373 132.614 42.4661C133.17 41.895 133.946 41.6094 134.941 41.6094C135.96 41.6094 136.746 41.8907 137.299 42.4532C137.852 43.0129 138.128 43.7987 138.128 44.8108C138.128 45.545 138.007 46.1471 137.764 46.6173C137.526 47.0851 137.179 47.451 136.723 47.7151C136.269 47.9751 135.703 48.1052 135.026 48.1052C134.337 48.1052 133.766 47.9932 133.312 47.7693C132.864 47.5455 132.499 47.1884 132.216 46.6982C131.936 46.2103 131.796 45.5989 131.796 44.8642L131.778 44.8598ZM133.67 44.8685C133.67 45.5022 133.784 45.9577 134.013 46.235C134.242 46.5119 134.555 46.6504 134.949 46.6504C135.355 46.6504 135.67 46.5138 135.894 46.2405C136.116 45.9673 136.226 45.4804 136.226 44.7798C136.226 44.1885 136.109 43.7576 135.873 43.4869C135.641 43.2114 135.326 43.0736 134.928 43.0736C134.545 43.0736 134.238 43.2114 134.009 43.4869C133.776 43.7596 133.66 44.2174 133.66 44.8603L133.67 44.8685ZM139.131 41.7161H141.621L142.583 45.5366L143.539 41.7161H146.021V47.9949H144.476V43.2075L143.279 47.9949H141.88L140.687 43.2075V47.9949H139.133V41.7166L139.131 41.7161ZM147.216 41.7161H150.363C151.048 41.7161 151.56 41.8832 151.9 42.2173C152.243 42.5511 152.414 43.0258 152.414 43.6415C152.414 44.2749 152.228 44.7696 151.854 45.1255C151.483 45.4814 150.917 45.6593 150.154 45.6593H149.117V47.9902H147.216V41.7093L147.216 41.7161ZM149.117 44.3927H149.581C149.946 44.3927 150.202 44.3286 150.35 44.2003C150.497 44.0691 150.571 43.9022 150.571 43.6996C150.571 43.5024 150.507 43.3354 150.379 43.1984C150.251 43.0607 150.01 42.9918 149.657 42.9918H149.116V44.391L149.117 44.3927ZM153.408 41.7161H155.298V46.4494H158.251V47.9949H153.404V41.7166L153.408 41.7161ZM159.196 41.7161H161.09V47.9949H159.192V41.7166L159.196 41.7161ZM166.214 46.9587H164.055L163.757 47.9954H161.821L164.123 41.7183H166.185L168.486 47.9997H166.508L166.206 46.9664L166.214 46.9587ZM165.815 45.6012L165.135 43.3444L164.459 45.6012H165.807H165.815ZM169.108 41.7161H170.876L173.182 45.1896V41.7161H174.967V47.9949H173.182L170.889 44.5473V47.9958H169.108V41.7157V41.7161ZM175.799 41.7161H181.553V43.2669H179.621V47.9949H177.731V43.2678H175.799V41.717V41.7161Z" fill="#006A70"/>
<path fill-rule="evenodd" clip-rule="evenodd" d="M106.651 51.3014L112.133 49.5302L110.358 45.4768C109.038 47.143 107.737 49.3042 106.65 51.2975L106.651 51.3014ZM104.783 32.7457L94.0329 8.19531L15.332 12.7761L37.1351 73.7603L79.1057 60.1996C76.4429 56.2663 75.4601 51.5903 78.5429 49.3051C81.9995 46.7477 87.1949 49.7055 90.5339 53.9117C93.7385 48.3923 102.726 35.653 104.784 32.747L104.783 32.7457Z" fill="#006A70"/>
<path fill-rule="evenodd" clip-rule="evenodd" d="M91.5892 25.9344C94.8833 25.9344 97.5541 23.3526 97.5541 20.1675C97.5541 16.9825 94.8804 14.4023 91.5876 14.4023C88.2922 14.4023 85.6223 16.9842 85.6223 20.1697C85.6223 23.3556 88.2922 25.937 91.588 25.937L91.5892 25.9344ZM86.7088 28.4358H96.4696V54.561H86.7088V28.4367V28.4358ZM81.8893 36.0604C81.9565 36.1022 82.0153 36.0678 82.0153 35.9855V29.3675C82.0153 29.2831 81.9565 29.1823 81.8851 29.1427C81.8851 29.1427 80.6041 28.2873 76.6981 28.0492C76.4881 27.9308 73.0861 27.9131 72.1453 28.0492C57.9493 29.2159 57.4243 39.7432 57.4243 40.2245V42.7797C57.4243 43.0918 57.4243 53.8554 72.1453 54.8086C73.5817 54.9197 76.3999 54.8086 76.6981 54.8086C80.0875 54.8086 82.4353 53.7611 82.4353 53.7611C82.5067 53.7275 82.5697 53.6363 82.5697 53.5528V47.3575C82.5697 47.2731 82.5151 47.2429 82.4437 47.2864C82.4437 47.2864 81.3895 48.1561 76.7569 48.6168C75.4423 48.7674 74.8207 48.6986 74.3461 48.6168C67.7773 47.4845 67.4623 42.5506 67.4623 42.5506C67.4539 42.4688 67.4455 42.3354 67.4455 42.2536V40.3722C67.4455 40.2904 67.4539 40.1569 67.4623 40.0751C67.4623 40.0751 67.9033 34.7882 74.3419 34.2285H76.7485C79.5919 34.6203 81.8725 36.0626 81.8725 36.0626L81.8893 36.0604ZM30.3516 54.4569C30.3516 54.5404 30.4158 54.6075 30.4973 54.6075H40.0053C40.0859 54.6075 40.1514 54.5404 40.1514 54.4599V46.877C40.1514 46.7969 40.2165 46.7332 40.2984 46.7362C40.2984 46.7362 55.476 47.8612 55.476 37.417C55.476 29.1759 45.9533 28.2726 42.8184 28.4233C42.7554 28.4276 30.499 28.4233 30.499 28.4233C30.4192 28.4233 30.352 28.4944 30.352 28.5749V54.4582L30.3516 54.4569ZM39.9834 40.9426V34.1119H42.3094C42.3094 34.1119 45.6946 34.2686 45.9592 36.6283C46.0222 36.8134 46.0054 37.9672 45.9592 38.0318C45.5266 40.8079 42.5866 40.9439 42.5866 40.9439L39.991 40.9396L39.9834 40.9426Z" fill="#F0F4F5"/>
<path fill-rule="evenodd" clip-rule="evenodd" d="M91.8585 67.1744C92.6523 67.1744 93.2592 67.1745 94.2621 66.7181C97.7284 64.8505 109.393 35.6478 121.697 26.6653C121.769 26.6076 121.871 26.5241 121.93 26.4384C122.009 26.32 122.012 26.199 122.012 26.199C122.012 26.199 122.012 25.6006 120.187 25.6006C109.233 25.2949 97.8431 48.8318 91.8581 58.1441C91.7825 58.2475 91.3709 58.1441 91.3709 58.1441C91.3709 58.1441 87.3599 53.2921 83.8739 51.4322C83.8025 51.3935 83.4035 51.2686 82.9919 51.2988C82.7189 51.2988 81.0977 51.6303 80.3417 52.4526C79.4513 53.417 79.4681 53.9594 79.4765 55.1348C79.4807 55.2295 79.5395 55.6213 79.6487 55.8193C80.5013 57.3477 84.3947 62.8326 87.5825 65.8592C88.0781 66.2208 88.8299 67.1809 91.8623 67.1809L91.8585 67.1744Z" fill="#28B54A"/>
<path fill-rule="evenodd" clip-rule="evenodd" d="M124.932 17.8137H134.046C135.843 17.8137 137.293 18.0634 138.393 18.5628C139.504 19.0628 140.421 19.7804 141.143 20.7155C141.865 21.6483 142.389 22.7351 142.714 23.9759C143.038 25.2158 143.201 26.5289 143.201 27.9152C143.201 30.0879 142.957 31.777 142.47 32.9825C141.992 34.1765 141.324 35.1811 140.466 35.9962C139.608 36.7998 138.687 37.3351 137.703 37.602C136.358 37.9694 135.139 38.1531 134.046 38.1531H124.932V17.8068L124.932 17.8137ZM131.067 22.4225V33.543H132.567C133.85 33.543 134.762 33.3995 135.303 33.1125C135.845 32.8169 136.268 32.3089 136.574 31.5884C136.88 30.8565 137.033 29.6769 137.033 28.0495C137.033 25.894 136.689 24.4187 136.001 23.6237C135.315 22.8287 134.177 22.4311 132.587 22.4311H131.057L131.067 22.4225ZM144.869 31.4335L150.703 31.0589C150.829 32.0319 151.085 32.7724 151.472 33.2804C152.102 34.1042 153.005 34.516 154.181 34.516C155.057 34.516 155.729 34.3079 156.197 33.8918C156.673 33.467 156.911 32.9762 156.911 32.4194C156.911 31.8941 156.684 31.4234 156.23 31.0072C155.777 30.5911 154.73 30.1993 153.089 29.8319C150.398 29.2119 148.479 28.3882 147.331 27.3607C146.174 26.336 145.596 25.0272 145.596 23.4343C145.596 22.3895 145.89 21.405 146.478 20.4808C147.072 19.548 147.961 18.8176 149.145 18.2895C150.338 17.7527 151.967 17.4844 154.034 17.4844C156.568 17.4844 158.498 17.9709 159.826 18.9439C161.158 19.9082 161.952 21.4452 162.207 23.5548L156.424 23.9035C156.27 22.9879 155.943 22.3221 155.445 21.9059C154.955 21.4897 154.277 21.2816 153.412 21.2816C152.698 21.2816 152.161 21.4395 151.799 21.7552C151.435 22.0623 151.253 22.4369 151.253 22.8789C151.253 23.2032 151.402 23.4945 151.699 23.7529C151.987 24.0226 152.673 24.2738 153.757 24.5063C156.439 25.1004 158.358 25.7031 159.512 26.3145C160.677 26.9172 161.521 27.6678 162.045 28.5661C162.58 29.4645 162.847 30.4691 162.847 31.5798C162.847 32.8858 162.494 34.0898 161.789 35.192C161.083 36.2941 160.099 37.1318 158.836 37.7049C157.576 38.2646 155.985 38.5445 154.063 38.5445C150.686 38.5445 148.347 37.8786 147.046 36.5468C145.744 35.2151 145.008 33.5217 144.837 31.4666L144.869 31.4335ZM164.437 31.4335L170.271 31.0589C170.397 32.0319 170.653 32.7724 171.04 33.2804C171.67 34.1042 172.573 34.516 173.749 34.516C174.625 34.516 175.297 34.3079 175.765 33.8918C176.243 33.467 176.483 32.9762 176.483 32.4194C176.483 31.8941 176.256 31.4234 175.802 31.0072C175.349 30.5911 174.302 30.1993 172.661 29.8319C169.97 29.2119 168.051 28.3882 166.903 27.3607C165.746 26.336 165.168 25.0272 165.168 23.4343C165.168 22.3895 165.461 21.405 166.046 20.4808C166.642 19.548 167.531 18.8176 168.713 18.2895C169.903 17.7527 171.532 17.4844 173.602 17.4844C176.136 17.4844 178.066 17.9709 179.393 18.9439C180.729 19.9082 181.523 21.4452 181.775 23.5548L175.996 23.8992C175.839 22.9836 175.513 22.3178 175.017 21.9016C174.53 21.4854 173.852 21.2773 172.984 21.2773C172.27 21.2773 171.733 21.4352 171.371 21.7509C171.007 22.058 170.825 22.434 170.825 22.8789C170.825 23.2032 170.974 23.4945 171.271 23.7529C171.559 24.0226 172.245 24.2738 173.329 24.5063C176.011 25.0975 177.93 25.6988 179.087 26.3102C180.249 26.9129 181.093 27.6635 181.619 28.5618C182.151 29.4602 182.417 30.4648 182.417 31.5755C182.417 32.8815 182.066 34.0855 181.363 35.1877C180.658 36.2898 179.672 37.1279 178.406 37.7019C177.146 38.2645 175.556 38.5458 173.635 38.5458C170.258 38.5458 167.919 37.8784 166.617 36.5438C165.318 35.212 164.581 33.5186 164.408 31.4636L164.437 31.4335Z" fill="#006A70"/>
<path d="M132.169 64.8443H125.271V53.2676H127.907V62.5255H132.169V64.8443Z" fill="#15646C"/>
<path d="M140.801 64.8443H133.629V53.2676H140.733V55.3802H136.282V58.0082H140.253V60.1037H136.282V62.7316H140.801V64.8443Z" fill="#15646C"/>
<path d="M148.896 64.8443H145.986L142.152 53.2676H144.994L146.38 57.888C146.882 59.5369 147.247 61.0598 147.475 62.4568C147.658 61.2659 148.029 59.743 148.588 57.888L149.974 53.2676H152.782L148.896 64.8443Z" fill="#15646C"/>
<path d="M161.394 64.8443H154.222V53.2676H161.326V55.3802H156.876V58.0082H160.847V60.1037H156.876V62.7316H161.394V64.8443Z" fill="#15646C"/>
<path d="M170.431 64.8443H163.533V53.2676H166.169V62.5255H170.431V64.8443Z" fill="#15646C"/>
<path d="M182.439 64.6219H179.957V56.0853L177.133 57.7858V55.2265L180.282 53.3887H182.439V64.6219Z" fill="#15646C"/>
</svg>
