<svg width="510" height="66" viewBox="0 0 510 66" fill="none" xmlns="http://www.w3.org/2000/svg">
<path d="M22.5858 1C23.5892 2.14339 23.9216 3.77833 23.632 5.25299C23.3221 6.9093 22.4031 8.37327 21.3249 9.63421C20.4475 10.6381 19.478 11.5576 18.429 12.3805C17.2215 13.3529 16.0354 14.4001 15.2767 15.7679C14.9549 16.3204 14.7568 16.9361 14.6959 17.5725C14.635 18.209 14.7129 18.8511 14.924 19.4546C15.64 21.5276 17.307 23.0664 18.2153 25.0219C17.2108 24.135 16.2277 23.216 15.3087 22.2436C14.347 21.2177 13.4387 20.1278 12.8403 18.8455C12.4342 17.9478 12.2526 16.9006 12.5624 15.9496C12.8723 14.9772 13.5669 14.1971 14.2615 13.4704C16.1957 11.5363 18.5786 10.1151 20.47 8.14887C21.5172 7.06959 22.3828 5.7766 22.6809 4.29126C22.9278 3.2013 22.8102 2.07928 22.5858 1Z" fill="#BCCCD1" stroke="#BCCCD1" stroke-width="0.09" stroke-miterlimit="10"/>
<path d="M21.0036 13.1706C23.0767 11.6425 25.5013 10.6701 27.9591 9.96484C26.0153 11.2044 23.985 12.3371 22.3062 13.9293C21.6982 14.517 21.1201 15.1902 20.8529 16.0131C20.6499 16.6222 20.7365 17.2954 20.9822 17.8724C21.431 18.8983 22.1887 19.7318 22.7668 20.6721C23.0113 21.0729 23.1572 21.526 23.1925 21.9941C23.2278 22.4622 23.1515 22.9321 22.9698 23.365C22.4024 24.6366 21.2911 25.5663 20.1381 26.3036C19.9885 26.3891 19.8602 26.5494 19.6775 26.5707C20.4479 25.8762 21.0464 24.893 21.0239 23.8351C21.0036 23.0444 20.5655 22.3498 20.0515 21.7835C18.9936 20.5225 18.1077 18.9196 18.2894 17.2206C18.4711 15.5215 19.6882 14.1537 21.0036 13.1706Z" fill="#BCCCD1" stroke="#BCCCD1" stroke-width="0.09" stroke-miterlimit="10"/>
<path d="M28.3532 25.5203C28.802 24.9753 29.5169 24.8364 30.1698 24.7509C31.3025 24.6013 32.5089 24.8899 33.3638 25.6699C33.7212 25.9861 33.9951 26.3856 34.1612 26.8329C34.3273 27.2803 34.3804 27.7617 34.3159 28.2345C34.1556 29.3352 33.4172 30.2542 32.5848 30.9488C31.0781 32.1563 29.2187 32.8615 27.3594 33.3328C27.4647 33.2119 27.5871 33.1072 27.7227 33.0218C29.1322 32.2631 30.532 31.3762 31.5696 30.1366C32.2001 29.3672 32.6916 28.3628 32.4886 27.3476C32.2749 26.1722 31.1315 25.3173 29.9667 25.2532C29.41 25.1997 28.8875 25.4135 28.3532 25.5203Z" fill="#BCCCD1" stroke="#BCCCD1" stroke-width="0.09" stroke-miterlimit="10"/>
<path d="M6.87649 26.4971C8.8427 25.6529 10.9799 25.108 13.1277 25.14C11.8775 25.5033 10.5952 25.8132 9.41974 26.3689C9.1419 26.5185 8.82133 26.6574 8.66104 26.9459C8.57555 27.1703 8.81064 27.3199 8.98162 27.3947C9.70826 27.6939 10.5097 27.7367 11.2898 27.8115C14.0254 27.9932 16.7716 27.8863 19.4965 27.7153C22.1883 27.5443 24.8598 27.181 27.5217 26.7536C26.9252 27.0179 26.3469 27.3213 25.7905 27.6619C25.5116 27.8542 25.1708 27.9077 24.8598 27.9825C21.591 28.7091 18.2345 28.9335 14.9016 28.9869C13.6086 28.9976 12.3263 28.9763 11.044 28.8908C9.61208 28.7946 8.16949 28.6877 6.76963 28.3137C6.36357 28.1962 5.93613 28.068 5.61556 27.7794C5.57859 27.7461 5.54866 27.7056 5.52752 27.6605C5.50639 27.6154 5.49448 27.5666 5.49249 27.5168C5.4905 27.467 5.49847 27.4173 5.51593 27.3707C5.53339 27.3241 5.56 27.2814 5.59419 27.2451C5.94682 26.8818 6.43837 26.7108 6.87649 26.4971Z" fill="#BCCCD1" stroke="#BCCCD1" stroke-width="0.09" stroke-miterlimit="10"/>
<path d="M9.39831 31.0596C9.95397 30.6215 10.6165 30.3757 11.279 30.1406C11.0653 30.3971 10.7661 30.6429 10.7447 30.9955C10.734 31.2199 10.9157 31.3909 11.0974 31.4977C11.45 31.6794 11.8454 31.7435 12.2408 31.7969C14.2924 32.0107 16.3655 32.1282 18.4386 31.9893C20.3289 31.8931 22.2107 31.5832 24.0807 31.252C24.5926 31.7328 25.2028 32.0641 25.8439 32.3526C23.5914 33.0006 21.2775 33.4125 18.9397 33.5815C16.7395 33.7311 14.5062 33.7204 12.3145 33.3678C11.4489 33.2075 10.562 33.0258 9.77124 32.6198C9.45067 32.4488 9.08735 32.2244 8.99117 31.8504C8.92706 31.5298 9.16215 31.2413 9.39724 31.0596H9.39831Z" fill="#BCCCD1" stroke="#BCCCD1" stroke-width="0.09" stroke-miterlimit="10"/>
<path d="M10.6373 35.7186C11.1288 35.3232 11.7379 35.1202 12.3363 34.9492C12.144 35.1309 11.802 35.3553 11.9516 35.6652C12.2401 36.0392 12.7744 36.0819 13.2019 36.1781C15.0078 36.4025 16.8351 36.5521 18.641 36.4132C20.0077 36.3288 21.3552 36.0819 22.691 35.8479C23.4618 36.2918 24.2611 36.6845 25.0835 37.0234C23.8237 37.5886 22.4655 37.952 21.1094 38.2084C18.8155 38.6248 16.4683 38.6576 14.1636 38.3057C13.1484 38.1229 12.1119 37.8878 11.1929 37.3856C10.8403 37.1836 10.4663 36.9475 10.3167 36.5521C10.1991 36.2422 10.3915 35.9109 10.6373 35.7186Z" fill="#BCCCD1" stroke="#BCCCD1" stroke-width="0.09" stroke-miterlimit="10"/>
<path d="M4.70919 38.742C5.69229 38.4118 6.70745 38.1447 7.74399 38.1116C8.16074 38.1009 8.58817 38.1223 8.95149 38.336C7.70231 38.4046 6.48041 38.7283 5.36103 39.287C5.11526 39.427 4.83742 39.5873 4.74125 39.8747C4.74125 40.206 5.11526 40.3129 5.36103 40.4197C6.91049 40.9968 8.5668 41.1784 10.1911 41.3505C15.0318 41.7555 19.9035 41.6486 24.7453 41.2105C26.5715 41.0075 28.4105 40.8044 30.1844 40.3022C30.7497 40.1098 31.3908 39.9175 31.7648 39.4153C31.9903 39.116 31.8407 38.742 31.6163 38.4856C31.9785 38.6886 32.4925 38.9461 32.4177 39.4366C32.2788 39.9495 31.7541 40.2167 31.3267 40.4625C29.96 41.1571 28.4522 41.5108 26.9562 41.8196C22.6081 42.6745 18.1521 42.8668 13.7281 42.7396C10.3895 42.6286 7.06222 42.2926 3.76883 41.7341C3.18111 41.5952 2.51858 41.4776 2.09115 41.0181C1.81331 40.6976 2.05909 40.2488 2.32623 40.0147C2.99945 39.3939 3.865 39.053 4.70919 38.742Z" fill="#BCCCD1" stroke="#BCCCD1" stroke-width="0.09" stroke-miterlimit="10"/>
<path d="M31.3332 42.3977C32.4135 42.0237 33.5676 41.6283 34.369 40.7734C34.2301 41.7031 33.4287 42.3443 32.6379 42.761C31.1194 43.5518 29.4215 43.9162 27.7331 44.2143C24.1629 44.7807 20.5404 44.9196 16.919 44.8555C14.4505 44.7807 11.9607 44.6845 9.535 44.1716C8.95796 44.0113 8.33817 43.9044 7.83594 43.5625C9.99449 43.9258 12.1851 44.0765 14.3757 44.1609C17.9803 44.2791 21.5887 44.1183 25.1685 43.68C27.2415 43.3915 29.3253 43.0389 31.3332 42.3977Z" fill="#BCCCD1" stroke="#BCCCD1" stroke-width="0.09" stroke-miterlimit="10"/>
<path d="M3.18096 58.2444C3.19164 54.7394 3.17027 51.2355 3.19164 47.7188C3.91828 47.7401 4.64492 47.7187 5.37156 47.7401C5.36088 51.6629 5.37156 55.5943 5.36088 59.5267C5.33951 60.6273 5.31814 61.7814 4.78384 62.7645C4.19612 63.8117 3.1489 64.549 2.03756 64.9765C1.68493 64.5929 1.36435 64.1857 1.01172 63.801C1.90933 63.2774 2.80695 62.5294 3.02067 61.4501C3.2237 60.3922 3.15958 59.313 3.18096 58.2444Z" fill="#BCCCD1" stroke="#BCCCD1" stroke-width="0.09" stroke-miterlimit="10"/>
<path d="M7.38814 51.9401C8.83073 51.3203 10.4336 50.9997 12.0044 51.1707C12.8166 51.2668 13.6608 51.566 14.1844 52.2179C14.6225 52.7736 14.7828 53.4895 14.7721 54.1841V61.3543H13.1585C13.1051 61.0017 13.0517 60.6394 13.0089 60.2751C12.3998 60.7559 11.748 61.2154 10.9893 61.4078C10.1108 61.6436 9.18053 61.5991 8.3285 61.2806C8.00192 61.1429 7.71097 60.9328 7.47769 60.666C7.24441 60.3992 7.07492 60.0828 6.98207 59.7408C6.71492 58.747 6.85384 57.5822 7.55911 56.7808C8.18958 56.0445 9.14063 55.6801 10.081 55.5102C10.9465 55.3382 11.8335 55.3382 12.7204 55.3382C12.699 54.665 12.8273 53.9276 12.4426 53.3292C12.1327 52.8697 11.5663 52.6881 11.0427 52.656C9.89932 52.5598 8.76662 52.8484 7.68734 53.2224C7.58048 52.7949 7.48431 52.3675 7.38814 51.9401ZM10.0382 56.8994C9.56806 57.0479 9.12994 57.3899 9.00171 57.8814C8.85211 58.4264 8.89485 59.0675 9.24748 59.527C9.60012 59.9865 10.2092 60.0827 10.7435 60.0186C11.4915 59.9331 12.1434 59.5057 12.7204 59.0462C12.7204 58.2447 12.7097 57.454 12.7204 56.6525C11.8228 56.6525 10.9038 56.5991 10.0382 56.8994Z" fill="#BCCCD1" stroke="#BCCCD1" stroke-width="0.09" stroke-miterlimit="10"/>
<path d="M26.1736 51.9401C27.6268 51.3203 29.2297 50.989 30.8112 51.1707C31.6009 51.2668 32.4141 51.5564 32.9367 52.1751C33.4293 52.7629 33.5778 53.5429 33.5682 54.291C33.5575 56.6525 33.5778 59.0034 33.5468 61.365C33.0125 61.3437 32.4782 61.3757 31.9439 61.3437C31.8905 60.9803 31.8478 60.6277 31.7837 60.2751C31.0356 60.9162 30.138 61.4409 29.1229 61.5253C28.1932 61.6108 27.146 61.4943 26.4183 60.8307C25.6596 60.1255 25.5324 58.9831 25.7237 58.0097C25.9064 57.1131 26.5786 56.3747 27.3917 55.9793C28.6623 55.3595 30.1167 55.3275 31.5058 55.3382C31.4834 54.6863 31.6009 53.9918 31.2697 53.404C31.0132 52.9338 30.4682 52.7201 29.9564 52.6667C28.7692 52.5385 27.583 52.8387 26.4717 53.2224C26.3766 52.7949 26.2697 52.3675 26.1736 51.9401ZM28.7916 56.909C28.3417 57.0597 27.926 57.4006 27.7871 57.8707C27.6365 58.4157 27.6803 59.0569 28.0212 59.527C28.362 59.9972 29.0053 60.0827 29.5503 60.0186C30.2876 59.9117 30.9598 59.5057 31.5165 59.0141C31.4941 58.2351 31.5058 57.4433 31.5058 56.6525C30.5975 56.6525 29.6668 56.5991 28.7916 56.909Z" fill="#BCCCD1" stroke="#BCCCD1" stroke-width="0.09" stroke-miterlimit="10"/>
<path d="M15.9922 51.2988H18.2362C18.6733 52.7094 19.1007 54.1092 19.5399 55.5198C19.7953 56.3853 20.1159 57.2402 20.2986 58.1282C20.3948 58.5225 20.4792 58.9296 20.5967 59.3133C21.5168 56.7166 22.2221 54.0344 22.5854 51.2988H24.7674C24.138 54.7621 23.1443 58.1699 21.6482 61.3543H19.0836C18.0578 57.9989 17.0212 54.6553 15.9954 51.2988H15.9922Z" fill="#BCCCD1" stroke="#BCCCD1" stroke-width="0.09" stroke-miterlimit="10"/>
<path d="M33.9972 51.1049H33.7344V51.0098H34.3755V51.1049H34.1116V51.8732H33.9994L33.9972 51.1049Z" fill="#BCCCD1" stroke="#BCCCD1" stroke-width="0.09" stroke-miterlimit="10"/>
<path d="M35.1955 51.4938C35.1891 51.3742 35.1805 51.2278 35.1805 51.1209C35.1495 51.2213 35.1153 51.3346 35.0736 51.449L34.9166 51.8689H34.8321L34.6911 51.4575C34.6505 51.3335 34.6174 51.2235 34.5928 51.1209C34.5928 51.2278 34.5832 51.372 34.5757 51.5034L34.5522 51.8732H34.4453L34.5052 51.0098H34.6473L34.7947 51.4276C34.8311 51.5344 34.8589 51.6285 34.8824 51.7182C34.9059 51.6317 34.9369 51.5366 34.9753 51.4276L35.1292 51.0098H35.2713L35.3248 51.8732H35.2179L35.1955 51.4938Z" fill="#BCCCD1" stroke="#BCCCD1" stroke-width="0.09" stroke-miterlimit="10"/>
<g clip-path="url(#clip0_4328_43297)">
<path d="M66.3218 37.2682C69.2368 37.2682 70.9008 35.6628 71.8525 34.018L69.4344 32.8484C69.1394 33.4216 68.6937 33.9035 68.1453 34.2422C67.5969 34.581 66.9664 34.7638 66.3218 34.771C63.9276 34.771 62.1798 32.9274 62.1798 30.4302C62.1798 27.933 63.924 26.0894 66.3218 26.0894C67.6902 26.0894 68.8789 26.9418 69.4344 28.012L71.8525 26.8221C70.9212 25.1772 69.2368 23.5898 66.3218 23.5898C62.3582 23.5898 59.2852 26.3648 59.2852 30.429C59.2852 34.4932 62.3582 37.2682 66.3218 37.2682Z" fill="#BCCCD1"/>
<path fill-rule="evenodd" clip-rule="evenodd" d="M79.7642 23.5898H79.8097C83.6226 23.5898 86.7183 26.6545 86.7183 30.429C86.7183 34.2035 83.6226 37.267 79.8097 37.267C75.9969 37.267 72.9023 34.2035 72.9023 30.429C72.9023 26.9573 75.5145 24.0938 78.8951 23.6497C79.1022 24.4362 79.4386 25.0443 79.2782 26.2235C79.1585 27.1058 78.9502 27.1525 78.2104 28.5854C77.9262 29.1577 77.7845 29.7902 77.7974 30.429C77.7974 31.7315 78.8951 33.1979 79.7834 33.2554C80.2982 33.2901 81.5791 32.7658 81.6832 30.429C81.7838 28.1485 80.5424 27.1968 80.4861 26.3336C80.3592 24.5667 79.957 23.9203 79.7894 23.6078C79.7842 23.6007 79.7777 23.5946 79.7702 23.5898H79.7642Z" fill="#BCCCD1"/>
<path fill-rule="evenodd" clip-rule="evenodd" d="M78.8978 23.657C78.8978 23.6666 79.7897 23.6247 79.7861 23.6151C79.676 23.3757 78.9697 21.58 78.8835 20.7899C78.7422 19.5173 79.2761 17.5696 79.2785 17.5493C79.3097 17.3242 78.7925 18.0497 78.5531 18.896C78.3136 19.7424 78.2047 20.1937 78.2251 20.7839C78.2526 21.5022 78.4836 22.4252 78.8966 23.651L78.8978 23.657Z" fill="#BCCCD1"/>
<path d="M99.4066 37.0308L96.4341 31.9957C97.8611 31.6581 99.3276 30.4095 99.3276 28.0703C99.3276 25.6127 97.6432 23.8086 94.8875 23.8086H88.7031V37.0308H91.5128V32.3321H93.5742L96.1816 37.0308H99.4066ZM94.4709 29.8553H91.5128V26.2902H94.4661C95.5962 26.2902 96.4485 26.9642 96.4485 28.0739C96.4485 29.1837 95.5962 29.8588 94.4661 29.8588L94.4709 29.8553Z" fill="#BCCCD1"/>
<path d="M110.802 37.0296V34.5528H104.261V31.5588H110.663V29.0819H104.261V26.2866H110.802V23.8086H101.445V37.0296H110.802Z" fill="#BCCCD1"/>
<path d="M122.596 37.0296V34.5528H116.214L122.457 26.0688V23.8086H112.527V26.2866H118.772L112.527 34.7503V37.0296H122.596Z" fill="#BCCCD1"/>
<path d="M130.722 37.267C134.726 37.267 137.64 34.413 137.64 30.429C137.64 26.445 134.726 23.5898 130.722 23.5898C126.738 23.5898 123.824 26.445 123.824 30.429C123.824 34.413 126.738 37.267 130.722 37.267ZM130.722 34.7698C128.285 34.7698 126.719 32.8867 126.719 30.429C126.719 27.951 128.285 26.0882 130.722 26.0882C133.159 26.0882 134.747 27.951 134.747 30.429C134.747 32.8867 133.161 34.7698 130.722 34.7698Z" fill="#BCCCD1"/>
<path d="M142.439 37.0296V23.8086H139.625V37.0296H142.439Z" fill="#BCCCD1"/>
<path d="M150.268 37.0308C154.411 37.0308 157.286 34.4139 157.286 30.4299C157.286 26.4459 154.413 23.8086 150.268 23.8086H145.055V37.0308H150.268ZM150.268 34.5528H147.874V26.2902H150.268C152.983 26.2902 154.411 28.0943 154.411 30.4335C154.411 32.6733 152.885 34.5564 150.268 34.5564V34.5528Z" fill="#BCCCD1"/>
<path d="M81.5741 47.1864C82.6395 47.1864 83.3973 46.3771 83.3973 45.022C83.3973 43.6669 82.6395 42.8672 81.5741 42.8672C81.3182 42.867 81.0659 42.9267 80.8373 43.0414C80.6086 43.1561 80.41 43.3228 80.2572 43.528V42.9653H79.3594V48.6517H80.2572V46.5136C80.4073 46.7225 80.6051 46.8924 80.8342 47.0095C81.0632 47.1265 81.3169 47.1871 81.5741 47.1864ZM81.3107 46.3939C81.1041 46.388 80.9015 46.3352 80.7183 46.2394C80.5352 46.1435 80.3763 46.0072 80.2536 45.8408V44.2128C80.375 44.045 80.5336 43.9078 80.7171 43.8118C80.9005 43.7158 81.1037 43.6638 81.3107 43.6597C82.017 43.6597 82.4695 44.2295 82.4695 45.022C82.4695 45.8145 82.017 46.3939 81.3107 46.3939Z" fill="#BCCCD1"/>
<path d="M85.1806 47.086V44.2824C85.359 43.9927 85.8618 43.7377 86.2365 43.7377C86.3309 43.7361 86.4252 43.7445 86.5178 43.7628V42.877C86.2571 42.8867 86.0018 42.9544 85.7705 43.0752C85.5392 43.1959 85.3377 43.3666 85.1806 43.5749V42.9703H84.2852V47.086H85.1806Z" fill="#BCCCD1"/>
<path d="M89.0973 47.1864C90.4141 47.1864 91.2186 46.2072 91.2186 45.022C91.2186 43.8369 90.4177 42.8672 89.0973 42.8672C87.7769 42.8672 86.9844 43.8464 86.9844 45.022C86.9844 46.1976 87.7936 47.1864 89.0973 47.1864ZM89.0973 46.3939C88.3383 46.3939 87.9121 45.7546 87.9121 45.022C87.9121 44.2894 88.3383 43.6597 89.0973 43.6597C89.8563 43.6597 90.2944 44.2977 90.2944 45.022C90.2944 45.7463 89.8682 46.3939 89.0973 46.3939Z" fill="#BCCCD1"/>
<path d="M93.9993 47.1885C94.8001 47.1885 95.285 46.8473 95.5747 46.4558L94.9845 45.91C94.8797 46.0633 94.7384 46.188 94.5733 46.2729C94.4081 46.3578 94.2244 46.4001 94.0388 46.396C93.2894 46.396 92.795 45.825 92.795 45.0241C92.795 44.2232 93.2894 43.6618 94.0388 43.6618C94.224 43.6552 94.4079 43.6957 94.5733 43.7795C94.7386 43.8632 94.8801 43.9874 94.9845 44.1406L95.5723 43.5959C95.2826 43.2033 94.7977 42.8633 93.9969 42.8633C92.7447 42.8633 91.8672 43.7743 91.8672 45.0181C91.8672 46.2619 92.7447 47.1825 93.9969 47.1825L93.9993 47.1885Z" fill="#BCCCD1"/>
<path d="M98.2573 47.1888C98.9133 47.1888 99.519 46.9841 99.9273 46.5902L99.519 46.0025C99.1993 46.2923 98.7834 46.4531 98.3518 46.4538C97.5761 46.4538 97.1068 45.9426 97.035 45.3201H100.212V45.107C100.212 43.8129 99.4197 42.8672 98.1842 42.8672C96.9668 42.8672 96.0977 43.8249 96.0977 45.022C96.0977 46.3257 97.017 47.1864 98.2525 47.1864L98.2573 47.1888ZM99.3478 44.6928H97.0302C97.0733 44.19 97.4229 43.6022 98.189 43.6022C98.3376 43.5943 98.4862 43.6166 98.6258 43.6677C98.7655 43.7188 98.8934 43.7977 99.0017 43.8997C99.11 44.0016 99.1965 44.1244 99.256 44.2608C99.3155 44.3971 99.3468 44.5441 99.3478 44.6928Z" fill="#BCCCD1"/>
<path d="M102.511 47.1871C103.618 47.1871 104.223 46.6328 104.223 45.9086C104.223 44.2733 101.735 44.818 101.735 44.0853C101.735 43.7956 102.033 43.5837 102.501 43.5837C102.728 43.578 102.953 43.6187 103.164 43.7036C103.374 43.7884 103.565 43.9155 103.724 44.077L104.098 43.4473C103.656 43.0605 103.084 42.8538 102.497 42.8679C101.457 42.8679 100.878 43.4473 100.878 44.1201C100.878 45.6967 103.366 45.1173 103.366 45.9265C103.366 46.2497 103.094 46.4796 102.556 46.4796C102.035 46.4643 101.538 46.2581 101.159 45.9002L100.75 46.5478C101.176 46.9656 101.815 47.1871 102.515 47.1871H102.511Z" fill="#BCCCD1"/>
<path d="M106.529 47.187C107.636 47.187 108.241 46.6328 108.241 45.9085C108.241 44.2732 105.753 44.8179 105.753 44.0853C105.753 43.7956 106.051 43.5837 106.521 43.5837C106.746 43.5785 106.971 43.6196 107.18 43.7044C107.39 43.7892 107.58 43.916 107.738 44.0769L108.114 43.4472C107.671 43.0609 107.1 42.8542 106.512 42.8678C105.472 42.8678 104.893 43.4472 104.893 44.12C104.893 45.6966 107.381 45.1172 107.381 45.9265C107.381 46.2497 107.108 46.4795 106.571 46.4795C106.05 46.4643 105.553 46.2581 105.174 45.9001L104.766 46.5478C105.191 46.9656 105.83 47.187 106.529 47.187Z" fill="#BCCCD1"/>
<path d="M113.235 47.1864C113.891 47.1864 114.496 46.9817 114.905 46.5878L114.496 46.0025C114.176 46.2924 113.76 46.4532 113.328 46.4538C112.553 46.4538 112.085 45.9426 112.012 45.3201H115.19V45.107C115.19 43.8129 114.397 42.8672 113.162 42.8672C111.927 42.8672 111.074 43.8249 111.074 45.022C111.074 46.3257 111.995 47.1864 113.229 47.1864H113.235ZM114.326 44.6904H112.008C112.051 44.1876 112.399 43.5998 113.167 43.5998C113.315 43.5919 113.464 43.6142 113.604 43.6653C113.743 43.7164 113.871 43.7953 113.979 43.8973C114.088 43.9992 114.174 44.122 114.234 44.2584C114.293 44.3947 114.325 44.5417 114.326 44.6904Z" fill="#BCCCD1"/>
<path d="M119.754 47.085V44.1879C119.754 43.344 119.311 42.8711 118.425 42.8711C118.15 42.8733 117.879 42.9336 117.629 43.0482C117.38 43.1627 117.157 43.3288 116.976 43.5355V42.9728H116.082V47.0885H116.976V44.2155C117.099 44.0487 117.257 43.9121 117.441 43.8162C117.624 43.7204 117.827 43.6677 118.033 43.6624C118.536 43.6624 118.859 43.8755 118.859 44.5135V47.0874L119.754 47.085Z" fill="#BCCCD1"/>
<path d="M122.582 48.7546C123.596 48.7546 124.694 48.3536 124.694 46.8716V42.9689H123.8V43.54C123.649 43.3325 123.451 43.1635 123.222 43.0466C122.993 42.9297 122.74 42.8683 122.483 42.8672C121.426 42.8672 120.66 43.6501 120.66 44.9801C120.66 46.3341 121.435 47.093 122.483 47.093C122.741 47.088 122.993 47.0238 123.221 46.9054C123.45 46.7871 123.648 46.6178 123.8 46.4107V46.9051C123.8 47.7491 123.169 48.0208 122.582 48.0208C122.037 48.0208 121.611 47.876 121.278 47.4929L120.861 48.1405C121.363 48.6002 121.884 48.7546 122.582 48.7546ZM122.743 46.3005C122.037 46.3005 121.584 45.7726 121.584 44.9837C121.584 44.1948 122.037 43.6669 122.743 43.6669C122.95 43.6709 123.153 43.723 123.337 43.819C123.52 43.915 123.679 44.0522 123.8 44.2199V45.7535C123.679 45.9214 123.52 46.0589 123.337 46.1551C123.154 46.2513 122.95 46.3035 122.743 46.3077V46.3005Z" fill="#BCCCD1"/>
<path d="M126.295 42.4679C126.405 42.4681 126.512 42.4358 126.604 42.375C126.695 42.3142 126.766 42.2276 126.808 42.1263C126.85 42.025 126.861 41.9134 126.84 41.8058C126.819 41.6982 126.766 41.5993 126.688 41.5217C126.611 41.4441 126.512 41.3913 126.404 41.37C126.297 41.3486 126.185 41.3597 126.084 41.4018C125.982 41.4439 125.896 41.5151 125.835 41.6065C125.774 41.6978 125.742 41.8051 125.742 41.9148C125.742 42.0615 125.8 42.2022 125.904 42.3059C126.008 42.4096 126.149 42.4679 126.295 42.4679ZM126.747 47.0864V42.9707H125.852V47.0864H126.747Z" fill="#BCCCD1"/>
<path d="M131.581 47.085V44.1879C131.581 43.344 131.138 42.8711 130.251 42.8711C129.977 42.8724 129.707 42.9317 129.457 43.0449C129.208 43.1582 128.985 43.3229 128.804 43.5283V42.9657H127.906V47.0814H128.802V44.2083C128.924 44.0415 129.082 43.9049 129.265 43.8091C129.448 43.7132 129.651 43.6605 129.858 43.6552C130.36 43.6552 130.684 43.8683 130.684 44.5064V47.0802L131.581 47.085Z" fill="#BCCCD1"/>
<path d="M134.639 47.1888C135.295 47.1888 135.9 46.9841 136.315 46.5902L135.906 46.0025C135.586 46.2923 135.17 46.4531 134.739 46.4538C133.963 46.4538 133.495 45.9426 133.422 45.3201H136.6V45.107C136.6 43.8129 135.808 42.8672 134.572 42.8672C133.337 42.8672 132.484 43.8249 132.484 45.022C132.484 46.3257 133.405 47.1864 134.639 47.1864V47.1888ZM135.73 44.6928H133.412C133.454 44.19 133.804 43.6022 134.571 43.6022C134.719 43.5945 134.868 43.6168 135.008 43.668C135.147 43.7192 135.275 43.7981 135.383 43.9C135.492 44.0019 135.578 44.1247 135.638 44.261C135.697 44.3972 135.729 44.5441 135.73 44.6928Z" fill="#BCCCD1"/>
</g>
<path d="M221.528 33.8102H223.672L222.595 30.6926L221.528 33.8102ZM224.509 36.3724L223.944 34.6772H221.246L220.701 36.3724H219.512L221.981 29.6211H223.267L225.698 36.3724H224.509Z" fill="#BCCCD1"/>
<path d="M232.555 36.3744V33.0135C232.555 32.7148 232.497 32.5003 232.38 32.3702C232.263 32.2405 232.071 32.1756 231.805 32.1756C231.603 32.1756 231.389 32.2095 231.162 32.2776C230.934 32.3459 230.737 32.4321 230.568 32.5358V36.3744H229.418V33.0135C229.418 32.7148 229.36 32.5003 229.243 32.3702C229.126 32.2405 228.934 32.1756 228.668 32.1756C228.48 32.1756 228.277 32.2063 228.059 32.2682C227.841 32.3296 227.632 32.4192 227.431 32.5358V36.3744H226.281V31.4157H227.236L227.343 31.9124C227.668 31.6916 227.974 31.5293 228.263 31.4253C228.552 31.3215 228.843 31.2695 229.136 31.2695C229.739 31.2695 230.155 31.4933 230.383 31.9415C231.032 31.4933 231.656 31.2695 232.253 31.2695C232.714 31.2695 233.071 31.3944 233.325 31.6443C233.578 31.8945 233.704 32.2567 233.704 32.7308V36.3744H232.555Z" fill="#BCCCD1"/>
<path d="M236.455 35.702C236.639 35.702 236.832 35.6618 237.035 35.5804C237.237 35.499 237.433 35.384 237.623 35.2346V34.2993C237.288 34.228 236.99 34.1921 236.731 34.1921C236.072 34.1921 235.743 34.4551 235.743 34.9812C235.743 35.2086 235.806 35.3855 235.933 35.512C236.06 35.639 236.234 35.702 236.455 35.702ZM237.769 36.3744L237.682 35.8972C237.454 36.0916 237.203 36.2447 236.927 36.355C236.651 36.4654 236.376 36.5205 236.103 36.5205C235.649 36.5205 235.28 36.3843 234.998 36.1114C234.715 35.8382 234.574 35.4846 234.574 35.0494C234.574 34.569 234.748 34.1859 235.095 33.8998C235.443 33.614 235.908 33.471 236.493 33.471C236.837 33.471 237.214 33.5199 237.623 33.6172V33.0427C237.623 32.7111 237.552 32.4811 237.409 32.3509C237.266 32.221 237.016 32.156 236.659 32.156C236.152 32.156 235.571 32.2631 234.915 32.4774V31.6688C235.16 31.5454 235.459 31.448 235.813 31.3767C236.166 31.3055 236.522 31.2695 236.879 31.2695C237.527 31.2695 238.004 31.3997 238.312 31.6592C238.619 31.919 238.773 32.3251 238.773 32.877V36.3744H237.769Z" fill="#BCCCD1"/>
<path d="M239.512 36.3727V35.525L242.279 32.2906H239.61V31.4141H243.516V32.2615L240.749 35.496H243.545V36.3727H239.512Z" fill="#BCCCD1"/>
<path d="M246.428 35.6144C247.246 35.6144 247.655 35.0395 247.655 33.8899C247.655 32.747 247.246 32.1756 246.428 32.1756C245.609 32.1756 245.2 32.747 245.2 33.8899C245.2 35.0395 245.609 35.6144 246.428 35.6144ZM246.428 36.5205C245.674 36.5205 245.087 36.2885 244.664 35.8239C244.242 35.3595 244.031 34.7152 244.031 33.8899C244.031 33.0655 244.242 32.4222 244.664 31.9612C245.087 31.5 245.674 31.2695 246.428 31.2695C247.181 31.2695 247.769 31.5 248.191 31.9612C248.613 32.4222 248.824 33.0655 248.824 33.8899C248.824 34.7152 248.613 35.3595 248.191 35.8239C247.769 36.2885 247.181 36.5205 246.428 36.5205Z" fill="#BCCCD1"/>
<path d="M253.064 36.3744V33.0912C253.064 32.773 253 32.5408 252.869 32.3947C252.739 32.2485 252.532 32.1756 252.246 32.1756C251.817 32.1756 251.379 32.3182 250.931 32.6041V36.3744H249.781V31.4157H250.736L250.853 31.9612C251.463 31.5 252.1 31.2695 252.762 31.2695C253.236 31.2695 253.597 31.3944 253.844 31.6443C254.09 31.8945 254.214 32.2567 254.214 32.7308V36.3744H253.064Z" fill="#BCCCD1"/>
<path d="M256.523 36.3724V29.6211H260.508V30.1373H257.098V32.6216H260.021V33.138H257.098V35.856H260.508V36.3724H256.523Z" fill="#BCCCD1"/>
<path d="M261.656 36.3724V29.6211H262.231V32.7483L265.329 29.6211H266.07L262.796 32.9137L266.343 36.3724H265.553L262.231 33.138V36.3724H261.656Z" fill="#BCCCD1"/>
<path d="M268.202 32.9641C267.702 32.7696 267.334 32.5373 267.101 32.2678C266.867 31.9982 266.75 31.6653 266.75 31.2692C266.75 30.73 266.943 30.2934 267.329 29.9588C267.716 29.6243 268.224 29.457 268.854 29.457C269.14 29.457 269.44 29.491 269.755 29.5593C270.07 29.6273 270.367 29.7236 270.647 29.8468V30.3435C269.984 30.1098 269.396 29.9927 268.884 29.9927C268.383 29.9927 268 30.1019 267.734 30.3194C267.467 30.5369 267.334 30.8471 267.334 31.2495C267.334 31.4769 267.375 31.6605 267.456 31.8C267.537 31.94 267.671 32.0665 267.856 32.1798C268.041 32.2938 268.305 32.4156 268.65 32.5453L269.692 32.9449C270.16 33.1265 270.501 33.3488 270.715 33.6121C270.929 33.8751 271.036 34.2048 271.036 34.6009C271.036 35.1789 270.824 35.6468 270.398 36.0037C269.973 36.361 269.413 36.5394 268.718 36.5394C267.997 36.5394 267.354 36.4031 266.789 36.1305V35.6335C267.471 35.8805 268.098 36.0037 268.669 36.0037C269.208 36.0037 269.638 35.8771 269.96 35.624C270.282 35.3705 270.442 35.0263 270.442 34.591C270.442 34.3251 270.355 34.0975 270.179 33.9092C270.004 33.7209 269.721 33.5522 269.331 33.4024L268.202 32.9641Z" fill="#BCCCD1"/>
<path d="M198.582 28.0442H199.88V31.8732L203.618 28.0442H205.332L201.23 32.263L205.592 37.1309H203.93L199.88 32.5877V37.1309H198.582V28.0442Z" fill="#BCCCD1"/>
<path d="M202.649 24.4364L209.043 28.1276C209.152 28.1908 209.219 28.3072 209.219 28.433V35.8155C209.219 35.9414 209.287 36.0579 209.396 36.1209L215.101 39.4151C215.336 39.551 215.63 39.381 215.63 39.1097V24.7313C215.63 24.6054 215.563 24.4891 215.454 24.426L203.002 17.237C202.767 17.1013 202.473 17.271 202.473 17.5424V24.1311C202.473 24.2568 202.54 24.3733 202.649 24.4364Z" fill="#BCCCD1"/>
<path d="M208.15 37.6673L201.757 41.3585C201.648 41.4217 201.513 41.4217 201.404 41.3585L194.118 37.1522C194.009 37.089 193.942 36.9725 193.942 36.8468V28.434C193.942 28.3082 194.009 28.1919 194.118 28.1287L200.512 24.4373C200.621 24.3743 200.688 24.2579 200.688 24.1321V17.5438C200.688 17.2724 200.394 17.1027 200.159 17.2383L187.707 24.4273C187.598 24.4905 187.531 24.6068 187.531 24.7327V40.5482C187.531 40.6739 187.598 40.7904 187.707 40.8535L201.404 48.7612C201.513 48.8244 201.648 48.8244 201.757 48.7612L214.208 41.5724C214.443 41.4366 214.443 41.0972 214.208 40.9615L208.503 37.6673C208.393 37.6041 208.259 37.6041 208.15 37.6673Z" fill="#BCCCD1"/>
<path d="M316.266 28.5443C316.252 29.0755 316.317 29.6058 316.46 30.1177C316.617 30.5553 316.806 30.9807 317.026 31.3905C317.104 31.5117 317.147 31.6526 317.149 31.7971C317.138 31.9054 317.102 32.0096 317.044 32.1016C316.985 32.1936 316.907 32.2709 316.814 32.3274L315.7 33.0699C315.566 33.1668 315.406 33.2221 315.24 33.229C315.039 33.2152 314.85 33.127 314.71 32.9815C314.472 32.7255 314.259 32.4473 314.074 32.1507C313.897 31.8501 313.72 31.5142 313.525 31.1077C312.147 32.734 310.414 33.5472 308.328 33.5472C306.843 33.5472 305.659 33.1229 304.793 32.2744C303.926 31.4259 303.484 30.2945 303.484 28.8802C303.484 27.3776 304.015 26.1578 305.093 25.2385C306.171 24.3193 307.603 23.8597 309.424 23.8597C310.051 23.8648 310.677 23.912 311.298 24.0011C311.952 24.0895 312.624 24.2309 313.331 24.39V23.0995C313.331 21.756 313.048 20.819 312.5 20.271C311.952 19.723 310.98 19.4578 309.619 19.4578C308.975 19.4578 308.334 19.535 307.709 19.6876C307.06 19.8425 306.422 20.0433 305.8 20.2887C305.599 20.3787 305.392 20.4554 305.181 20.5185C305.09 20.5487 304.995 20.5665 304.899 20.5715C304.651 20.5715 304.527 20.3948 304.527 20.0235V19.1573C304.508 18.9435 304.551 18.7287 304.651 18.5386C304.784 18.3775 304.954 18.2502 305.146 18.1673C305.855 17.8165 306.603 17.5495 307.374 17.3718C308.274 17.1407 309.201 17.0278 310.131 17.0359C312.235 17.0359 313.773 17.5132 314.763 18.4679C315.753 19.4225 316.23 20.8721 316.23 22.8167V28.5443H316.266ZM309.088 31.2314C309.708 31.2246 310.323 31.1171 310.909 30.9132C311.558 30.6889 312.137 30.2988 312.589 29.7818C312.873 29.4561 313.079 29.0688 313.19 28.6504C313.311 28.1469 313.37 27.6304 313.366 27.1124V26.3699C312.83 26.2395 312.287 26.1391 311.74 26.0694C311.189 25.9994 310.634 25.964 310.078 25.9633C308.894 25.9633 308.028 26.1932 307.444 26.6705C306.861 27.1478 306.578 27.8195 306.578 28.7034C306.578 29.5343 306.79 30.153 307.232 30.5773C307.674 31.0016 308.275 31.2314 309.088 31.2314ZM323.284 33.1406C323.046 33.1651 322.807 33.1023 322.612 32.9638C322.427 32.7727 322.298 32.5341 322.241 32.2744L318.086 18.6093C318.006 18.3806 317.953 18.1433 317.927 17.9022C317.919 17.8437 317.923 17.7839 317.941 17.7276C317.959 17.6712 317.99 17.6197 318.031 17.577C318.072 17.5344 318.122 17.5016 318.178 17.4814C318.233 17.4611 318.293 17.4539 318.352 17.4602H320.084C320.42 17.4602 320.65 17.5132 320.773 17.637C320.897 17.7607 321.021 17.9906 321.127 18.3264L324.097 30.0293L326.855 18.3264C326.943 17.9729 327.049 17.7431 327.191 17.637C327.403 17.5072 327.649 17.4455 327.898 17.4602H329.312C329.648 17.4602 329.878 17.5132 330.019 17.637C330.204 17.8235 330.322 18.0659 330.355 18.3264L333.148 30.1707L336.206 18.3264C336.263 18.0699 336.384 17.8323 336.56 17.637C336.765 17.5068 337.007 17.4449 337.249 17.4602H338.893C338.953 17.452 339.014 17.4578 339.072 17.4771C339.129 17.4964 339.181 17.5288 339.224 17.5715C339.267 17.6143 339.299 17.6664 339.319 17.7238C339.338 17.7812 339.344 17.8422 339.335 17.9022C339.331 17.9972 339.319 18.0918 339.3 18.185C339.272 18.3358 339.231 18.4837 339.176 18.627L334.916 32.2921C334.81 32.6456 334.686 32.8755 334.545 32.9815C334.345 33.1094 334.11 33.1713 333.873 33.1583H332.353C332.017 33.1583 331.787 33.1053 331.645 32.9815C331.461 32.7877 331.343 32.5399 331.31 32.2744L328.569 20.8721L325.847 32.2567C325.806 32.5199 325.689 32.7655 325.511 32.9638C325.303 33.1017 325.053 33.1641 324.804 33.1406H323.284ZM346 33.6179C345.083 33.6189 344.169 33.5121 343.278 33.2997C342.394 33.0876 341.704 32.8578 341.245 32.5926C341.017 32.4853 340.826 32.3131 340.697 32.0976C340.628 31.9416 340.592 31.7731 340.591 31.6026V30.7011C340.591 30.3298 340.732 30.153 340.997 30.153C341.105 30.1534 341.213 30.1713 341.315 30.2061C341.421 30.2414 341.581 30.3121 341.757 30.3829C342.382 30.6575 343.034 30.8649 343.702 31.0016C344.394 31.1421 345.099 31.2132 345.806 31.2137C346.919 31.2137 347.786 31.0193 348.387 30.6303C348.674 30.4565 348.911 30.2096 349.073 29.9146C349.234 29.6196 349.315 29.2871 349.306 28.9509C349.312 28.7234 349.273 28.4968 349.191 28.2844C349.109 28.072 348.986 27.8779 348.829 27.7135C348.51 27.3776 347.909 27.0771 347.043 26.7942L344.48 25.9987C343.189 25.5921 342.235 24.9911 341.651 24.1955C341.082 23.4619 340.771 22.5607 340.767 21.6322C340.753 20.9478 340.918 20.2714 341.245 19.67C341.56 19.1013 341.994 18.6069 342.517 18.2204C343.068 17.8034 343.692 17.4917 344.356 17.3011C345.08 17.0926 345.83 16.9913 346.583 17.0006C346.979 16.9977 347.375 17.0213 347.768 17.0713C348.174 17.1243 348.546 17.195 348.917 17.2658C349.288 17.3365 349.606 17.4425 349.925 17.5486C350.183 17.6284 350.431 17.735 350.667 17.8668C350.875 17.9718 351.057 18.1229 351.197 18.3088C351.312 18.4808 351.368 18.6856 351.356 18.8921V19.723C351.356 20.0942 351.215 20.2887 350.95 20.2887C350.714 20.2619 350.486 20.1899 350.278 20.0766C349.21 19.6043 348.052 19.3691 346.884 19.3871C345.876 19.3871 345.081 19.5462 344.533 19.8821C343.985 20.218 343.702 20.7306 343.702 21.4554C343.697 21.6902 343.742 21.9233 343.833 22.1396C343.925 22.3559 344.061 22.5505 344.232 22.7106C344.586 23.0465 345.24 23.3824 346.177 23.6829L348.687 24.4784C349.96 24.885 350.879 25.4507 351.427 26.1755C351.967 26.8866 352.253 27.7578 352.24 28.6504C352.249 29.3605 352.092 30.0628 351.781 30.7011C351.467 31.3061 351.027 31.8367 350.49 32.2567C349.907 32.7109 349.24 33.0472 348.528 33.2467C347.709 33.4985 346.857 33.6237 346 33.6179Z" fill="#BCCCD1"/>
<path d="M349.34 42.2096C343.524 46.5053 335.074 48.7858 327.808 48.7858C317.625 48.7858 308.45 45.0204 301.521 38.7624C300.973 38.2674 301.468 37.5956 302.122 37.9845C309.617 42.3333 318.863 44.9673 328.427 44.9673C335.319 44.9308 342.137 43.5372 348.491 40.866C349.463 40.4241 350.294 41.5025 349.34 42.2096ZM351.762 39.4518C351.019 38.4972 346.847 38.9922 344.956 39.222C344.39 39.2927 344.301 38.7977 344.814 38.4265C348.138 36.093 353.6 36.7647 354.237 37.5426C354.873 38.3204 354.06 43.8006 350.948 46.417C350.471 46.8235 350.011 46.6114 350.224 46.0811C350.931 44.3309 352.504 40.3887 351.762 39.4518Z" fill="#BCCCD1"/>
<path fill-rule="evenodd" clip-rule="evenodd" d="M427.471 34.307L428.103 34.5028C428.06 34.6843 427.994 34.836 427.903 34.9579C427.812 35.0804 427.699 35.1728 427.563 35.2351C427.428 35.2964 427.256 35.327 427.047 35.327C426.793 35.327 426.586 35.2898 426.424 35.2154C426.265 35.1389 426.126 35.0055 426.009 34.8153C425.892 34.625 425.834 34.3812 425.834 34.0838C425.834 33.688 425.936 33.384 426.141 33.1719C426.347 32.9587 426.638 32.8521 427.013 32.8521C427.307 32.8521 427.538 32.9133 427.706 33.0357C427.875 33.1582 428 33.3452 428.082 33.5967L427.445 33.741C427.424 33.6677 427.4 33.6147 427.375 33.5819C427.335 33.525 427.286 33.4819 427.228 33.4523C427.17 33.4217 427.105 33.4064 427.032 33.4064C426.869 33.4064 426.744 33.4737 426.657 33.6081C426.591 33.7087 426.558 33.8662 426.558 34.0805C426.558 34.3462 426.597 34.5282 426.676 34.6266C426.755 34.7251 426.866 34.7743 427.008 34.7743C427.147 34.7743 427.251 34.7349 427.32 34.6562C427.392 34.5774 427.443 34.4626 427.475 34.3117L427.471 34.307ZM428.361 34.0898C428.361 33.6995 428.467 33.3955 428.679 33.1779C428.891 32.9604 429.187 32.8516 429.566 32.8516C429.954 32.8516 430.254 32.9587 430.464 33.173C430.675 33.3862 430.78 33.6856 430.78 34.0711C430.78 34.3508 430.734 34.5802 430.642 34.7593C430.551 34.9376 430.419 35.077 430.245 35.1776C430.072 35.2766 429.856 35.3261 429.598 35.3261C429.336 35.3261 429.118 35.2835 428.946 35.1982C428.775 35.1129 428.636 34.9769 428.528 34.7902C428.421 34.6043 428.368 34.3714 428.368 34.0915L428.361 34.0898ZM429.082 34.0931C429.082 34.3345 429.125 34.5081 429.212 34.6137C429.3 34.7192 429.419 34.772 429.569 34.772C429.724 34.772 429.844 34.7199 429.929 34.6158C430.013 34.5117 430.056 34.3262 430.056 34.0593C430.056 33.8341 430.011 33.6699 429.921 33.5668C429.833 33.4618 429.713 33.4094 429.561 33.4094C429.415 33.4094 429.298 33.4618 429.211 33.5668C429.122 33.6707 429.078 33.8451 429.078 34.09L429.082 34.0931ZM431.162 32.8922H432.111L432.477 34.3477L432.842 32.8922H433.787V35.2842H433.198V33.4604L432.742 35.2842H432.21L431.755 33.4604V35.2842H431.163V32.8924L431.162 32.8922ZM434.242 32.8922H435.441C435.702 32.8922 435.897 32.9559 436.026 33.0831C436.157 33.2103 436.222 33.3912 436.222 33.6257C436.222 33.867 436.151 34.0555 436.009 34.191C435.868 34.3266 435.652 34.3944 435.361 34.3944H434.966V35.2824H434.242V32.8896L434.242 32.8922ZM434.966 33.9119H435.143C435.282 33.9119 435.38 33.8875 435.436 33.8386C435.492 33.7886 435.52 33.725 435.52 33.6478C435.52 33.5727 435.496 33.5091 435.447 33.4569C435.398 33.4044 435.307 33.3782 435.172 33.3782H434.966V33.9112L434.966 33.9119ZM436.601 32.8922H437.321V34.6954H438.446V35.2842H436.6V32.8924L436.601 32.8922ZM438.806 32.8922H439.528V35.2842H438.804V32.8924L438.806 32.8922ZM441.48 34.8894H440.657L440.544 35.2843H439.806L440.683 32.8931H441.468L442.345 35.286H441.592L441.476 34.8923L441.48 34.8894ZM441.328 34.3723L441.068 33.5125L440.811 34.3723H441.324H441.328ZM442.582 32.8922H443.256L444.134 34.2155V32.8922H444.814V35.2842H444.134L443.26 33.9708V35.2845H442.582V32.8921V32.8922ZM445.131 32.8922H447.323V33.483H446.587V35.2842H445.867V33.4833H445.131V32.8926V32.8922Z" fill="#BCCCD1"/>
<path fill-rule="evenodd" clip-rule="evenodd" d="M418.788 36.5425L420.877 35.8677L420.2 34.3236C419.697 34.9583 419.202 35.7816 418.788 36.541L418.788 36.5425ZM418.077 29.4736L413.981 20.1211L384 21.8662L392.306 45.0982L408.295 39.9322C407.28 38.4338 406.906 36.6525 408.08 35.782C409.397 34.8077 411.376 35.9345 412.648 37.5369C413.869 35.4342 417.293 30.5812 418.077 29.4741L418.077 29.4736Z" fill="#BCCCD1"/>
<path fill-rule="evenodd" clip-rule="evenodd" d="M413.051 26.8795C414.306 26.8795 415.324 25.8959 415.324 24.6826C415.324 23.4692 414.305 22.4863 413.051 22.4863C411.795 22.4863 410.778 23.4699 410.778 24.6834C410.778 25.8971 411.795 26.8805 413.051 26.8805L413.051 26.8795ZM411.192 27.8324H414.91V37.7849H411.192V27.8327V27.8324ZM409.356 30.737C409.382 30.7529 409.404 30.7398 409.404 30.7085V28.1873C409.404 28.1552 409.382 28.1168 409.354 28.1017C409.354 28.1017 408.866 27.7758 407.378 27.6851C407.298 27.64 406.002 27.6333 405.644 27.6851C400.236 28.1296 400.036 32.14 400.036 32.3233V33.2967C400.036 33.4156 400.036 37.5161 405.644 37.8792C406.191 37.9215 407.265 37.8792 407.378 37.8792C408.67 37.8792 409.564 37.4801 409.564 37.4801C409.591 37.4674 409.615 37.4326 409.615 37.4008V35.0407C409.615 35.0085 409.594 34.997 409.567 35.0136C409.567 35.0136 409.166 35.3449 407.401 35.5204C406.9 35.5778 406.663 35.5516 406.482 35.5204C403.98 35.089 403.86 33.2095 403.86 33.2095C403.857 33.1783 403.854 33.1275 403.854 33.0963V32.3796C403.854 32.3484 403.857 32.2976 403.86 32.2664C403.86 32.2664 404.028 30.2524 406.481 30.0392H407.398C408.481 30.1884 409.35 30.7379 409.35 30.7379L409.356 30.737ZM389.723 37.7452C389.723 37.777 389.747 37.8026 389.778 37.8026H393.4C393.431 37.8026 393.456 37.777 393.456 37.7463V34.8576C393.456 34.8271 393.481 34.8028 393.512 34.804C393.512 34.804 399.294 35.2326 399.294 31.2538C399.294 28.1143 395.666 27.7702 394.472 27.8277C394.448 27.8293 389.779 27.8277 389.779 27.8277C389.748 27.8277 389.723 27.8547 389.723 27.8854V37.7457L389.723 37.7452ZM393.392 32.5969V29.9947H394.278C394.278 29.9947 395.568 30.0544 395.668 30.9534C395.692 31.0239 395.686 31.4634 395.668 31.488C395.504 32.5456 394.384 32.5974 394.384 32.5974L393.395 32.5958L393.392 32.5969Z" fill="#F0F4F5"/>
<path fill-rule="evenodd" clip-rule="evenodd" d="M413.153 42.5888C413.456 42.5888 413.687 42.5888 414.069 42.4149C415.389 41.7035 419.833 30.5786 424.52 27.1567C424.548 27.1347 424.586 27.1029 424.609 27.0703C424.639 27.0252 424.64 26.9791 424.64 26.9791C424.64 26.9791 424.64 26.7511 423.945 26.7511C419.772 26.6347 415.433 35.6011 413.153 39.1487C413.124 39.188 412.967 39.1487 412.967 39.1487C412.967 39.1487 411.439 37.3003 410.111 36.5917C410.084 36.577 409.932 36.5294 409.775 36.5409C409.671 36.5409 409.054 36.6672 408.766 36.9804C408.427 37.3478 408.433 37.5545 408.436 38.0022C408.438 38.0383 408.46 38.1876 408.502 38.263C408.827 38.8452 410.31 40.9347 411.524 42.0877C411.713 42.2255 411.999 42.5912 413.155 42.5912L413.153 42.5888Z" fill="#BCCCD1"/>
<path fill-rule="evenodd" clip-rule="evenodd" d="M425.752 23.7856H429.224C429.909 23.7856 430.461 23.8808 430.88 24.071C431.303 24.2615 431.653 24.5348 431.928 24.8911C432.203 25.2464 432.402 25.6604 432.526 26.1331C432.65 26.6055 432.712 27.1057 432.712 27.6338C432.712 28.4615 432.619 29.105 432.433 29.5642C432.251 30.0191 431.997 30.4017 431.67 30.7123C431.343 31.0184 430.992 31.2223 430.617 31.324C430.105 31.464 429.64 31.534 429.224 31.534H425.752V23.783L425.752 23.7856ZM428.089 25.5414V29.7777H428.661C429.149 29.7777 429.497 29.7231 429.703 29.6137C429.909 29.5011 430.071 29.3076 430.187 29.0331C430.304 28.7543 430.362 28.3049 430.362 27.685C430.362 26.8638 430.231 26.3018 429.969 25.9989C429.707 25.6961 429.274 25.5446 428.668 25.5446H428.085L428.089 25.5414ZM433.347 28.9741L435.57 28.8314C435.618 29.2021 435.715 29.4842 435.863 29.6777C436.103 29.9915 436.447 30.1484 436.895 30.1484C437.228 30.1484 437.484 30.0691 437.663 29.9106C437.844 29.7488 437.935 29.5618 437.935 29.3497C437.935 29.1496 437.848 28.9703 437.675 28.8117C437.503 28.6532 437.104 28.5039 436.479 28.364C435.453 28.1278 434.722 27.814 434.285 27.4226C433.844 27.0322 433.624 26.5336 433.624 25.9268C433.624 25.5288 433.736 25.1537 433.96 24.8017C434.186 24.4463 434.525 24.168 434.976 23.9669C435.431 23.7624 436.051 23.6602 436.839 23.6602C437.804 23.6602 438.539 23.8455 439.045 24.2162C439.553 24.5835 439.855 25.1691 439.952 25.9727L437.749 26.1056C437.69 25.7568 437.566 25.5031 437.376 25.3445C437.189 25.186 436.931 25.1067 436.602 25.1067C436.33 25.1067 436.125 25.1669 435.987 25.2871C435.849 25.4041 435.779 25.5468 435.779 25.7152C435.779 25.8388 435.836 25.9497 435.949 26.0481C436.059 26.1509 436.32 26.2466 436.733 26.3352C437.755 26.5615 438.486 26.7911 438.926 27.024C439.369 27.2536 439.691 27.5395 439.89 27.8818C440.094 28.224 440.196 28.6067 440.196 29.0299C440.196 29.5274 440.062 29.986 439.793 30.4059C439.524 30.8258 439.149 31.1449 438.668 31.3632C438.188 31.5764 437.582 31.6831 436.85 31.6831C435.563 31.6831 434.672 31.4294 434.176 30.922C433.68 30.4147 433.4 29.7696 433.335 28.9867L433.347 28.9741ZM440.802 28.9741L443.024 28.8314C443.072 29.2021 443.17 29.4842 443.317 29.6777C443.557 29.9915 443.901 30.1484 444.349 30.1484C444.683 30.1484 444.939 30.0691 445.117 29.9106C445.299 29.7488 445.391 29.5618 445.391 29.3497C445.391 29.1496 445.304 28.9703 445.131 28.8117C444.959 28.6532 444.56 28.5039 443.935 28.364C442.909 28.1278 442.178 27.814 441.741 27.4226C441.3 27.0322 441.08 26.5336 441.08 25.9268C441.08 25.5288 441.192 25.1537 441.415 24.8017C441.642 24.4463 441.98 24.168 442.431 23.9669C442.884 23.7624 443.505 23.6602 444.293 23.6602C445.258 23.6602 445.994 23.8455 446.499 24.2162C447.008 24.5835 447.311 25.1691 447.407 25.9727L445.205 26.1039C445.145 25.7551 445.021 25.5014 444.832 25.3429C444.647 25.1844 444.388 25.1051 444.058 25.1051C443.786 25.1051 443.581 25.1652 443.443 25.2855C443.305 25.4025 443.235 25.5457 443.235 25.7152C443.235 25.8388 443.292 25.9497 443.405 26.0481C443.515 26.1509 443.776 26.2466 444.189 26.3352C445.211 26.5604 445.942 26.7895 446.383 27.0224C446.825 27.252 447.147 27.5379 447.347 27.8801C447.55 28.2224 447.651 28.6051 447.651 29.0282C447.651 29.5257 447.517 29.9844 447.25 30.4043C446.981 30.8241 446.605 31.1434 446.123 31.3621C445.643 31.5764 445.037 31.6835 444.306 31.6835C443.019 31.6835 442.128 31.4293 441.632 30.9209C441.137 30.4136 440.857 29.7684 440.791 28.9856L440.802 28.9741Z" fill="#BCCCD1"/>
<path d="M428.511 41.7012H425.883V37.291H426.887V40.8179H428.511V41.7012Z" fill="#BCCCD1"/>
<path d="M431.799 41.7012H429.067V37.291H431.773V38.0958H430.077V39.097H431.59V39.8952H430.077V40.8964H431.799V41.7012Z" fill="#BCCCD1"/>
<path d="M434.883 41.7012H433.774L432.314 37.291H433.396L433.924 39.0512C434.115 39.6793 434.255 40.2595 434.341 40.7917C434.411 40.338 434.552 39.7578 434.765 39.0512L435.293 37.291H436.363L434.883 41.7012Z" fill="#BCCCD1"/>
<path d="M439.644 41.7012H436.912V37.291H439.618V38.0958H437.922V39.097H439.435V39.8952H437.922V40.8964H439.644V41.7012Z" fill="#BCCCD1"/>
<path d="M443.086 41.7012H440.459V37.291H441.463V40.8179H443.086V41.7012Z" fill="#BCCCD1"/>
<path d="M447.66 41.6172H446.715V38.3652L445.639 39.013V38.038L446.838 37.3379H447.66V41.6172Z" fill="#BCCCD1"/>
<g clip-path="url(#clip1_4328_43297)">
<path d="M493.105 49C501.942 49 509.105 41.8366 509.105 33C509.105 24.1634 501.942 17 493.105 17C484.269 17 477.105 24.1634 477.105 33C477.105 41.8366 484.269 49 493.105 49Z" fill="#BCCCD1"/>
<path d="M493.185 20.123L493.665 21.5414L495.163 21.5602L493.963 22.4554L494.408 23.8852L493.185 23.0201L491.963 23.8852L492.408 22.4554L491.207 21.5602L492.704 21.5414L493.185 20.123Z" fill="#F0F4F5"/>
<path d="M493.185 42.125L493.665 43.5433L495.163 43.5621L493.963 44.4563L494.408 45.8862L493.185 45.022L491.963 45.8862L492.408 44.4563L491.207 43.5621L492.704 43.5433L493.185 42.125Z" fill="#F0F4F5"/>
<path d="M498.736 21.4062L499.216 22.8246L500.713 22.8432L499.512 23.7385L499.957 25.1683L498.736 24.3033L497.513 25.1683L497.958 23.7385L496.758 22.8432L498.255 22.8246L498.736 21.4062Z" fill="#F0F4F5"/>
<path d="M502.655 25.6055L503.135 27.0243L504.631 27.043L503.431 27.9384L503.876 29.3682L502.655 28.503L501.432 29.3682L501.877 27.9384L500.676 27.043L502.174 27.0243L502.655 25.6055Z" fill="#F0F4F5"/>
<path d="M483.501 25.6055L483.982 27.0243L485.479 27.043L484.279 27.9384L484.724 29.3682L483.501 28.503L482.279 29.3682L482.724 27.9384L481.523 27.043L483.021 27.0243L483.501 25.6055Z" fill="#F0F4F5"/>
<path d="M482.079 31.0156L482.56 32.4339L484.057 32.4526L482.857 33.3479L483.302 34.7777L482.079 33.9125L480.857 34.7777L481.302 33.3479L480.102 32.4526L481.599 32.4339L482.079 31.0156Z" fill="#F0F4F5"/>
<path d="M504.15 31.0156L504.631 32.4339L506.127 32.4526L504.927 33.3479L505.373 34.7777L504.15 33.9125L502.928 34.7777L503.373 33.3479L502.172 32.4526L503.669 32.4339L504.15 31.0156Z" fill="#F0F4F5"/>
<path d="M483.501 36.5L483.982 37.9173L485.479 37.936L484.279 38.8313L484.724 40.2611L483.501 39.397L482.279 40.2611L482.724 38.8313L481.523 37.936L483.021 37.9173L483.501 36.5Z" fill="#F0F4F5"/>
<path d="M502.655 36.5L503.135 37.9173L504.631 37.936L503.431 38.8313L503.876 40.2611L502.655 39.397L501.432 40.2611L501.877 38.8313L500.676 37.936L502.174 37.9173L502.655 36.5Z" fill="#F0F4F5"/>
<path d="M487.63 40.6992L488.11 42.1175L489.608 42.1362L488.407 43.0315L488.852 44.4614L487.63 43.5961L486.408 44.4614L486.853 43.0315L485.652 42.1362L487.15 42.1175L487.63 40.6992Z" fill="#F0F4F5"/>
<path d="M498.595 40.6992L499.075 42.1175L500.573 42.1362L499.372 43.0315L499.817 44.4614L498.595 43.5961L497.372 44.4614L497.817 43.0315L496.617 42.1362L498.115 42.1175L498.595 40.6992Z" fill="#F0F4F5"/>
<path d="M487.63 21.4062L488.11 22.8246L489.608 22.8432L488.407 23.7385L488.852 25.1683L487.63 24.3033L486.408 25.1683L486.853 23.7385L485.652 22.8432L487.15 22.8246L487.63 21.4062Z" fill="#F0F4F5"/>
<path d="M489.236 32.2928H487.833V31.8036C487.833 31.4947 487.82 31.3013 487.793 31.2234C487.766 31.1456 487.703 31.1069 487.603 31.1069C487.516 31.1069 487.457 31.1402 487.426 31.207C487.396 31.2737 487.38 31.4451 487.38 31.7196V34.3103C487.38 34.5525 487.395 34.7116 487.426 34.7885C487.457 34.8653 487.519 34.9029 487.613 34.9029C487.715 34.9029 487.785 34.8603 487.821 34.7729C487.857 34.6855 487.877 34.5182 487.877 34.2665V33.627H487.593V32.8065H489.236V35.7014H488.354L488.225 35.3156C488.129 35.4819 488.008 35.6067 487.863 35.69C487.717 35.7731 487.545 35.8147 487.348 35.8147C487.116 35.8158 486.888 35.7566 486.686 35.6432C486.48 35.5288 486.324 35.3874 486.217 35.219C486.11 35.0494 486.043 34.8723 486.017 34.6876C485.99 34.5015 485.977 34.2231 485.977 33.8526V32.2491C485.977 31.7334 486.004 31.3591 486.06 31.1261C486.115 30.8931 486.275 30.6793 486.538 30.4846C486.802 30.2901 487.142 30.193 487.56 30.1934C487.971 30.1934 488.312 30.2776 488.582 30.4461C488.853 30.6146 489.03 30.8152 489.112 31.0481C489.195 31.28 489.236 31.6173 489.236 32.0599L489.236 32.2928Z" fill="#F0F4F5"/>
<path d="M489.777 30.3066H490.827C491.505 30.3066 491.963 30.3375 492.202 30.3993C492.44 30.4616 492.622 30.5646 492.747 30.706C492.871 30.8475 492.949 31.0062 492.98 31.1811C493.011 31.356 493.027 31.6979 493.027 32.2095V34.0989C493.027 34.5836 493.004 34.9073 492.958 35.0702C492.912 35.233 492.833 35.3609 492.72 35.4539C492.607 35.5454 492.467 35.6099 492.3 35.6474C492.134 35.6837 491.883 35.7017 491.547 35.7014H489.777V30.3066ZM491.18 31.2295V34.7795C491.382 34.7795 491.507 34.739 491.554 34.6579C491.601 34.5768 491.624 34.3564 491.624 33.9965V31.8987C491.624 31.6554 491.616 31.4985 491.6 31.4298C491.584 31.361 491.549 31.3101 491.494 31.2779C491.438 31.2456 491.334 31.2291 491.18 31.2291V31.2295Z" fill="#F0F4F5"/>
<path d="M497.07 30.3066H498.063C498.726 30.3066 499.174 30.332 499.408 30.3826C499.643 30.4336 499.833 30.5646 499.982 30.7746C500.13 30.9847 500.203 31.3195 500.203 31.7791C500.203 32.1992 500.15 32.481 500.046 32.6255C499.942 32.7699 499.737 32.8574 499.43 32.8855C499.707 32.9542 499.894 33.0464 499.99 33.1621C500.085 33.2775 500.145 33.3836 500.168 33.4803C500.191 33.577 500.203 33.8431 500.203 34.2788V35.7014H498.9V33.9087C498.9 33.6196 498.878 33.4407 498.832 33.3721C498.786 33.3035 498.667 33.2691 498.473 33.2691V35.7014H497.07V30.3066ZM498.473 31.2295V32.4294C498.631 32.4294 498.741 32.4072 498.805 32.365C498.868 32.3227 498.9 32.1809 498.9 31.9424V31.6461C498.9 31.4756 498.869 31.3633 498.808 31.3092C498.746 31.2552 498.635 31.2291 498.473 31.2291V31.2295Z" fill="#F0F4F5"/>
<path d="M493.617 30.3086H495.03C495.413 30.3086 495.706 30.3377 495.912 30.3975C496.118 30.4574 496.272 30.5441 496.375 30.6575C496.478 30.7709 496.549 30.9081 496.585 31.0689C496.621 31.2297 496.641 31.4796 496.641 31.8165V32.2866C496.641 32.6313 496.605 32.8824 496.533 33.0405C496.462 33.1986 496.333 33.3191 496.142 33.4033C495.951 33.4875 495.704 33.5303 495.397 33.5303H495.019V35.7033H493.617V30.3086ZM495.02 31.2315V32.6051C495.061 32.6071 495.095 32.6082 495.124 32.6082C495.253 32.6082 495.342 32.5769 495.392 32.5136C495.442 32.4502 495.467 32.3181 495.467 32.1184V31.675C495.467 31.4899 495.438 31.3703 495.38 31.3152C495.321 31.26 495.203 31.231 495.02 31.231V31.2315Z" fill="#F0F4F5"/>
</g>
<defs>
<clipPath id="clip0_4328_43297">
<rect width="98" height="32" fill="white" transform="translate(59.2852 17)"/>
</clipPath>
<clipPath id="clip1_4328_43297">
<rect width="32" height="32" fill="white" transform="translate(477.105 17)"/>
</clipPath>
</defs>
</svg>
