<svg width="32" height="32" viewBox="0 0 32 32" fill="none" xmlns="http://www.w3.org/2000/svg">
<path d="M16.0006 0.640625C7.51743 0.640625 0.640625 7.51743 0.640625 16.0006C0.640625 24.4838 7.51743 31.3606 16.0006 31.3606C24.4838 31.3606 31.3606 24.4838 31.3606 16.0006C31.3606 7.51743 24.4838 0.640625 16.0006 0.640625ZM12.2406 22.367H9.13022V12.3574H12.2406V22.367ZM10.6662 11.1286C9.68382 11.1286 9.04863 10.4326 9.04863 9.57182C9.04863 8.69342 9.70302 8.01823 10.7062 8.01823C11.7094 8.01823 12.3238 8.69342 12.343 9.57182C12.343 10.4326 11.7094 11.1286 10.6662 11.1286ZM23.6006 22.367H20.4902V16.8198C20.4902 15.5286 20.039 14.6518 18.9142 14.6518C18.055 14.6518 17.5446 15.2454 17.319 15.8166C17.2358 16.0198 17.215 16.3078 17.215 16.5942V22.3654H14.103V15.5494C14.103 14.2998 14.063 13.255 14.0214 12.3558H16.7238L16.8662 13.7462H16.9286C17.3382 13.0934 18.3414 12.1302 20.0198 12.1302C22.0662 12.1302 23.6006 13.5014 23.6006 16.4486V22.367V22.367Z" fill="black"/>
</svg>
