<svg width="31" height="26" viewBox="0 0 31 26" fill="none" xmlns="http://www.w3.org/2000/svg">
<path d="M30.5247 3.58342C29.4113 4.07675 28.2153 4.41009 26.958 4.56075C28.2553 3.78448 29.2259 2.56271 29.6887 1.12342C28.4698 1.84741 27.1358 2.35701 25.7447 2.63009C24.8092 1.63124 23.5701 0.969189 22.2198 0.746719C20.8695 0.524249 19.4835 0.753809 18.277 1.39976C17.0705 2.04571 16.111 3.0719 15.5475 4.31903C14.984 5.56615 14.848 6.96442 15.1607 8.29675C12.6909 8.17275 10.2748 7.53082 8.06923 6.41263C5.86363 5.29443 3.91779 3.72497 2.358 1.80609C1.82467 2.72609 1.518 3.79275 1.518 4.92875C1.51741 5.95141 1.76924 6.95841 2.25117 7.8604C2.7331 8.76238 3.43022 9.53147 4.28067 10.0994C3.29437 10.068 2.32983 9.80153 1.46733 9.32209V9.40209C1.46723 10.8364 1.96338 12.2266 2.87158 13.3367C3.77978 14.4469 5.0441 15.2087 6.45 15.4928C5.53505 15.7404 4.57578 15.7768 3.64467 15.5994C4.04133 16.8336 4.81399 17.9128 5.85449 18.686C6.89499 19.4592 8.15122 19.8877 9.44733 19.9114C7.24711 21.6386 4.52985 22.5755 1.73267 22.5714C1.23717 22.5716 0.742102 22.5426 0.25 22.4848C3.0893 24.3103 6.39445 25.2792 9.77 25.2754C21.1967 25.2754 27.4433 15.8114 27.4433 7.60342C27.4433 7.33675 27.4367 7.06742 27.4247 6.80075C28.6397 5.92205 29.6886 4.83395 30.522 3.58742L30.5247 3.58342V3.58342Z" fill="black"/>
</svg>
