<svg width="64" height="43" viewBox="0 0 64 43" fill="none" xmlns="http://www.w3.org/2000/svg">
<g clip-path="url(#clip0_2_4056)">
<g clip-path="url(#clip1_2_4056)">
<path d="M59.7333 42.668H4.26667C3.13508 42.668 2.04983 42.2185 1.24968 41.4183C0.449523 40.6182 0 39.5329 0 38.4013L0 20.4529H3.07378L3.76711 18.7747H5.31911L6.01067 20.4458H12.0587V19.1747L12.5991 20.4547H15.7387L16.2791 19.1533V20.4511H31.3067V17.7062H31.5911C31.7938 17.7133 31.8524 17.7311 31.8524 18.0689V20.4547H39.6267V19.8164C40.4213 20.22 41.3582 20.4564 42.352 20.4564L42.5209 20.4547H42.512H45.7831L46.4836 18.7835H48.0356L48.72 20.4547H55.024V18.8653L55.9769 20.4547H61.0187V9.95866H56.0285V11.1978L55.3298 9.95866H50.1991V11.1978L49.5573 9.95866H42.6293C41.5797 9.90562 40.5339 10.1216 39.5911 10.5862L39.6285 10.5702V9.95866H34.8498V10.5702C34.2714 10.1143 33.5408 9.89623 32.8071 9.96044H32.8178H15.3547L14.1831 12.6715L12.9796 9.96044H7.47911V11.1995L6.87289 9.96044H2.17956L0.00533333 14.9382V4.27155C0.00533333 3.13996 0.454856 2.05472 1.25501 1.25456C2.05517 0.454405 3.14041 0.00488281 4.272 0.00488281H59.7387C60.8703 0.00488281 61.9555 0.454405 62.7557 1.25456C63.5558 2.05472 64.0053 3.13996 64.0053 4.27155V22.9027H60.6756C60.6222 22.8991 60.5582 22.8991 60.496 22.8991C59.7245 22.8991 59.008 23.1302 58.4107 23.5267L58.4249 23.5178V22.9027H53.5005C52.7311 22.8601 51.97 23.0788 51.3405 23.5231L51.3511 23.516V22.9009H42.5582V23.516C41.8384 23.1101 41.0255 22.8981 40.1991 22.9009H40.1298H40.1333H34.3324V23.516C33.5746 23.0305 32.6753 22.8145 31.7796 22.9027L31.7956 22.9009H25.3049L23.8187 24.508L22.4284 22.9009H12.7324V33.404H22.2471L23.7778 31.772L25.2196 33.404H31.0844V30.9453H31.9022C32.6886 30.9761 33.4728 30.8447 34.2062 30.5595L34.1671 30.5738V33.4075H39.0027V30.6715H39.2356C39.5307 30.6715 39.5609 30.6822 39.5609 30.9809V33.4093H54.256L54.4356 33.4129C55.2782 33.4129 56.064 33.1604 56.7182 32.7284L56.7022 32.7373V33.4093H61.3636L61.5858 33.4129C62.4587 33.4129 63.2889 33.2333 64.0427 32.908L64.0018 32.924V38.4031C64.0018 39.5347 63.5523 40.6199 62.7521 41.4201C61.952 42.2202 60.8667 42.6698 59.7351 42.6698L59.7333 42.668ZM37.52 31.932H35.7102V24.4031H39.8631C40.6132 24.3336 41.3684 24.4598 42.0551 24.7693L42.0267 24.7587C42.5831 25.0644 42.9547 25.6476 42.9547 26.316L42.9511 26.4351V26.4298L42.9529 26.4973C42.9529 27.3613 42.432 28.1044 41.6853 28.428L41.6711 28.4333C42.0285 28.5613 42.3271 28.78 42.5493 29.0627L42.5529 29.0662C42.8039 29.4817 42.909 29.9691 42.8516 30.4511L42.8533 30.4404V31.9302H41.0471V30.988C41.1326 30.475 41.0297 29.9484 40.7573 29.5053L40.7627 29.5142C40.575 29.3718 40.3604 29.2689 40.1319 29.2117C39.9033 29.1546 39.6655 29.1444 39.4329 29.1818L39.4436 29.18H37.52V31.9302V31.932ZM37.52 25.9587V27.6493H39.7067C40.0155 27.6778 40.3262 27.6226 40.6062 27.4893L40.5956 27.4947C40.71 27.4208 40.804 27.3195 40.8693 27.1999C40.9345 27.0804 40.9687 26.9464 40.9689 26.8102L40.9671 26.7693V26.7711C40.9759 26.6352 40.946 26.4996 40.8809 26.3801C40.8158 26.2605 40.7181 26.1618 40.5991 26.0956L40.5956 26.0938C40.3258 25.9731 40.0294 25.9241 39.7351 25.9516H39.7422L37.52 25.9587ZM21.4756 31.9302H14.352V24.4031H21.5876L23.8009 26.8707L26.0889 24.4031H31.8365C33.8773 24.4031 34.8693 25.2156 34.8693 26.8831C34.8693 28.5809 33.8436 29.4058 31.7404 29.4058H29.4916V31.9284H25.9947L23.7796 29.4413L21.4773 31.9302H21.4756ZM27.6996 25.2102L24.9369 28.1791L27.6996 31.244V25.2102ZM16.1458 28.8635V30.3604H20.5689L22.6133 28.1524L20.6471 25.9587H16.144V27.3276H20.0942V28.8618L16.1458 28.8635ZM29.4916 25.9604V27.8769H31.8151C32.5262 27.8769 32.9351 27.5142 32.9351 26.8813C32.9351 26.2769 32.5547 25.9587 31.8347 25.9587L29.4916 25.9604ZM61.5591 31.9338H58.0853V30.316H61.5449C61.8038 30.3517 62.0663 30.284 62.2756 30.1275L62.2738 30.1293C62.3406 30.0674 62.3938 29.9923 62.4303 29.9088C62.4667 29.8252 62.4854 29.7351 62.4853 29.644V29.6387V29.6155C62.4855 29.5256 62.466 29.4366 62.4282 29.355C62.3905 29.2733 62.3353 29.2008 62.2667 29.1427C62.0827 29.0097 61.8558 28.9501 61.6302 28.9755H61.6338L61.3013 28.9649C59.6765 28.9222 57.8365 28.8724 57.8365 26.6449C57.8365 25.5604 58.5156 24.4031 60.416 24.4031H64.0018V26.0067H60.7218C60.4684 25.9783 60.2125 26.0292 59.9893 26.1524L59.9965 26.1489C59.9087 26.2066 59.8381 26.287 59.7921 26.3815C59.7461 26.4759 59.7264 26.5811 59.7351 26.6858V26.684V26.7036C59.7351 26.8233 59.7729 26.9401 59.8431 27.0371C59.9134 27.1342 60.0124 27.2066 60.1262 27.244L60.1298 27.2458C60.3552 27.3153 60.5912 27.3442 60.8267 27.3311H60.8213L61.7973 27.356C62.533 27.2826 63.2681 27.5016 63.8436 27.9658L63.8382 27.9622C63.8916 28.0049 63.9378 28.0511 63.9787 28.1027L63.9805 28.1044L64.0018 30.9702C63.7028 31.3196 63.3225 31.59 62.8944 31.7577C62.4662 31.9255 62.0034 31.9853 61.5467 31.932L61.5591 31.9338ZM54.5387 31.9338H51.0329V30.316H54.5209C54.7819 30.3502 55.046 30.2827 55.2587 30.1275L55.2551 30.1293C55.3215 30.0671 55.3744 29.992 55.4105 29.9085C55.4466 29.825 55.4651 29.735 55.4649 29.644V29.6387V29.6262C55.4648 29.5347 55.4453 29.4443 55.4076 29.3609C55.3699 29.2775 55.3149 29.2032 55.2462 29.1427C55.059 29.0096 54.8292 28.9501 54.6009 28.9755H54.6045L54.2738 28.9649C52.6542 28.9222 50.816 28.8724 50.816 26.6449C50.816 25.5604 51.4916 24.4031 53.3885 24.4031H56.9938V26.0067H53.6942C53.4426 25.9786 53.1885 26.0295 52.9671 26.1524L52.9742 26.1489C52.8808 26.2131 52.8065 26.3014 52.7592 26.4044C52.7118 26.5074 52.6932 26.6213 52.7052 26.734C52.7172 26.8468 52.7595 26.9542 52.8275 27.0449C52.8955 27.1356 52.9867 27.2062 53.0916 27.2493L53.0951 27.2511C53.3235 27.3211 53.5624 27.35 53.8009 27.3364H53.7956L54.7645 27.3613C55.5041 27.2901 56.2424 27.5094 56.8231 27.9729L56.8178 27.9675C57.0131 28.1829 57.1617 28.4365 57.2541 28.7122C57.3465 28.9879 57.3808 29.2797 57.3547 29.5693V29.5604C57.36 31.1302 56.4089 31.9302 54.5333 31.9302L54.5387 31.9338ZM49.9556 31.9338H43.9467V24.4013H49.9502V25.9569H45.7422V27.3258H49.8525V28.86H45.7422V30.3569L49.9556 30.364V31.9284V31.9338ZM53.4578 18.9809H49.7938L49.0933 17.3027H45.3565L44.6773 18.9809H42.5725C41.6272 19.0307 40.6963 18.7329 39.9556 18.1435L39.9644 18.1489C39.6125 17.7605 39.3454 17.303 39.1801 16.8056C39.0148 16.3082 38.955 15.7818 39.0045 15.26L39.0027 15.2742C38.9569 14.7428 39.0196 14.2076 39.1871 13.7012C39.3546 13.1948 39.6233 12.7278 39.9769 12.3284L39.9733 12.332C40.3467 12.0056 40.7832 11.7595 41.2557 11.609C41.7282 11.4585 42.2267 11.4069 42.72 11.4573L42.7058 11.4555H44.448V13.0609H42.7413C42.4916 13.0287 42.2379 13.052 41.9982 13.1292C41.7585 13.2063 41.5388 13.3353 41.3547 13.5071L41.3565 13.5053C40.9763 13.9921 40.7918 14.6033 40.8391 15.2191V15.2102C40.7825 15.8429 40.9602 16.4743 41.3387 16.9844L41.3333 16.9773C41.6868 17.2662 42.1391 17.4053 42.5938 17.3649H42.5867H43.3938L45.9378 11.4449H48.64L51.6853 18.556V11.4449H54.4249L57.5858 16.6858V11.4449H59.4347V18.9684H56.8676L53.4542 13.3187V18.9684L53.4578 18.9809ZM47.2373 12.7267L45.9982 15.7275H48.4818L47.2373 12.7267ZM29.8169 18.9773H28.0178V11.4502H32.1564C32.9119 11.3718 33.6745 11.5003 34.3627 11.8218L34.336 11.8111C34.6127 11.9641 34.8434 12.1884 35.0041 12.4607C35.1647 12.733 35.2496 13.0434 35.2498 13.3595L35.2462 13.484V13.4787V13.5338C35.2464 13.9444 35.128 14.3463 34.9054 14.6912C34.6828 15.0362 34.3653 15.3096 33.9911 15.4787L33.9769 15.484C34.3342 15.6191 34.6347 15.836 34.864 16.1133L34.8676 16.1169C35.1212 16.5339 35.2259 17.0247 35.1645 17.5089L35.1662 17.4982V18.9756H33.3511L33.344 18.0262V17.884C33.4086 17.4198 33.3059 16.9478 33.0542 16.5524L33.0596 16.5613C32.8713 16.423 32.6574 16.3233 32.4304 16.2681C32.2034 16.2129 31.9677 16.2032 31.7369 16.2395L31.7476 16.2378H29.8187V18.9756L29.8169 18.9773ZM29.8169 13.0164V14.6875H32C32.3084 14.721 32.6199 14.6655 32.8978 14.5275L32.8889 14.5311C33.0028 14.4619 33.0969 14.3645 33.1623 14.2484C33.2277 14.1323 33.2621 14.0013 33.2622 13.868L33.2604 13.8182V13.82C33.2695 13.6849 33.2388 13.5501 33.1721 13.4323C33.1055 13.3145 33.0058 13.2187 32.8853 13.1569L32.8818 13.1551C32.6113 13.039 32.3166 12.9902 32.0231 13.0129H32.0285L29.8169 13.0164ZM10.7662 18.9773H7.11111L6.41956 17.2991H2.672L1.97511 18.9773H0.0195556L3.24267 11.4502H5.91467L8.97422 18.5738V11.4502H11.9093L14.2631 16.5542L16.4267 11.4502H19.4222V18.9738H17.5733L17.5698 13.0858L14.9618 18.9756H13.3831L10.768 13.0769V18.9756L10.7662 18.9773ZM4.53689 12.7267L3.312 15.7275H5.76889L4.53689 12.7267ZM38.1156 18.9756H36.2809V11.4502H38.1173V18.9738L38.1156 18.9756ZM26.7627 18.9756H20.7644V11.4502H26.7733V13.0147H22.5636V14.3711H26.672V15.916H22.56V17.42H26.7698V18.9738L26.7627 18.9756Z" fill="#2671B9"/>
</g>
</g>
<defs>
<clipPath id="clip0_2_4056">
<rect width="64" height="42.6667" fill="white"/>
</clipPath>
<clipPath id="clip1_2_4056">
<rect width="64" height="42.6667" fill="white"/>
</clipPath>
</defs>
</svg>
