<svg width="96" height="62" viewBox="0 0 96 62" fill="none" xmlns="http://www.w3.org/2000/svg">
<g clip-path="url(#clip0_2_6831)">
<path d="M87.4029 0H8.59724C8.26903 0 7.94023 0 7.61261 0.00191396C7.33566 0.00388591 7.05935 0.00695984 6.78305 0.0144997C6.18044 0.0307973 5.57267 0.0663505 4.9776 0.1733C4.37303 0.282105 3.81044 0.459581 3.2616 0.739019C2.72204 1.01341 2.22806 1.37231 1.79998 1.80057C1.37171 2.22883 1.01282 2.72199 0.738483 3.26213C0.458987 3.81098 0.281396 4.37374 0.173344 4.97878C0.0658204 5.57402 0.0300294 6.18167 0.0137898 6.78364C0.00636593 7.05994 0.00318181 7.33625 0.00137805 7.6125C-0.000535908 7.94083 0.000102078 8.26893 0.000102078 8.59784V52.8611C0.000102078 53.19 -0.000535908 53.5176 0.00137805 53.8465C0.00318181 54.1228 0.00636593 54.3991 0.0137898 54.6754C0.0300294 55.2768 0.0658204 55.8845 0.173344 56.4796C0.281396 57.0848 0.458987 57.6474 0.738483 58.1963C1.01282 58.7364 1.37171 59.2302 1.79998 59.6578C2.22806 60.0868 2.72204 60.4456 3.2616 60.7193C3.81044 60.9995 4.37303 61.177 4.9776 61.2858C5.57267 61.392 6.18044 61.4282 6.78305 61.4445C7.05935 61.4508 7.33566 61.4545 7.61261 61.4558C7.94023 61.4583 8.26903 61.4583 8.59724 61.4583H87.4029C87.7305 61.4583 88.0593 61.4583 88.3869 61.4558C88.6632 61.4545 88.9395 61.4508 89.217 61.4445C89.8184 61.4282 90.426 61.392 91.0226 61.2858C91.6263 61.177 92.189 60.9995 92.7379 60.7193C93.2781 60.4456 93.7706 60.0868 94.1996 59.6578C94.6271 59.2302 94.986 58.7364 95.261 58.1963C95.5412 57.6474 95.7186 57.0848 95.8261 56.4796C95.9337 55.8845 95.9686 55.2768 95.9849 54.6754C95.9925 54.3991 95.9962 54.1228 95.9975 53.8465C96 53.5176 96 53.1901 96 52.8611V8.59784C96 8.26893 96 7.94083 95.9975 7.6125C95.9962 7.33625 95.9925 7.05994 95.9849 6.78364C95.9686 6.18167 95.9337 5.57402 95.8261 4.97878C95.7186 4.37374 95.5412 3.81098 95.261 3.26213C94.986 2.72199 94.6271 2.22883 94.1996 1.80057C93.7706 1.37231 93.2781 1.01341 92.7379 0.739019C92.189 0.459581 91.6263 0.282105 91.0226 0.1733C90.426 0.0663505 89.8184 0.0307973 89.217 0.0144997C88.9395 0.00695984 88.6632 0.00388591 88.3869 0.00191396C88.0593 0 87.7305 0 87.4029 0Z" fill="black"/>
<path d="M87.4031 2.04883L88.3726 2.05068C88.6352 2.05254 88.8978 2.05538 89.1619 2.06257C89.6212 2.07499 90.1586 2.09987 90.6595 2.18965C91.0949 2.26806 91.46 2.38731 91.8104 2.56571C92.1564 2.74151 92.4734 2.97188 92.7501 3.24824C93.028 3.52646 93.2586 3.84394 93.4367 4.19373C93.6141 4.54144 93.7326 4.90486 93.8106 5.34344C93.9001 5.83887 93.9249 6.37767 93.9375 6.83986C93.9446 7.10074 93.948 7.36162 93.9493 7.62871C93.9518 7.9517 93.9518 8.27452 93.9518 8.59815V52.8615C93.9518 53.1851 93.9518 53.5073 93.9493 53.8372C93.948 54.098 93.9446 54.3589 93.9374 54.6203C93.9249 55.0818 93.9001 55.6203 93.8095 56.1216C93.7326 56.5541 93.6142 56.9176 93.4358 57.267C93.2582 57.616 93.0279 57.9331 92.7513 58.2096C92.473 58.488 92.157 58.7176 91.807 58.8951C91.4592 59.0726 91.0946 59.1917 90.6635 59.2693C90.1525 59.3604 89.5926 59.3854 89.171 59.3969C88.9057 59.4028 88.6417 59.4064 88.3712 59.4077C88.0489 59.4102 87.7255 59.4101 87.4031 59.4101H8.59751C8.59322 59.4101 8.58905 59.4101 8.5847 59.4101C8.26605 59.4101 7.94677 59.4101 7.62233 59.4076C7.35779 59.4064 7.09384 59.4029 6.83865 59.3971C6.40737 59.3854 5.84716 59.3604 5.34031 59.2699C4.9055 59.1917 4.54097 59.0726 4.18857 58.8927C3.8418 58.7169 3.52611 58.4874 3.24766 58.2085C2.97135 57.9327 2.74174 57.6165 2.5642 57.2671C2.3865 56.918 2.2676 56.5534 2.18942 56.1157C2.09906 55.6154 2.07423 55.079 2.06183 54.6207C2.05474 54.3582 2.05179 54.0958 2.0501 53.835L2.04883 53.0648L2.04889 52.8615V8.59815L2.04883 8.39481L2.05005 7.62627C2.05179 7.36383 2.05474 7.10144 2.06183 6.83923C2.07423 6.3804 2.09905 5.8438 2.19017 5.33932C2.26766 4.90555 2.3865 4.54097 2.56513 4.19014C2.74127 3.84336 2.9713 3.52681 3.24906 3.24911C3.52571 2.97234 3.84244 2.74226 4.19141 2.56478C4.54004 2.38725 4.90526 2.26806 5.34008 2.18982C5.84107 2.09981 6.37878 2.07499 6.83929 2.06252C7.10179 2.05538 7.36429 2.05254 7.62482 2.05074L8.59751 2.04883H87.4031Z" fill="white"/>
<path d="M26.207 20.6708C27.029 19.6427 27.5868 18.2622 27.4397 16.8516C26.2364 16.9114 24.768 17.6454 23.9179 18.6743C23.1546 19.5554 22.4791 20.9937 22.6552 22.3452C24.0059 22.4624 25.3554 21.6701 26.207 20.6708Z" fill="black"/>
<path d="M27.4242 22.6094C25.4626 22.4925 23.7948 23.7227 22.858 23.7227C21.9208 23.7227 20.4863 22.6683 18.9348 22.6967C16.9154 22.7263 15.0416 23.8681 14.0169 25.6841C11.9092 29.3169 13.4607 34.7056 15.5103 37.6643C16.5057 39.1281 17.7053 40.7398 19.2859 40.6819C20.7793 40.6233 21.3647 39.7149 23.18 39.7149C24.994 39.7149 25.5213 40.6819 27.1022 40.6526C28.7416 40.6233 29.7665 39.1881 30.7619 37.7229C31.9038 36.0543 32.3712 34.4431 32.4006 34.3547C32.3712 34.3254 29.2393 33.1239 29.2103 29.5213C29.1807 26.5048 31.6691 25.07 31.7863 24.981C30.381 22.9026 28.1854 22.6683 27.4242 22.6094Z" fill="black"/>
<path d="M44.5035 18.5264C48.767 18.5264 51.7358 21.4652 51.7358 25.7439C51.7358 30.0379 48.7059 32.9921 44.3966 32.9921H39.6762V40.4989H36.2656V18.5264H44.5035V18.5264ZM39.6762 30.1293H43.5895C46.5589 30.1293 48.2489 28.5306 48.2489 25.7592C48.2489 22.9881 46.5589 21.4044 43.6048 21.4044H39.6762V30.1293Z" fill="black"/>
<path d="M52.627 35.9458C52.627 33.1438 54.774 31.4233 58.581 31.21L62.966 30.9513V29.718C62.966 27.9364 61.763 26.8705 59.7535 26.8705C57.8497 26.8705 56.6619 27.7839 56.3729 29.2155H53.2666C53.4493 26.3222 55.9159 24.1904 59.8751 24.1904C63.7579 24.1904 66.2397 26.2461 66.2397 29.459V40.4985H63.0876V37.8643H63.0119C62.0832 39.6459 60.0578 40.7726 57.9566 40.7726C54.8198 40.7726 52.627 38.8235 52.627 35.9458ZM62.966 34.4993V33.2355L59.0221 33.4789C57.0578 33.6161 55.9464 34.484 55.9464 35.8544C55.9464 37.2551 57.1036 38.1689 58.87 38.1689C61.1691 38.1689 62.966 36.5852 62.966 34.4993Z" fill="black"/>
<path d="M69.2165 46.3922V43.7274C69.4597 43.7882 70.0077 43.7882 70.2821 43.7882C71.8046 43.7882 72.627 43.1488 73.1293 41.5044C73.1293 41.4738 73.4189 40.5298 73.4189 40.5146L67.6328 24.4805H71.1955L75.2463 37.5149H75.3068L79.3576 24.4805H82.8292L76.8294 41.3366C75.4595 45.2197 73.8759 46.4683 70.5564 46.4683C70.2821 46.4683 69.4597 46.4377 69.2165 46.3922Z" fill="black"/>
</g>
<defs>
<clipPath id="clip0_2_6831">
<rect width="96" height="61.4583" fill="white"/>
</clipPath>
</defs>
</svg>
