<svg width="64" height="43" viewBox="0 0 64 43" fill="none" xmlns="http://www.w3.org/2000/svg">
<g clip-path="url(#clip0_4635_54571)">
<path fill-rule="evenodd" clip-rule="evenodd" d="M26.8431 16.0557C27.5682 16.0557 28.1763 16.202 28.9164 16.5554V18.4221C28.2153 17.7769 27.6072 17.5069 26.803 17.5069C25.2224 17.5069 23.9793 18.7389 23.9793 20.3008C23.9793 21.9479 25.1839 23.1066 26.8815 23.1066C27.6455 23.1066 28.2424 22.8506 28.9164 22.2157V24.0835C28.1499 24.4232 27.5288 24.5574 26.803 24.5574C24.2366 24.5574 22.2425 22.7034 22.2425 20.3123C22.2425 17.9471 24.2897 16.0557 26.8431 16.0557ZM18.8748 16.1071C19.8222 16.1071 20.689 16.4123 21.4138 17.0092L20.5319 18.0962C20.0929 17.6329 19.6777 17.4375 19.1728 17.4375C18.4464 17.4375 17.9174 17.8268 17.9174 18.3392C17.9174 18.7785 18.2143 19.011 19.2256 19.3633C21.1427 20.0233 21.7109 20.6085 21.7109 21.9008C21.7109 23.4756 20.4821 24.5718 18.7308 24.5718C17.4484 24.5718 16.5159 24.0964 15.7394 23.0234L16.8281 22.0363C17.2162 22.7428 17.8637 23.1212 18.6677 23.1212C19.4195 23.1212 19.9761 22.6328 19.9761 21.9738C19.9761 21.6321 19.8075 21.3392 19.4709 21.1321C19.3013 21.034 18.9656 20.8878 18.3057 20.6688C16.7229 20.1323 16.1798 19.5588 16.1798 18.4382C16.1798 17.1069 17.3461 16.1071 18.8748 16.1071ZM38.1342 16.2489H39.9751L42.2795 21.7129L44.6135 16.2489H46.4405L42.7077 24.5924H41.8008L38.1342 16.2489ZM5.53125 16.2614H8.0051C10.7384 16.2614 12.6438 17.9337 12.6438 20.3345C12.6438 21.5316 12.0609 22.689 11.0751 23.4571C10.2458 24.1054 9.30069 24.3962 7.99213 24.3962H5.53125V16.2614ZM13.4193 16.2614H15.1046V24.3962H13.4193V16.2614ZM47.2026 16.2614H51.9822V17.6398H48.8868V19.4454H51.8682V20.8231H48.8868V23.0189H51.9823V24.3962H47.2026V16.2614H47.2026ZM53.0986 16.2614H55.5975C57.5413 16.2614 58.6551 17.1401 58.6551 18.6632C58.6551 19.9087 57.9565 20.7259 56.687 20.9692L59.4069 24.3962H57.3342L55.0016 21.1282H54.7819V24.3962H53.0986V16.2614ZM54.7819 17.5427V20.0063H55.2743C56.3506 20.0063 56.921 19.5663 56.921 18.7486C56.921 17.957 56.3505 17.5427 55.3009 17.5427H54.7819ZM7.21543 17.6397V23.0189H7.6677C8.75677 23.0189 9.4446 22.8225 9.97416 22.3724C10.557 21.8838 10.9076 21.1035 10.9076 20.3227C10.9076 19.5433 10.557 18.7863 9.97416 18.2976C9.41744 17.8234 8.75677 17.6397 7.6677 17.6397H7.21543Z" fill="#4D4D4D"/>
<path fill-rule="evenodd" clip-rule="evenodd" d="M34.0614 16C36.6002 16 38.6581 17.9348 38.6581 20.3249V20.3276C38.6581 22.7177 36.6002 24.6551 34.0615 24.6551C31.5229 24.6551 29.4648 22.7176 29.4648 20.3276V20.3249C29.4648 17.9347 31.5228 16 34.0614 16Z" fill="#F47216"/>
</g>
<defs>
<clipPath id="clip0_4635_54571">
<rect width="64" height="42.6667" fill="white"/>
</clipPath>
</defs>
</svg>
