<svg width="64" height="43" viewBox="0 0 64 43" fill="none" xmlns="http://www.w3.org/2000/svg">
<g clip-path="url(#clip0_4328_42947)">
<g clip-path="url(#clip1_4328_42947)">
<path d="M3.28205 0H60.7179C62.5306 0 64 1.52823 64 3.41333V39.2533C64 41.1385 62.5306 42.6667 60.7179 42.6667H3.28205C1.46946 42.6667 0 41.1385 0 39.2533V3.41333C0 1.52823 1.46946 0 3.28205 0Z" fill="#0079BE"/>
<path d="M49.2245 21.7928C49.2245 13.6357 42.4159 7.99754 34.9558 8H28.5359C20.9869 7.99729 14.7734 13.6373 14.7734 21.7928C14.7734 29.2537 20.9869 35.3838 28.5359 35.3477H34.9558C42.4154 35.3835 49.2245 29.2518 49.2245 21.7928Z" fill="white"/>
<path d="M28.5769 9.15527C21.6789 9.15749 16.0895 14.76 16.0879 21.6747C16.0895 28.5881 21.6792 34.1899 28.5769 34.1924C35.4766 34.1902 41.0676 28.5881 41.0684 21.6747C41.0675 14.76 35.4767 9.15773 28.5769 9.15527Z" fill="#0079BE"/>
<path d="M20.6836 21.641C20.6902 18.262 22.7961 15.3807 25.7659 14.2358V29.0445C22.7961 27.9 20.6901 25.0203 20.6836 21.641ZM31.4323 29.0481V14.2354C34.4031 15.3775 36.5124 18.2605 36.5178 21.6411C36.5124 25.0226 34.4031 27.9034 31.4323 29.0477V29.0481Z" fill="white"/>
</g>
</g>
<defs>
<clipPath id="clip0_4328_42947">
<rect width="64" height="42.6667" fill="white"/>
</clipPath>
<clipPath id="clip1_4328_42947">
<rect width="64" height="42.6667" fill="white"/>
</clipPath>
</defs>
</svg>
