<svg width="96" height="64" viewBox="0 0 96 64" fill="none" xmlns="http://www.w3.org/2000/svg">
<g clip-path="url(#clip0_4635_54559)">
<path d="M70.429 7L25.4929 7C11.4503 7 -0.0390625 18.3684 -0.0390625 32.2632C-0.0390625 46.1579 11.4503 57.5263 25.4929 57.5263L70.429 57.5263C84.4716 57.5263 95.9609 46.1579 95.9609 32.2632C95.9609 18.3684 84.4716 7 70.429 7Z" fill="white"/>
<path d="M70.429 9.04632C73.5822 9.04632 76.646 9.66526 79.5312 10.8779C82.3269 12.0526 84.829 13.7326 86.9992 15.8674C89.1567 18.0021 90.8546 20.4905 92.0418 23.2568C93.2673 26.1116 93.8929 29.1432 93.8929 32.2632C93.8929 35.3832 93.2673 38.4147 92.0418 41.2695C90.8546 44.0358 89.1567 46.5116 86.9992 48.6589C84.8418 50.7937 82.3269 52.4737 79.5312 53.6484C76.646 54.861 73.5822 55.48 70.429 55.48L25.4929 55.48C22.3397 55.48 19.2758 54.861 16.3907 53.6484C13.595 52.4737 11.0929 50.7937 8.92264 48.6589C6.76519 46.5242 5.06732 44.0358 3.88009 41.2695C2.65455 38.4147 2.02902 35.3832 2.02902 32.2632C2.02902 29.1432 2.65455 26.1116 3.88009 23.2568C5.06732 20.4905 6.76519 18.0147 8.92264 15.8674C11.0801 13.7326 13.595 12.0526 16.3907 10.8779C19.2758 9.66526 22.3397 9.04632 25.4929 9.04632L70.429 9.04632ZM70.429 7L25.4929 7C11.4503 7 -0.0390625 18.3684 -0.0390625 32.2632C-0.0390625 46.1579 11.4503 57.5263 25.4929 57.5263L70.429 57.5263C84.4716 57.5263 95.9609 46.1579 95.9609 32.2632C95.9609 18.3684 84.4716 7 70.429 7Z" fill="#3C4043"/>
<path d="M45.7401 34.0566V41.6987H43.2891V22.8271H49.7869C51.4337 22.8271 52.838 23.3703 53.9869 24.4566C55.1614 25.5429 55.7486 26.8693 55.7486 28.4356C55.7486 30.0398 55.1614 31.3661 53.9869 32.4398C52.8508 33.5135 51.4465 34.044 49.7869 34.044H45.7401V34.0566ZM45.7401 25.1514V31.7324H49.838C50.8082 31.7324 51.6252 31.404 52.2635 30.7598C52.9146 30.1156 53.2465 29.3324 53.2465 28.4482C53.2465 27.5766 52.9146 26.8061 52.2635 26.1619C51.6252 25.4924 50.821 25.164 49.838 25.164H45.7401V25.1514Z" fill="#3C4043"/>
<path d="M62.1565 28.3594C63.9693 28.3594 65.3991 28.8394 66.4459 29.7994C67.4927 30.7594 68.0161 32.0731 68.0161 33.7404V41.6983H65.6799V39.9046H65.5778C64.5693 41.3825 63.2161 42.1152 61.531 42.1152C60.0884 42.1152 58.8884 41.6983 57.9182 40.852C56.948 40.0057 56.4629 38.9573 56.4629 37.6941C56.4629 36.3552 56.9735 35.2941 57.9948 34.511C59.0161 33.7152 60.382 33.3236 62.0799 33.3236C63.5352 33.3236 64.7352 33.5888 65.6671 34.1194V33.5636C65.6671 32.7173 65.3352 32.0099 64.6586 31.4162C63.982 30.8225 63.1906 30.532 62.2842 30.532C60.9182 30.532 59.8331 31.1004 59.0416 32.2499L56.8842 30.911C58.0714 29.2057 59.8331 28.3594 62.1565 28.3594ZM58.9905 37.732C58.9905 38.3636 59.2586 38.8941 59.8076 39.311C60.3437 39.7278 60.982 39.9425 61.7097 39.9425C62.7437 39.9425 63.6629 39.5636 64.4671 38.8057C65.2714 38.0478 65.6799 37.1636 65.6799 36.1404C64.914 35.5467 63.8544 35.2436 62.4884 35.2436C61.4927 35.2436 60.6629 35.4836 59.9991 35.951C59.3225 36.4436 58.9905 37.0373 58.9905 37.732Z" fill="#3C4043"/>
<path d="M81.3437 28.7764L73.1735 47.3701H70.6458L73.6841 40.8648L68.2969 28.7764H70.965L74.8458 38.0479H74.8969L78.6756 28.7764H81.3437Z" fill="#3C4043"/>
<path d="M35.99 32.5152C35.99 31.7244 35.9185 30.9678 35.7858 30.2402H25.5117V34.4087L31.4287 34.4099C31.1887 35.7969 30.4164 36.9792 29.233 37.7674V40.4718H32.7551C34.8117 38.5884 35.99 35.8044 35.99 32.5152Z" fill="#4285F4"/>
<path d="M29.2358 37.7674C28.2554 38.4217 26.9928 38.8044 25.5158 38.8044C22.6626 38.8044 20.2422 36.9021 19.3754 34.3379H15.7422V37.1269C17.5422 40.6613 21.2418 43.0865 25.5158 43.0865C28.4698 43.0865 30.9516 42.1253 32.7579 40.4705L29.2358 37.7674Z" fill="#34A853"/>
<path d="M19.0322 32.2695C19.0322 31.5495 19.1534 30.8535 19.3743 30.1992V27.4102H15.7411C14.9968 28.8716 14.5781 30.5213 14.5781 32.2695C14.5781 34.0177 14.9981 35.6674 15.7411 37.1289L19.3743 34.3398C19.1534 33.6855 19.0322 32.9895 19.0322 32.2695Z" fill="#FABB05"/>
<path d="M25.5158 25.7323C27.1281 25.7323 28.572 26.2818 29.712 27.3555L32.8333 24.2696C30.9375 22.5226 28.466 21.4502 25.5158 21.4502C21.243 21.4502 17.5422 23.8755 15.7422 27.4098L19.3754 30.1988C20.2422 27.6346 22.6626 25.7323 25.5158 25.7323Z" fill="#E94235"/>
</g>
<defs>
<clipPath id="clip0_4635_54559">
<rect width="96" height="50.5263" fill="white" transform="translate(0 7)"/>
</clipPath>
</defs>
</svg>
