<svg width="64" height="43" viewBox="0 0 64 43" fill="none" xmlns="http://www.w3.org/2000/svg">
<g clip-path="url(#clip0_4635_54569)">
<g clip-path="url(#clip1_4635_54569)">
<path d="M60.7329 34.0656C60.7329 38.8063 56.8725 42.6667 52.1318 42.6667H5.33398V8.60111C5.33398 3.86039 9.19438 0 13.9351 0H60.7329V34.0656Z" fill="white"/>
<path d="M45.4941 25.3289H49.0496C49.1513 25.3289 49.3883 25.2952 49.49 25.2952C50.1673 25.1597 50.743 24.5501 50.743 23.7035C50.743 22.8909 50.1673 22.2813 49.49 22.1121C49.3883 22.0781 49.1853 22.0781 49.0498 22.0781H45.4944V25.3289H45.4941Z" fill="url(#paint0_linear_4635_54569)"/>
<path d="M48.6441 2.87793C45.2579 2.87793 42.481 5.62104 42.481 9.04106V15.4411H51.1838C51.387 15.4411 51.624 15.4411 51.7932 15.4749C53.7573 15.5766 55.2135 16.5924 55.2135 18.353C55.2135 19.7415 54.2314 20.9267 52.4028 21.1639V21.2314C54.4007 21.3669 55.9246 22.4844 55.9246 24.2113C55.9246 26.0738 54.2314 27.2928 51.9964 27.2928H42.4473V39.8221H51.4885C54.8748 39.8221 57.6517 37.0792 57.6517 33.6589V2.87793H48.6441Z" fill="#5CB531"/>
<path d="M50.3026 18.7597C50.3026 17.9469 49.727 17.405 49.0496 17.3033C48.9821 17.3033 48.8127 17.2695 48.7112 17.2695H45.4941V20.2494H48.7112C48.8129 20.2494 49.0159 20.2494 49.0498 20.2156C49.7272 20.1139 50.3028 19.5723 50.3028 18.7595L50.3026 18.7597Z" fill="url(#paint1_linear_4635_54569)"/>
<path d="M14.5777 2.87793C11.1915 2.87793 8.41462 5.62104 8.41462 9.04106V24.2455C10.1417 25.0918 11.9363 25.6337 13.7312 25.6337C15.8645 25.6337 17.0157 24.3469 17.0157 22.5861V15.4072H22.2983V22.5521C22.2983 25.3288 20.5714 27.5977 14.7132 27.5977C11.1577 27.5977 8.38086 26.8187 8.38086 26.8187V39.7881H17.4221C20.8084 39.7881 23.5853 37.0452 23.5853 33.625V2.87836H14.5775L14.5777 2.87793Z" fill="#006FBC"/>
<path d="M31.6104 2.87793C28.2241 2.87793 25.4473 5.62104 25.4473 9.04106V17.1003C27.0051 15.7796 29.7141 14.933 34.0824 15.1362C36.4188 15.2379 38.9246 15.8813 38.9246 15.8813V18.4887C37.6716 17.8454 36.1819 17.2695 34.2516 17.1341C30.9331 16.8971 28.9352 18.5225 28.9352 21.3669C28.9352 24.2452 30.9331 25.8706 34.2516 25.5997C36.1819 25.4642 37.6718 24.8548 38.9246 24.2452V26.8527C38.9246 26.8527 36.4526 27.496 34.0824 27.5977C29.7141 27.8007 27.0051 26.9542 25.4475 25.6337V39.8558H34.4888C37.875 39.8558 40.6517 37.1129 40.6517 33.6927V2.87836H31.6104V2.87793Z" fill="#E60039"/>
</g>
</g>
<defs>
<linearGradient id="paint0_linear_4635_54569" x1="42.4746" y1="23.7075" x2="57.6919" y2="23.7075" gradientUnits="userSpaceOnUse">
<stop stop-color="#007940"/>
<stop offset="0.2285" stop-color="#00873F"/>
<stop offset="0.7433" stop-color="#40A737"/>
<stop offset="1" stop-color="#5CB531"/>
</linearGradient>
<linearGradient id="paint1_linear_4635_54569" x1="42.4742" y1="18.7552" x2="57.6923" y2="18.7552" gradientUnits="userSpaceOnUse">
<stop stop-color="#007940"/>
<stop offset="0.2285" stop-color="#00873F"/>
<stop offset="0.7433" stop-color="#40A737"/>
<stop offset="1" stop-color="#5CB531"/>
</linearGradient>
<clipPath id="clip0_4635_54569">
<rect width="64" height="42.6667" fill="white"/>
</clipPath>
<clipPath id="clip1_4635_54569">
<rect width="64" height="42.6667" fill="white"/>
</clipPath>
</defs>
</svg>
