<svg width="96" height="64" viewBox="0 0 96 64" fill="none" xmlns="http://www.w3.org/2000/svg">
<path d="M60.9793 56.9934H35.0215V10.3428H60.9797L60.9793 56.9934Z" fill="#6C6BBD"/>
<path d="M36.6686 33.6685C36.6686 24.2054 41.0992 15.7757 47.9992 10.3435C42.9536 6.37112 36.585 4 29.6647 4C13.281 4 0 17.2829 0 33.6685C0 50.0544 13.281 63.3373 29.6647 63.3373C36.5853 63.3373 42.9536 60.9662 47.9992 56.9938C41.0992 51.5616 36.6686 43.132 36.6686 33.6688" fill="#D32011"/>
<path d="M95.9991 33.6685C95.9991 50.0544 82.7181 63.3373 66.3344 63.3373C59.4138 63.3373 53.0455 60.9662 47.998 56.9938C54.8999 51.5616 59.3305 43.132 59.3305 33.6688C59.3305 24.2054 54.8999 15.7757 47.998 10.3435C53.0455 6.37112 59.4142 4 66.3344 4C82.7181 4 95.9991 17.2829 95.9991 33.6685Z" fill="#0099DF"/>
</svg>
