<svg width="96" height="64" viewBox="0 0 96 64" fill="none" xmlns="http://www.w3.org/2000/svg">
<path d="M67.2 61.6C83.1058 61.6 96 48.7058 96 32.8C96 16.8942 83.1058 4 67.2 4C59.8238 4 53.0953 6.77299 48 11.3334C53.892 16.6068 57.6 24.2704 57.6 32.8C57.6 41.3296 53.892 48.9931 48 54.2666C53.0953 58.827 59.8238 61.6 67.2 61.6Z" fill="#F79E1B"/>
<path d="M48.0004 54.2672C53.8924 48.9938 57.6004 41.3302 57.6004 32.8006C57.6004 24.271 53.8924 16.6075 48.0004 11.334C42.1084 16.6075 38.4004 24.271 38.4004 32.8006C38.4004 41.3302 42.1084 48.9938 48.0004 54.2672Z" fill="#FF5F00"/>
<path d="M28.8 4C12.8942 4 0 16.8942 0 32.8C0 48.7058 12.8942 61.6 28.8 61.6C36.1762 61.6 42.9047 58.827 48 54.2666C42.108 48.9931 38.4 41.3296 38.4 32.8C38.4 24.2704 42.108 16.6069 48 11.3334C42.9047 6.773 36.1762 4 28.8 4Z" fill="#EB001B"/>
</svg>
