<svg width="96" height="64" viewBox="0 0 96 64" fill="none" xmlns="http://www.w3.org/2000/svg">
<path fill-rule="evenodd" clip-rule="evenodd" d="M36.5245 16.1126L23.9085 46.836H15.6855L9.49017 22.7586C9.45428 22.1711 9.26681 21.6029 8.94602 21.1093C8.62523 20.6158 8.18207 20.2138 7.65972 19.9425C5.23618 18.6829 2.66229 17.7366 0 17.1264L0.168965 16H13.3764C14.2576 16.049 15.0949 16.4009 15.7466 16.9961C16.3982 17.5914 16.8243 18.3934 16.9528 19.2666L20.2194 36.5292L28.3016 16L36.5245 16.1126ZM68.6277 36.7545C68.6277 28.8413 57.6732 28.3062 57.7577 24.8706C57.7577 23.8005 58.7996 22.6459 61.0525 22.3643C63.6809 22.1162 66.3275 22.5832 68.7122 23.716L70.0639 17.3517C67.7401 16.4821 65.2797 16.0339 62.7985 16.0282C55.1387 16.0282 49.7319 20.1115 49.6756 25.9407C49.6756 30.2493 53.5336 32.6712 56.4623 34.1074C59.391 35.5436 60.4893 36.5292 60.4893 37.8246C60.4893 39.8522 58.0675 40.6407 55.8428 40.6407C53.0527 40.7605 50.2788 40.1591 47.7888 38.8947L46.3808 45.4843C49.136 46.5582 52.069 47.1028 55.0261 47.0895C63.1927 47.0895 68.5151 43.0625 68.5433 36.8108L68.6277 36.7545ZM88.819 46.8923H96L89.8046 16.1126H83.1869C82.4508 16.1821 81.7498 16.4601 81.1662 16.9141C80.5826 17.368 80.1406 17.9789 79.892 18.6753L68.2335 46.836H76.372L78.0053 41.7108H87.9742L88.819 46.8923ZM80.23 35.3183L84.3133 24.054L86.6788 35.3183H80.23ZM47.5635 16.1126L41.1429 46.836H33.3705L39.8193 16.1126H47.5635Z" fill="#1A1F71"/>
</svg>
