<svg width="417" height="176" viewBox="0 0 417 176" fill="none" xmlns="http://www.w3.org/2000/svg">
<path d="M95.4991 94.75V47.25H67.0738V94.75H28.4253V3.00001H0V120.5H67.0738V173H95.4991V120.5H119.686V94.75H95.4991Z" fill="#0062EB"/>
<path d="M205.978 176C248.616 176 271.057 145.5 271.057 88C271.057 30.5 248.616 0 205.978 0C163.34 0 140.899 30.5 140.899 88C140.899 145.5 163.34 176 205.978 176ZM205.978 151C180.545 151 168.078 130.25 168.078 88C168.078 45.75 180.545 25 205.978 25C231.411 25 243.879 45.75 243.879 88C243.879 130.25 231.411 151 205.978 151Z" fill="#0062EB"/>
<path d="M392.814 94.75V47.25H364.388V94.75H325.74V3.00001H297.314V120.5H364.388V173H392.814V120.5H417V94.75H392.814Z" fill="#0062EB"/>
</svg>
