<svg width="40" height="40" viewBox="0 0 40 40" fill="none" xmlns="http://www.w3.org/2000/svg">
<path d="M9.09103 17.6264C7.34795 17.6264 5.64401 17.1095 4.19469 16.1411C2.74536 15.1727 1.61575 13.7963 0.948704 12.1859C0.281654 10.5755 0.107119 8.80342 0.447178 7.09383C0.787237 5.38424 1.62662 3.81388 2.85917 2.58133C4.09171 1.34878 5.66208 0.509406 7.37167 0.169347C9.08126 -0.170712 10.8533 0.00381896 12.4637 0.670869C14.0741 1.33792 15.4505 2.46753 16.4189 3.91685C17.3873 5.36617 17.9042 7.07011 17.9042 8.8132V17.6264H9.09103Z" fill="black"/>
<path d="M38.6581 31.1701C38.6581 32.9132 38.1413 34.6172 37.1729 36.0665C36.2044 37.5158 34.828 38.6454 33.2176 39.3125C31.6072 39.9795 29.8352 40.154 28.1256 39.814C26.416 39.4739 24.8456 38.6346 23.6131 37.402C22.3805 36.1695 21.5411 34.5991 21.2011 32.8895C20.861 31.1799 21.0356 29.4079 21.7026 27.7975C22.3697 26.1871 23.4993 24.8106 24.9486 23.8422C26.3979 22.8738 28.1019 22.3569 29.8449 22.3569H38.6581V31.1701Z" fill="black"/>
<path d="M31.2742 13.839C31.2742 14.6776 31.0255 15.4973 30.5596 16.1946C30.0937 16.8918 29.4316 17.4353 28.6568 17.7562C27.8821 18.0771 27.0296 18.161 26.2071 17.9974C25.3847 17.8338 24.6292 17.43 24.0363 16.8371C23.4433 16.2441 23.0395 15.4887 22.8759 14.6662C22.7123 13.8438 22.7963 12.9913 23.1172 12.2165C23.4381 11.4418 23.9815 10.7796 24.6788 10.3137C25.376 9.84785 26.1957 9.59918 27.0343 9.59918H31.2742V13.839Z" fill="black"/>
<path d="M31.2741 5.36175C31.2741 4.52376 31.5225 3.70458 31.9881 3.00778C32.4536 2.31098 33.1152 1.76785 33.8894 1.44706C34.6636 1.12626 35.5155 1.04221 36.3374 1.20552C37.1593 1.36883 37.9144 1.77217 38.5071 2.36456C39.0998 2.95694 39.5036 3.71176 39.6673 4.5336C39.8311 5.35543 39.7475 6.20737 39.4272 6.98171C39.1068 7.75605 38.564 8.41802 37.8675 8.88392C37.171 9.34983 36.3519 9.59876 35.5139 9.59923H31.2741V5.36175Z" fill="black"/>
<path d="M1.63559 24.0362V31.6251C1.63559 33.7865 2.49423 35.8595 4.02262 37.3879C5.551 38.9162 7.62395 39.7749 9.78541 39.7749C11.9469 39.7749 14.0198 38.9162 15.5482 37.3879C17.0766 35.8595 17.9352 33.7865 17.9352 31.6251V24.0362H1.63559Z" fill="black"/>
</svg>
