<svg width="166" height="32" viewBox="0 0 166 32" fill="none" xmlns="http://www.w3.org/2000/svg">
<path d="M12.6064 27.2547C10.3098 27.2547 8.06464 26.5737 6.15494 25.2979C4.24524 24.022 2.75669 22.2086 1.8775 20.0869C0.998312 17.9652 0.767954 15.6304 1.21555 13.3777C1.66315 11.1251 2.7686 9.05575 4.39215 7.43131C6.0157 5.80687 8.08445 4.70029 10.3368 4.25146C12.5892 3.80263 14.9241 4.03171 17.0463 4.90974C19.1686 5.78777 20.9828 7.27532 22.2597 9.18433C23.5365 11.0933 24.2187 13.3381 24.22 15.6348V27.2483L12.6064 27.2547Z" fill="black"/>
<path d="M120.782 27.2547C118.485 27.2547 116.24 26.5737 114.33 25.2979C112.421 24.022 110.932 22.2086 110.053 20.0869C109.174 17.9652 108.943 15.6304 109.391 13.3777C109.838 11.1251 110.944 9.05575 112.567 7.43131C114.191 5.80687 116.26 4.70029 118.512 4.25146C120.765 3.80263 123.099 4.03171 125.222 4.90974C127.344 5.78777 129.158 7.27532 130.435 9.18433C131.712 11.0933 132.394 13.3381 132.395 15.6348V27.2483L120.782 27.2547Z" fill="black"/>
<path d="M40.233 21.1861C40.2349 22.4119 39.8731 23.6106 39.1935 24.6308C38.5139 25.6509 37.5469 26.4465 36.415 26.9168C35.283 27.3872 34.037 27.5113 32.8346 27.2733C31.6321 27.0353 30.5273 26.446 29.6598 25.5799C28.7924 24.7138 28.2014 23.6099 27.9616 22.4078C27.7217 21.2057 27.8439 19.9595 28.3125 18.8269C28.7812 17.6942 29.5753 16.726 30.5943 16.0448C31.6134 15.3636 32.8116 15 34.0374 15H40.233V21.1861Z" fill="black"/>
<path d="M40.2142 8.82377C40.2136 7.59826 40.5764 6.40009 41.2568 5.38081C41.9372 4.36154 42.9046 3.56694 44.0367 3.09753C45.1687 2.62811 46.4146 2.50496 47.6166 2.74366C48.8186 2.98236 49.9229 3.57219 50.7897 4.43853C51.6565 5.30487 52.2468 6.40882 52.4862 7.61073C52.7255 8.81264 52.603 10.0585 52.1341 11.1908C51.6653 12.3231 50.8712 13.2909 49.8523 13.9718C48.8333 14.6527 47.6353 15.0162 46.4098 15.0162H40.2142V8.82377Z" fill="black"/>
<path d="M65.4845 27.2264C63.1906 27.2252 60.9487 26.5438 59.0422 25.2684C57.1357 23.993 55.6501 22.1808 54.7735 20.0611C53.8969 17.9415 53.6685 15.6094 54.1172 13.3599C54.5659 11.1105 55.6716 9.04455 57.2945 7.42347C58.9173 5.80239 60.9844 4.69895 63.2344 4.25268C65.4844 3.80641 67.8162 4.03736 69.9349 4.91632C72.0536 5.79528 73.8641 7.28279 75.1375 9.19071C76.4108 11.0986 77.0898 13.3413 77.0885 15.6351V27.2201L65.4845 27.2264Z" fill="black"/>
<path d="M148.728 4.79901C146.431 4.79901 144.186 5.48022 142.276 6.75647C140.366 8.03273 138.877 9.84671 137.998 11.969C137.119 14.0913 136.89 16.4265 137.338 18.6794C137.786 20.9323 138.893 23.0017 140.517 24.6257C142.142 26.2498 144.211 27.3556 146.464 27.8034C148.717 28.2511 151.053 28.0207 153.175 27.1412C155.297 26.2617 157.11 24.7727 158.386 22.8624C159.662 20.9522 160.342 18.7065 160.342 16.4094V4.79901H148.728Z" fill="black"/>
<path d="M81.3324 5.63068V15.635C81.3324 18.7151 82.556 21.6691 84.7339 23.8471C86.9119 26.025 89.8658 27.2486 92.946 27.2486C96.0261 27.2486 98.98 26.025 101.158 23.8471C103.336 21.6691 104.56 18.7151 104.56 15.635V5.63068H81.3324Z" fill="black"/>
<path d="M79.4661 31.9969C78.8297 31.9969 78.2194 31.7441 77.7694 31.2941C77.3194 30.8441 77.0666 30.2337 77.0666 29.5973L77.0888 27.2264H79.4661C79.7822 27.2178 80.0967 27.2731 80.3909 27.3889C80.6851 27.5046 80.9529 27.6785 81.1784 27.9001C81.4038 28.1217 81.5823 28.3865 81.7031 28.6787C81.8239 28.9709 81.8846 29.2844 81.8815 29.6005C81.8819 29.9157 81.8201 30.228 81.6997 30.5193C81.5793 30.8106 81.4025 31.0753 81.1796 31.2982C80.9567 31.5211 80.6921 31.6978 80.4007 31.8182C80.1094 31.9387 79.7972 32.0005 79.482 32L79.4661 31.9969Z" fill="black"/>
<path d="M165.141 2.39952C165.14 3.0354 164.886 3.64475 164.437 4.09439C163.987 4.54402 163.378 4.79736 162.742 4.79904H160.342V2.39952C160.342 2.0843 160.404 1.77208 160.524 1.48077C160.645 1.18946 160.821 0.924773 161.044 0.701873C161.267 0.478974 161.532 0.302242 161.823 0.181802C162.114 0.0613629 162.427 -0.000415692 162.742 2.10501e-06V2.10501e-06C163.378 2.10501e-06 163.989 0.252805 164.439 0.702803C164.889 1.1528 165.141 1.76313 165.141 2.39952V2.39952Z" fill="black"/>
</svg>
